<svg id="Слой_1" data-name="Слой 1" xmlns="http://www.w3.org/2000/svg" viewBox="0 0 440 320"><defs><style>.cls-1{fill:#e5e7e9;}.cls-2,.cls-3{fill:#212f4d;}.cls-2{fill-rule:evenodd;}</style></defs><rect class="cls-1" width="440" height="320"/><path class="cls-2" d="M75.383,53.679c-1.727.11-4.3.3-5.7.411l-2.577.219-.383,1.1c-.274.849-.3,1.836-.11,4.659.439,6.414.521,30.151.165,41.8-.192,6.112-.412,17.707-.466,25.765-.11,16.309-.11,18.968-.028,46.734.028,10.689.028,34.81,0,53.586l-.027,34.125.575,1.288c.741,1.644,1.4,2.028,3.893,2.275,1.123.082,2.549.219,3.152.3.6.054,7.017.164,14.253.246s13.513.192,13.924.274c.411.055,5.482,0,11.238-.164,9.7-.274,27.327-.466,50.763-.576,5.29,0,16.637.055,25.216.165,14.774.192,15.679.164,16.556-.3,1.343-.713,1.617-1.754,1.644-6.112.028-2.029.165-4.5.3-5.482a112.635,112.635,0,0,0,1.014-15.35c.192-9.648.192-10.333-.247-27.272-.164-6.633-.3-12.5-.274-13.02.055-1.562.11-14.335.11-26.724-.027-6.332.082-13.869.219-16.72.439-10.087-.109-51.613-.822-63.728-.713-11.868-.877-17.569-.685-26.477.137-7.84.109-9.374-.192-9.649-.877-.712-8.881-.877-57.369-1.206C87.169,53.46,79.33,53.432,75.383,53.679Zm130.443,2.056.658.164-.247,5.1c-.329,6.743-.164,19.242.329,26.752.959,14.555,1.233,44.349.959,103.609-.055,14.171,0,21.708.274,28.972.329,10.224-.054,26.943-.767,31.877-.247,1.645-.521,4.934-.6,7.264a22.986,22.986,0,0,1-.493,4.824c-.329.6-.357.6-11.924.521-6.386-.028-14.171-.192-17.35-.357-3.645-.164-9.95-.164-17.131-.027-6.249.137-16.309.247-22.339.219s-13.047.11-15.624.247c-6.852.438-38.647.384-45.5-.055-6.413-.438-4.221-.658,6.168-.658,11.1.028,61.041-.246,83.6-.438,7.319-.055,15.459,0,18.091.137,10.744.493,20.255.6,20.721.246.85-.74,1.316-2.055,1.4-4.111.192-4.714.22-114.244.028-134.444-.11-12.061-.3-32.289-.412-44.952-.191-21.27-.246-23.107-.685-23.792C204.154,55.6,204.373,55.324,205.826,55.735Zm-106.377.438c9.4.11,17.241.274,17.405.384.3.192,14.143.274,62.659.329,12.115.027,22.311.109,22.667.192a1.153,1.153,0,0,1,.795.657c.137.466.329,40.512.548,121.837.028,16.116.11,37.578.138,47.692.027,10.087-.055,22.065-.165,26.56l-.192,8.2-9.347-.247c-9.127-.219-16.418-.247-49.227-.192-8.826.028-21.078.055-27.273.055-6.167,0-18.337.082-27,.192s-17.1.11-18.721-.027l-2.988-.192.055-5.948c.027-3.262.055-21.106.055-39.634.027-65.839.137-83.819.52-102.1.549-25.956.357-52.434-.383-57.149-.082-.383,5.153-.822,9.538-.8C80.646,55.981,90.075,56.091,99.449,56.173Z"/><path class="cls-2" d="M72.286,58.476c-.384.63.822,17.35,1.288,17.816.329.329.356-.055.137-1.837-.109-.986-.356-4.933-.521-8.771C72.889,59.38,72.7,57.79,72.286,58.476Z"/><path class="cls-2" d="M75.767,60.312a22.309,22.309,0,0,0,.439,6.25c.164.411.191-.576.109-2.906C76.206,60.065,76.1,59.462,75.767,60.312Z"/><path class="cls-2" d="M78.672,61.3a.3.3,0,0,0,.275.274.275.275,0,0,0,.274-.274.259.259,0,0,0-.274-.274A.275.275,0,0,0,78.672,61.3Z"/><path class="cls-2" d="M198.617,62.45c-.274,2.549-.438,19.406-.192,19.406.22,0,.412-4.495.686-15.98a29.173,29.173,0,0,0-.11-4.851C198.864,61.025,198.7,61.682,198.617,62.45Z"/><path class="cls-2" d="M194.012,63.135c-.219.521.11,5.647.357,5.263.329-.521.329-5.455,0-5.455A.4.4,0,0,0,194.012,63.135Z"/><path class="cls-2" d="M188.64,63.958a12.955,12.955,0,0,0-.493,1.863c-.22,1.426.3.987.658-.548a13.745,13.745,0,0,1,.465-1.59c.11-.246.083-.465-.082-.465C189.051,63.218,188.805,63.546,188.64,63.958Z"/><path class="cls-2" d="M82.619,64.7a17.478,17.478,0,0,0,0,3.535c.275,4.359.686,38.758.905,74.061.137,26.067.082,31-.274,36.318-.247,3.4-.521,10.361-.6,15.487s-.274,13.705-.439,19.049-.329,16.117-.384,23.957c-.109,13.458-.027,15.239.631,15.239.11,0,.192-6.578.219-14.582.028-24.614.6-49.036,1.48-62.576.357-5.1.3-39.5-.055-57.423-.164-8.36-.274-19.6-.246-24.943.082-11.156-.411-27.958-.795-28.342C82.894,64.314,82.729,64.4,82.619,64.7Z"/><path class="cls-2" d="M105.342,85.2a6.233,6.233,0,0,0-.439,2.138,38.49,38.49,0,0,1-2.549,9.1c-1.041,2.056-.822,3.207.521,2.851.411-.083.905-.713,1.48-1.864l.877-1.727v9.73c.028,5.345.11,14.226.192,19.735l.137,10.005-1.507,1.069c-2.769,1.946-4.934,5.591-3.618,6.085.329.137,1.041-.466,2.6-2.111a9.12,9.12,0,0,1,2.357-2.11,69.329,69.329,0,0,1,.685,9.292v2.083l-1.973.192c-2.687.274-3.207.411-3.509.986-.521.987.329,1.371,3.043,1.371h2.439v1.288c0,1.48.74,3.18,1.4,3.317.658.109,1.124-1.316,1.014-3.152l-.082-1.59,4.934-.329c3.015-.192,17.46-.384,37.277-.466l32.343-.165-1.781.713c-.987.411-2.769,1.069-3.975,1.508-2.467.877-3.042,1.452-1.179,1.178a45.65,45.65,0,0,0,8.58-2.3c1.507-.576,3.07-1.124,3.453-1.206.905-.192,1.179-.822.631-1.4a9.414,9.414,0,0,0-2.385-.987c-1.1-.3-3.673-1.124-5.756-1.836-2.96-.987-3.837-1.179-4.084-.932-.548.548.055,1.178,1.946,2.138l1.727.877-3.262.192c-1.781.137-7.866.164-13.513.082s-20.338-.055-32.617.055-22.366.192-22.366.164c-.028-.027-.11-2.878-.138-6.331l-.109-6.3,1.507-.52a17.89,17.89,0,0,1,4.523-.631,11.607,11.607,0,0,1,5.756.74c2.823.905,5.345,1.288,6.551.987a7.215,7.215,0,0,0,3.317-3.015c1.48-2.549,4-12.992,4.906-20.311.548-4.3,1.864-10.141,2.768-12.17a10.3,10.3,0,0,1,1.727-2.576c1.261-1.206,3.426-2.22,4.331-2,1.4.356,2.658,4.276,3.426,10.58.959,7.675,2.412,16.994,3.152,20.037.905,3.755,2.056,5.838,3.782,7.016,2.5,1.7,4.605,1.015,7.017-2.247,1.481-2.028,2.056-2.275,3.481-1.535a8.785,8.785,0,0,1,3.783,3.536c1.124,1.809,1.974,2.412,3.673,2.686a5.269,5.269,0,0,0,4.55-1.836c.822-.905.987-1.289.9-2.084-.054-.548-.219-1.041-.383-1.1a5.859,5.859,0,0,0-1.946,1.151c-2.413,1.809-3.317,1.645-4.879-.822-1.618-2.522-4.6-4.495-6.8-4.523a5.577,5.577,0,0,0-4.3,2.577,12.053,12.053,0,0,1-1.809,1.946c-.631.411-.74.411-1.371,0-2.357-1.535-3.7-7.072-5.865-24.2-.905-7.1-2.083-10.854-4-12.69a2.571,2.571,0,0,0-2.522-.905,6.656,6.656,0,0,0-2.933.658,13.227,13.227,0,0,0-5.208,5.345,57.183,57.183,0,0,0-3.015,12.307A113.611,113.611,0,0,1,128.777,129c-.932,2.878-1.288,3.59-2.192,4.5-1.015,1.041-1.1,1.069-2.522.877a21.181,21.181,0,0,1-3.344-.767,25.253,25.253,0,0,0-10.909-.138,6.907,6.907,0,0,1-1.672.412c-.11-.137-.658-19.763-.823-29.109l-.109-8.223.822,1.041c2,2.412,2.193.3.521-5.345-.6-1.946-1.206-4.248-1.371-5.125-.246-1.371-.794-2.248-1.4-2.248A1,1,0,0,0,105.342,85.2Z"/><path class="cls-2" d="M100.874,174.775a9.765,9.765,0,0,0-2,1.59l-1.041,1.069-1.508-1.48c-1.261-1.289-1.617-1.481-2.357-1.4-1.48.137-1.343,1.014.439,3.015a12.674,12.674,0,0,1,1.534,1.864,18.888,18.888,0,0,1-1.48,2.384c-1.589,2.385-2.521,4.5-2.275,5.126.274.685.768.274,2.878-2.467a21.339,21.339,0,0,1,2.193-2.577c.11,0,.466.439.822.96.686,1.069,1.7,1.672,2.358,1.425s.521-1.124-.384-2.96l-.85-1.645,1.809-2.056c1.837-2.11,1.891-2.22,1.617-2.96C102.409,174.117,102.053,174.117,100.874,174.775Z"/><path class="cls-2" d="M122.667,177.105a20.973,20.973,0,0,1-2.257,3.152c-1.5,1.7-1.68,2.11-1.129,2.686.525.548,1.26.384,2.1-.493a4.86,4.86,0,0,1,.866-.823,16.076,16.076,0,0,1,.183,2.056c.079,1.672.21,2.165.683,2.659.525.575.6.575,1,.164.6-.63,1.391-9.867.893-10.5C124.32,175.131,123.533,175.515,122.667,177.105Z"/><path class="cls-2" d="M170.193,176.282c-1.425.466-2.3,1.289-2.055,1.946.137.329.383.412.986.275.466-.083,1.206-.247,1.7-.329l.877-.192-.959,1.151c-1.508,1.864-1.645,2.111-1.453,2.6.137.356.548.439,2.055.439,1.453,0,1.947.109,2.084.411.219.6-.494,1.288-3.426,3.344-1.426.986-2.467,1.891-2.358,2.055.219.329,2.5.083,3.618-.383,2.824-1.234,4.715-3.153,4.715-4.824,0-.96-1.151-2.522-1.864-2.522-1.014,0-1.234-.411-.767-1.316.6-1.179.548-2.138-.165-2.631C172.441,175.789,171.865,175.789,170.193,176.282Z"/><path class="cls-2" d="M146.731,176.447a3.688,3.688,0,0,0-2.275,2.439c0,.521.685,1.371,1.123,1.371a3.167,3.167,0,0,0,.987-.822,2.2,2.2,0,0,1,1.261-.823c.439,0,.493.137.329.74a14.452,14.452,0,0,1-2.6,4.386c-1.288,1.535-1.453,2.11-.85,2.878l.494.576,4.413-.631c2.85-.411,4.44-.767,4.44-.959,0-.3-3.563-.96-5.263-.96-.438,0-.767-.082-.767-.164a7.865,7.865,0,0,1,.795-1.288c2.055-3.043,2.494-5.071,1.288-6.195A3.55,3.55,0,0,0,146.731,176.447Z"/><path class="cls-2" d="M110.029,177.982a63.72,63.72,0,0,0,0,6.852l.164,6.113h-8.168c-9.072,0-11.566.164-11.566.712,0,.85,1.123.932,10.36.932h9.292l.165,3.372c.192,3.809.932,9.812,1.343,10.854l.274.712.274-.685a64.3,64.3,0,0,0,.466-7.537l.164-6.853,10.279.11c5.646.055,10.334.137,10.388.192s.22,3.207.329,7.016c.192,6.414.466,8.744,1.042,9.1.3.191.521-2.906.74-10.2l.192-6.085h4.961c2.741-.027,8.031-.137,11.813-.274,3.756-.11,6.908-.164,6.963-.11a40.844,40.844,0,0,1,.328,4.578c.3,6.743.686,9.511,1.316,9.127.411-.274.658-2.631.822-8.25l.165-5.455,2.33-.054c9.155-.22,15.76-.412,17.35-.576l1.836-.164v3.261c.028,7.4.795,12.855,1.727,11.923.247-.246.329-2.22.357-7.51,0-3.947.027-7.346.054-7.537.028-.165.3-.329.576-.329.959,0,1.4-.329,1.4-.987,0-.685-.11-.768-1.4-1.042-.713-.164-.713-.164-.877-3.508-.219-3.755-.6-6.5-.987-6.88a.779.779,0,0,0-.712-.109c-.384.164-.412.767-.247,5.372l.192,5.208-.932.137c-1.1.164-11.375.712-16.885.9l-3.919.165v-1.069c-.028-.6-.137-3.152-.247-5.7-.274-5.015-.493-5.728-1.644-5.125-.549.3-.576.493-.576,6.03v5.7l-1.837.165c-3.59.356-21.653.575-21.818.274a56.9,56.9,0,0,1-.356-6.359c-.219-6.387-.356-7.1-1.425-6.414-.411.246-.494,1.1-.6,6.551l-.137,6.277H123.131c-5.647,0-10.279-.055-10.334-.137-.109-.165-.328-3.4-.548-8.086-.219-4.3-.493-5.345-1.37-5.345C110.385,177.242,110.166,177.434,110.029,177.982Z"/><path class="cls-2" d="M93.556,197.964a25.762,25.762,0,0,0,.466,6.386,2.638,2.638,0,0,0,2.357,2.22,1.864,1.864,0,0,0,1.206-.411c.63-.74.822-.439.822,1.316V209.2l-1.973.96a13.763,13.763,0,0,0-3.563,2.467c-1.563,1.535-1.59,1.589-1.59,3.1a2.959,2.959,0,0,0,1.014,2.659,6.057,6.057,0,0,0,4.769,2.247,3.688,3.688,0,0,0,3.646-1.836c.521-.658.575-1.234.658-4.66l.082-3.919,2.3-1.563c2.248-1.535,4-3.207,3.509-3.371a15.857,15.857,0,0,0-2.96,1.151l-2.742,1.234-.164-1.316c-.11-.713-.274-2.823-.384-4.715a18.349,18.349,0,0,0-.466-3.782,1.4,1.4,0,0,0-1.946.164c-.329.357-.466,1.014-.466,2.248a4.159,4.159,0,0,1-.6,2.659c-.356.493-.74.849-.877.822a9.693,9.693,0,0,1-.85-2.823,23.851,23.851,0,0,0-.767-3.07A.927.927,0,0,0,93.556,197.964Zm5.071,16.445c.082,2.714-.274,3.509-1.617,3.618a3.9,3.9,0,0,1-3.235-1.918c-.384-.658-.384-.768.11-1.316.685-.74,4.029-2.768,4.385-2.659A5.408,5.408,0,0,1,98.627,214.409Z"/><path class="cls-2" d="M75.411,239.6c.027,7.4.137,13.732.246,14.116s.247.548.247.411c.192-1.617-.055-27.465-.247-27.656S75.383,230.828,75.411,239.6Z"/><path class="cls-2" d="M198.425,232.006c-.63,1.316-.658,23.628,0,23.628.083,0,.165-5.1.165-11.321.027-8.086.109-11.512.329-12.033C199.357,231.294,198.919,231.047,198.425,232.006Z"/><path class="cls-2" d="M78.014,243.9c-.328,2.823-.137,6.8.357,6.8a25.248,25.248,0,0,0,.192-4.112C78.59,242.477,78.344,241.216,78.014,243.9Z"/><path class="cls-2" d="M85.47,247.575a4.042,4.042,0,0,0-.219,1.727c0,1.069.082,1.425.3,1.206a3.523,3.523,0,0,0,.192-1.7C85.689,248.014,85.58,247.465,85.47,247.575Z"/><path class="cls-2" d="M195,249.576a12.622,12.622,0,0,1-.384,2.905c-.438,1.316-.109,1.59.412.329.6-1.48.877-5.125.383-5.125C195.109,247.685,195.027,248.151,195,249.576Z"/><path class="cls-2" d="M191.326,252.591c0,1.124.11,1.946.274,1.946s.274-.767.274-1.754a4.02,4.02,0,0,0-.274-1.946C191.436,250.727,191.326,251.385,191.326,252.591Z"/><path class="cls-2" d="M281.46,143.771c-4.279.141-6.686.5-8.112,1.223-.7.357-.866.573-1.3,1.719-.764,2.025-.955,5.03-.968,15.078-.013,3.642-.064,8.571-.128,10.952-.14,5.476-.152,7.463-.089,30.691.039,11.372.115,20.134.191,21.65.077,1.4.2,3.858.268,5.476.178,3.7.318,4.928.726,6.074a4.142,4.142,0,0,0,1.617,2.394c2.089,1.363,4.763,1.554,20.019,1.426,5.043-.05,9.488-.076,9.87-.076,18.007.242,22.235.191,25.788-.28.777-.1,1.834-.242,2.369-.306,3.043-.394,4.89-1.311,5.654-2.8.433-.866.637-5.4,1.031-22.668.051-2.089.026-5.018-.076-7.259-.089-2.127-.166-9.424-.191-16.81-.026-7.183-.076-13.423-.127-13.881s-.128-5.247-.191-10.634c-.153-12.7-.421-16.81-1.2-18.466a4.053,4.053,0,0,0-2.839-2.47c-1.618-.318-6.877-.5-15.384-.5-9.4-.012-22.821-.229-25.215-.407S284.936,143.657,281.46,143.771Zm14.263,1.388c5.119.268,13.97.446,23.305.459,9.793.013,13.435.153,14.466.522a2.8,2.8,0,0,1,1.783,1.63c.688,1.49.968,5.374,1.134,15.486.063,4.24.178,9.907.254,12.607.2,7.476.217,46.546.013,54.569-.1,4.177-.14,4.8-.369,5.451-.573,1.693-1.8,2.279-5.947,2.827-4.789.637-4.419.637-38.523.522-13.538-.038-14.544-.076-16.428-.662-1.936-.6-2.395-1.643-2.675-6.1-.076-1.261-.191-2.815-.267-3.439-.357-3.158-.408-6.991-.395-28.908.013-33.989.127-47.132.408-50.112.178-1.884.917-3.489,1.795-3.947s3.923-.93,6.928-1.07C283.09,144.917,293.15,145.032,295.723,145.159Z"/><path class="cls-2" d="M274.239,147.515c-.458.344-.5.815-.573,6.763-.076,5.87.013,9.614.229,9.614.064,0,.115-1.961.128-4.559,0-2.5.051-6.01.089-7.793.089-3.095.1-3.273.382-3.732C274.812,147.324,274.685,147.172,274.239,147.515Z"/><path class="cls-2" d="M281,153.246a1.3,1.3,0,0,0-.471.573c-.089.242-.1,3.273-.064,8.838l.077,8.482.305.293c.255.229.51.292,1.669.369.751.051,2.177.1,3.171.1s2.941.063,4.33.14c4.291.2,38.281.446,38.6.267.649-.344.637-.242.739-7.653.1-7.781.012-10.558-.319-10.952-.191-.23-.471-.242-4.979-.306-2.624-.038-9.819-.1-15.982-.14s-14.7-.089-18.975-.127C282.313,153.068,281.294,153.081,281,153.246Zm17.969,1.847c7.667.063,17.167.127,21.1.14l7.17.013.152.28c.166.293.2,5.132.1,12.365l-.051,3.413-9.882-.089c-5.425-.051-9.971-.115-10.1-.14s-3.591-.064-7.7-.1-9.195-.14-11.3-.216-4.5-.128-5.311-.1l-1.49.051-.012-2.611c-.013-1.439-.038-5-.064-7.934l-.038-5.336,1.745.077C284.249,154.927,291.3,155.016,298.97,155.093Z"/><path class="cls-2" d="M283.586,155.959c-.14.305-.038,1.693.128,1.693.089,0,.114-.254.064-.738a1.6,1.6,0,0,1,.05-.879c.09-.089.1-.166,0-.216C283.765,155.768,283.65,155.831,283.586,155.959Z"/><path class="cls-2" d="M282.249,156.035a6.027,6.027,0,0,0,.039,1.4c.063.649.127,1.528.127,1.961s.051.8.127.8c.166,0,.153-1.095-.038-2.929C282.415,156.4,282.313,155.9,282.249,156.035Z"/><path class="cls-2" d="M318.913,157.118c-.433.1-.662.407-.535.725.064.191.229.217,1.414.166,1.057-.038,1.375-.089,1.553-.267s.191-.268.089-.446-.343-.217-1.146-.242A11.117,11.117,0,0,0,318.913,157.118Z"/><path class="cls-2" d="M322.428,157.55a12.524,12.524,0,0,0,0,4.025c.267.267.611.178.751-.2a15.384,15.384,0,0,0-.2-3.846C322.874,157.347,322.619,157.359,322.428,157.55Z"/><path class="cls-2" d="M317.436,157.843a9.1,9.1,0,0,0,.267,3.337.5.5,0,0,0,.42.14c.23-.038.281-.14.306-.675a9.078,9.078,0,0,0-.382-2.84A.37.37,0,0,0,317.436,157.843Z"/><path class="cls-2" d="M317.818,162.937a11.927,11.927,0,0,0,.191,4.228c.229.331.471.37.7.115.115-.153.115-.637-.012-2.2a10.891,10.891,0,0,0-.281-2.178A.358.358,0,0,0,317.818,162.937Z"/><path class="cls-2" d="M322.466,163.128a17.623,17.623,0,0,0-.038,2.178c.025,1.414.076,1.987.2,2.114.216.2.471.217.624,0a21.35,21.35,0,0,0-.128-4.393A.383.383,0,0,0,322.466,163.128Z"/><path class="cls-2" d="M319.97,167.293c-.535.063-.917.394-.764.662a4.568,4.568,0,0,0,2.7-.064c.178-.165.2-.267.1-.445C321.88,167.2,321.282,167.153,319.97,167.293Z"/><path class="cls-2" d="M273.755,170.425a23.266,23.266,0,0,1-.216,2.446c-.2,1.388-.23,2.916-.242,16.173,0,10.188-.051,15.269-.153,16.683-.089,1.12-.217,3.947-.28,6.291a49.03,49.03,0,0,0,.063,6.431c.089,1.2.242,3.922.319,6.061.178,5.018.458,9.208.7,10.545.217,1.286.7,2.381,1.07,2.509.484.153.522-.051.14-.739a7.446,7.446,0,0,1-.637-2.076c-.28-1.49-.356-2.458-.687-9.22-.1-2.279-.293-5.2-.408-6.5a47.491,47.491,0,0,1-.127-6.431c.051-2.241.152-5.081.229-6.3.1-1.465.153-7.247.165-16.81.013-10.239.064-14.964.166-15.855a15.2,15.2,0,0,0,.026-4.139C273.806,169.5,273.755,169.891,273.755,170.425Z"/><path class="cls-2" d="M282.631,182.193a.718.718,0,0,0-.484.3,17.129,17.129,0,0,0-.063,3.018c.038,1.516.063,3.235.063,3.808.013.917.051,1.082.319,1.4l.305.356,3.744.077,3.732.089.305-.293.306-.293-.115-3.9-.114-3.9-.344-.343-.344-.344-3.476-.026C284.554,182.142,282.835,182.154,282.631,182.193Zm2.051.891a13.37,13.37,0,0,1-1.516,1.948c-.063,0-.114-.254-.114-.56a6.564,6.564,0,0,0-.077-.942l-.076-.4.675-.051c.382-.026.789-.051.917-.064S284.707,183.033,284.682,183.084Zm1.082.216c-.038.077-.471.637-.955,1.248s-1.044,1.389-1.248,1.72l-.382.6v-.6c0-.548.076-.688,1.031-1.911.879-1.146,1.057-1.311,1.325-1.26C285.726,183.122,285.815,183.211,285.764,183.3Zm1.477.484c-.305.37-1.018,1.223-1.579,1.885a22.644,22.644,0,0,0-1.464,1.847c-.23.343-.561.8-.726.993l-.293.369v-.764c0-.84-.115-.649,2.356-3.96l.764-1.019.739-.013h.751Zm.93.637c-1.375,1.592-2.5,2.993-3.591,4.457A4.29,4.29,0,0,1,283.548,190c-.14,0-.242-.153-.293-.446a.6.6,0,0,1,.242-.738c.179-.153.764-.841,1.312-1.516s1.515-1.91,2.178-2.712l1.2-1.465h1.12Zm1.1.828c-.229.267-.764.853-1.2,1.312a18.1,18.1,0,0,0-2.47,3.056c-.23.446-.319.509-.675.5-.917-.013-.9-.077.305-1.643.624-.8,1.872-2.305,2.764-3.349l1.617-1.911.038.777C289.686,184.714,289.661,184.8,289.266,185.249Zm.408.764c0,.739-.013.751-.917,1.757-2.242,2.509-2.076,2.369-2.649,2.331l-.509-.038.356-.535c.293-.433,3.591-4.228,3.693-4.241A5.417,5.417,0,0,1,289.674,186.013Zm0,1.885c0,.624-.038.738-.395,1.044-.382.356-.841,1.057-.675,1.057a2.282,2.282,0,0,0,.5-.471l.407-.484.051.547.064.535h-2.649l1.286-1.362a14.738,14.738,0,0,0,1.286-1.465c0-.051.026-.1.064-.1A1.927,1.927,0,0,1,289.674,187.9Z"/><path class="cls-2" d="M294.373,182.473c-.293.242-.306.3-.369,2.712-.077,3.018.012,5.26.216,5.463.268.268,1.274.357,4.7.446l3.324.089.166-.433a23.025,23.025,0,0,0,.229-4.342l.051-3.923-.344-.127a33.575,33.575,0,0,0-4.012-.127C294.921,182.231,294.653,182.243,294.373,182.473Zm1.388,1.579c-.535.662-.548.675-.624.356a3.9,3.9,0,0,1-.1-.687c-.013-.331.013-.344.624-.344h.65Zm1.4.1c-.369.433-.981,1.146-1.337,1.6l-.675.815V185.9c0-.662.038-.726.777-1.6s.8-.917,1.349-.917h.574Zm2.1-.5c-.318.369-3.286,3.961-3.757,4.559l-.344.446V187.9c-.012-.866.115-1.07,2.076-3.35l1.006-1.171h1.274Zm1.592-.166c-.013.064-.993,1.236-2.152,2.586s-2.331,2.763-2.6,3.12c-.624.827-.955.891-.955.178,0-.28.051-.522.114-.548a13.877,13.877,0,0,0,1.172-1.324c3.324-3.986,3.451-4.113,3.973-4.126C300.677,183.377,300.88,183.428,300.855,183.491Zm.789.612v.726l-1.362,1.413c-.764.777-1.821,1.91-2.369,2.522-.942,1.044-1.031,1.108-1.5,1.108h-.51l.395-.561c.216-.305,1.031-1.26,1.8-2.126s1.822-2.076,2.318-2.688a5.834,5.834,0,0,1,1.083-1.12C301.594,183.377,301.644,183.606,301.644,184.1Zm-.076,1.783c-.076.573-.178.7-1.757,2.292-1.478,1.5-1.72,1.694-2.089,1.694h-.42l.93-1.045c.942-1.057,3.3-3.54,3.374-3.54A3.322,3.322,0,0,1,301.568,185.886Zm-.955,3.209c-.879.8-.93.84-1.477.789l-.573-.038,1.159-1.171c.623-.637,1.273-1.325,1.439-1.541l.292-.382.039.751.038.764Zm.9.2c0,.5-.038.574-.305.65a2.147,2.147,0,0,1-.637.026l-.344-.039.586-.611a5.453,5.453,0,0,1,.636-.6A1.27,1.27,0,0,1,301.517,189.3Z"/><path class="cls-2" d="M307.464,182.345c-1.566.1-1.6.2-1.375,3.006.089,1.044.191,2.572.229,3.387.089,1.745.217,2,1.032,2.114.28.038,2.1.026,4.037-.025,2.954-.077,3.54-.128,3.718-.293s.179-.382.115-1.172c-.038-.522-.115-2.05-.153-3.375-.064-2.457-.191-3.311-.548-3.6A47.854,47.854,0,0,0,307.464,182.345Zm4.623.955c0,.051-.789,1.032-2.814,3.528-1.108,1.375-1.707,2.254-1.605,2.356.038.038.229-.153.42-.42s1.083-1.376,1.961-2.458,1.8-2.216,2.025-2.522c.37-.471.484-.535.917-.535.268,0,.5.039.5.09a14.991,14.991,0,0,1-1.159,1.5c-.637.764-1.8,2.216-2.56,3.222-1.388,1.8-1.413,1.821-1.872,1.783l-.458-.038-.077-.828c-.076-.828-.076-.828.523-1.719,1.248-1.821,2.916-3.82,3.285-3.9C311.578,183.262,312.087,183.224,312.087,183.3Zm1.987.739c-.1.853-.217,1.044-1.668,2.713-.434.484-1.134,1.362-1.567,1.935-.777,1.032-.79,1.032-1.426,1.083a6.111,6.111,0,0,1-.637.012c0-.178,5.119-6.533,5.26-6.533C314.112,183.249,314.125,183.581,314.074,184.039Zm-6.47-.076a4.534,4.534,0,0,1-.509.636c-.064.039-.1-.229-.1-.573v-.649h1.032Zm1.554-.535c0,.025-.369.522-.815,1.095s-.9,1.159-1.006,1.312c-.178.267-.178.267-.242-.153-.051-.357.038-.56.624-1.363s.751-.942,1.07-.942A.738.738,0,0,1,309.158,183.428Zm1.159.165a17.389,17.389,0,0,1-1.108,1.439c-.535.663-1.184,1.516-1.439,1.9l-.458.7-.077-.509c-.076-.6-.013-.713,1.325-2.445.929-1.2,1.044-1.3,1.451-1.3C310.381,183.377,310.419,183.4,310.317,183.593Zm3.808,2.344c0,.3-.064.534-.166.573a14.557,14.557,0,0,0-1.439,1.642c-1.146,1.452-1.286,1.592-1.668,1.592-.229,0-.42-.025-.42-.063a27.74,27.74,0,0,1,2.037-2.611c.395-.459.879-1.044,1.07-1.3C313.959,185.2,314.125,185.249,314.125,185.937Zm-.5,2.648a6.694,6.694,0,0,0-.713.828c-.178.268-.319.331-.713.331-.28,0-.5-.038-.5-.076s.446-.611.993-1.286,1.07-1.325,1.172-1.478c.178-.254.191-.229.229.446A1.136,1.136,0,0,1,313.628,188.585Zm.548.612.089.675h-.65a1.488,1.488,0,0,1-.637-.077,9.264,9.264,0,0,1,1.1-1.286C314.086,188.522,314.125,188.84,314.176,189.2Z"/><path class="cls-2" d="M319.18,182.32c-.611.064-.853.433-.942,1.413a53.346,53.346,0,0,0,.357,6.673c.242.446.573.484,3.833.5,3.515.013,4.381-.051,4.533-.382a63.014,63.014,0,0,0-.2-7.552c-.28-.687-.6-.738-4-.713C321.052,182.269,319.448,182.294,319.18,182.32Zm.523,1.159.28.089-.331.471c-.191.267-.395.484-.459.484s-.1-.255-.1-.573C319.091,183.351,319.129,183.326,319.7,183.479Zm2.024.9c-.445.471-1.146,1.273-1.553,1.795l-.764.93-.1-.382c-.115-.356-.038-.484,1.006-1.8,1.133-1.4,1.375-1.579,2-1.439C322.479,183.53,322.364,183.721,321.727,184.383Zm2.076-.917a17.327,17.327,0,0,1-1.184,1.3c-.65.675-1.643,1.8-2.191,2.5-1.018,1.273-1.018,1.273-1.057.853-.038-.331.064-.573.5-1.133a24.482,24.482,0,0,1,3.209-3.5C323.459,183.377,323.8,183.364,323.8,183.466Zm1.363.089c.013.013-.7.8-1.592,1.745s-2.14,2.3-2.764,3.043a14.316,14.316,0,0,1-1.235,1.376c-.051.025-.1-.14-.1-.357a2.2,2.2,0,0,1,.6-1.171,46.288,46.288,0,0,1,3.235-3.757c.929-.943,1.044-1.032,1.426-.968A2.97,2.97,0,0,1,325.166,183.555Zm-4.7.739c-.37.445-.8.968-.956,1.184l-.28.382-.012-.446c0-.649,1.006-1.91,1.541-1.91h.382Zm5.437-.242.09.547-2.675,2.7c-2.47,2.522-2.7,2.713-3.069,2.675l-.395-.039,1.363-1.6c1.515-1.758,4.381-4.827,4.521-4.827C325.79,183.5,325.866,183.746,325.9,184.052Zm-.471,2.852c-.305.255-1.146,1.07-1.884,1.783-1.312,1.3-1.35,1.325-1.873,1.287l-.547-.039,2.394-2.419,2.381-2.42.039.662C325.981,186.4,325.968,186.433,325.433,186.9Zm-.636,1.911c-1.108,1.108-1.21,1.184-1.694,1.171h-.51l1.656-1.592,1.655-1.6.039.42C325.981,187.579,325.866,187.745,324.8,188.815Zm.725.624c-.407.5-.522.56-.993.56h-.522l.942-.955.955-.968.039.4C325.981,188.776,325.879,189.006,325.522,189.439Zm.573.178c0,.318-.051.382-.318.382-.395,0-.395-.089-.038-.471S326.1,189.158,326.1,189.617Z"/><path class="cls-2" d="M294.131,194.482c-.293.318-.293.293-.14,4.864.114,2.993.114,3.044.42,3.35l.318.318,3.681-.025a37.708,37.708,0,0,0,4.151-.141c.79-.2.79-.254.612-4.177-.089-1.935-.2-3.629-.255-3.782a1.3,1.3,0,0,0-.548-.471c-.382-.191-.967-.217-4.215-.217C294.449,194.2,294.386,194.2,294.131,194.482Zm7.335.815.522.063.077,2.3c.051,1.274.089,2.726.089,3.222v.917l-3.337.077c-1.833.051-3.362.051-3.4.012s-.114-1.273-.165-2.75-.115-2.942-.166-3.286l-.089-.624,1.2-.051C297.531,195.131,300.677,195.2,301.466,195.3Z"/><path class="cls-2" d="M282.542,194.494c-.3.153-.318.217-.382,1.618-.038.8-.038,2.572,0,3.922l.064,2.471.382.318.382.306,3.82-.077a18.673,18.673,0,0,0,3.986-.242c.191-.191.242-.993.293-4.966l.038-2.9-.343-.306-.357-.3h-3.782A20.323,20.323,0,0,0,282.542,194.494Zm4.139.917c1.261.038,2.509.1,2.789.14l.484.077-.064,3.145-.063,3.133-3.108.064c-1.693.038-3.107.063-3.12.051-.038,0-.42-5.731-.42-6.33v-.5l.611.076C284.121,195.309,285.42,195.373,286.681,195.411Z"/><path class="cls-2" d="M307.273,194.456a2.243,2.243,0,0,0-1.006.293c-.216.217-.229.484-.318,5.6l-.038,2.025.369.319.357.305,3.782-.063c2.076-.051,3.973-.128,4.215-.179l.446-.1v-3.846c0-3.82,0-3.845-.293-4.126s-.344-.293-3.5-.305C309.527,194.367,307.719,194.405,307.273,194.456ZM314.1,198.6l.051,3.184h-.815c-.446.012-2.05.063-3.566.114l-2.776.115v-3.133c0-1.719-.038-3.222-.076-3.324-.077-.191.267-.2,3.527-.178l3.617.038Z"/><path class="cls-2" d="M321.511,194.456a10.807,10.807,0,0,0-2.993.255l-.382.191.026,3.629c.012,2,.063,3.757.1,3.91.141.6.574.649,4.572.471,3.235-.153,3.719-.2,3.91-.4.216-.216.229-.5.153-3.807-.064-3.21-.1-3.6-.306-3.859a2.365,2.365,0,0,0-1.834-.5C324.414,194.367,322.95,194.405,321.511,194.456Zm4.381,4.2.025,3.247-3.4.013-3.4.013-.077-2.751c-.051-1.516-.1-2.942-.14-3.171a2,2,0,0,1-.025-.42c.025-.026,6.724-.191,6.877-.179A28.808,28.808,0,0,1,325.892,198.659Z"/><path class="cls-2" d="M282.415,206.465c-.408.2-.459.662-.586,5.12-.076,3.043-.076,3.336.127,3.54s.561.216,4.509.14a37.2,37.2,0,0,0,4.457-.217c.127-.1.153-.98.127-4.113-.038-3.96-.038-4-.331-4.279s-.318-.293-4.139-.331C283.65,206.3,282.657,206.338,282.415,206.465Zm5.094,1.057a13.024,13.024,0,0,1,2.305.2c.038.064.076,1.477.076,3.145V213.9l-3.2.153c-1.758.089-3.324.191-3.464.217-.268.063-.28.012-.331-.93-.026-.548-.026-2.127,0-3.528l.063-2.534,1.159.089C284.758,207.408,286.286,207.484,287.509,207.522Z"/><path class="cls-2" d="M294.424,206.427c-.293.115-.293.153-.319,2.763-.025,1.452-.038,3.261-.038,4.012,0,1.834-.025,1.821,2.012,1.834.854,0,2.687.025,4.075.038,2.739.051,2.879.013,2.891-.624,0-.178-.038-1.961-.1-3.973a17.986,17.986,0,0,0-.254-3.821,3.711,3.711,0,0,0-1.274-.255A64.957,64.957,0,0,0,294.424,206.427Zm4.648.968,2.789.089.089,2.942c.051,1.617.1,3.145.115,3.387.025.408,0,.446-.293.408-.178-.013-1.732-.051-3.464-.077l-3.158-.051-.013-3.349c-.013-1.846-.013-3.413,0-3.477s.267-.076.586-.038S297.544,207.357,299.072,207.4Z"/><path class="cls-2" d="M307.082,206.414c-1.057.153-1.044.128-1.006,3.3.051,3.935.115,4.711.484,5.081.293.293.293.293,4.05.293a35.148,35.148,0,0,0,4.088-.128c.535-.2.573-.535.433-3.464-.191-4.075-.23-4.52-.5-4.839-.229-.293-.267-.293-3.591-.305C309.209,206.338,307.426,206.363,307.082,206.414Zm6.279.879.7.089.089,2.165c.051,1.184.1,2.725.127,3.413l.039,1.235-3.5-.025-3.5-.038-.077-1.147c-.038-.636-.115-2.164-.165-3.4l-.09-2.254.612-.051C308.649,207.2,312.622,207.216,313.361,207.293Z"/><path class="cls-2" d="M320.021,206.516c-1.108.038-1.579.089-1.694.217s-.14,2.789-.153,10.009c0,9.437,0,9.844.23,10.061s.573.242,4.342.267c2.267.013,4.152,0,4.19-.051.127-.127.076-12.569-.076-19.917,0-.28-.255-.42-.892-.5C325.268,206.529,321.485,206.465,320.021,206.516Zm5.9,9.462c.013,4.585.051,8.723.1,9.195l.076.866h-6.978l.012-7.488c.013-4.114-.025-8.265-.076-9.233l-.1-1.745,3.477.026,3.476.038Z"/><path class="cls-2" d="M335.265,209.292c0,.319.063.573.127.573s.127-.254.127-.573-.051-.573-.127-.573S335.265,208.974,335.265,209.292Z"/><path class="cls-2" d="M335.2,214.921a134.491,134.491,0,0,1,.191,14.492,21.7,21.7,0,0,1-.5,4.2c-.344,1.6-.395,2.012-.2,1.821a14.636,14.636,0,0,0,.458-1.643,16.733,16.733,0,0,0,.5-3.553,145.371,145.371,0,0,0-.2-15.575C335.328,213.724,335.112,213.941,335.2,214.921Z"/><path class="cls-2" d="M308.967,218.258c-1.961.076-2.471.2-2.5.624-.076,1.057.051,7.386.153,7.564.267.5.573.535,4.355.586a21.778,21.778,0,0,0,3.808-.076,26.22,26.22,0,0,0,.2-4.063c.076-4.826.216-4.47-1.821-4.635-.777-.051-1.605-.09-1.847-.09S310.024,218.219,308.967,218.258Zm5,1.477c.025.28.013,1.846-.038,3.489l-.089,2.98-3.108-.064c-1.706-.025-3.133-.089-3.171-.127-.063-.064-.318-6.507-.254-6.571.038-.038,5.463-.255,6.112-.229C313.921,219.225,313.934,219.238,313.972,219.735Z"/><path class="cls-2" d="M283.077,218.385a1.475,1.475,0,0,0-.789.267,6.355,6.355,0,0,0-.09,1.72c.013.84,0,2.623-.038,3.973-.051,2.254-.038,2.458.178,2.7s.357.267,3.12.254c4.19-.012,5.133-.1,5.553-.5l.344-.319-.077-2.228c-.178-5.12-.2-5.362-.535-5.693l-.292-.293-3.35.013C285.255,218.3,283.446,218.347,283.077,218.385Zm6.406,1.121.764.063v6.406l-2.165.1c-1.184.051-2.776.127-3.528.191l-1.362.089-.039-.891c-.025-.484-.025-2.063,0-3.477l.039-2.6,2.763.025C287.471,219.429,289.062,219.467,289.483,219.506Z"/><path class="cls-2" d="M294.4,218.5c-.369.293-.509,1.744-.522,5.259v2.623l.331.306.331.306,4.126.013c3.859.012,4.139,0,4.254-.217.293-.522.013-7.768-.306-8.1-.254-.268-2.075-.421-5.043-.421C295,218.27,294.64,218.3,294.4,218.5Zm6.584.916h.917V226l-2.165.077c-1.2.038-2.75.038-3.438,0L295.022,226v-6.571l.739-.051c.395-.038,1.528-.038,2.509-.012S300.473,219.416,300.982,219.416Z"/><path class="cls-3" d="M245.021,95.79q-2.524,0-7.189-4.433l-4.964-5v.232l-.016,8.7q0,1.642-1.445,1.643a1.744,1.744,0,0,1-1.511-.83,2.574,2.574,0,0,1-.464-1.478q0-3.883.232-11.621t.232-11.6a1.7,1.7,0,0,1,.473-1.212,1.645,1.645,0,0,1,2.358,0A1.692,1.692,0,0,1,233.2,71.4q0,1.611-.2,5.014-.2,3.287-.183,5.03,2.226-2.108,5.031-5.3l4.764-5.528a1.594,1.594,0,0,1,2.441-.15,1.626,1.626,0,0,1,.514,1.212q0,1.1-4.283,5.844-2.955,3.237-6.109,6.342,1.992,2.091,6.242,6.009l1.743,1.461a6.864,6.864,0,0,0,2.042,1.1,1.65,1.65,0,0,1,1.312,1.644,1.9,1.9,0,0,1-.349,1.079A1.329,1.329,0,0,1,245.021,95.79Z"/><path class="cls-3" d="M252.026,78.524l7.753.017a1.478,1.478,0,1,1,0,2.955l-7.769-.017q-.382,0-1.138.042c-.5.027-.877.041-1.12.041a1.381,1.381,0,0,1-1.054-.432,1.488,1.488,0,0,1-.407-1.062q0-1.2,1.4-1.461A17.352,17.352,0,0,1,252.026,78.524Zm.947,8.915q1.095,0,3.287.05t3.287.05a1.478,1.478,0,0,1,0,2.955q-1.1,0-3.287-.05t-3.287-.05c-.332,0-.83.023-1.494.066s-1.157.067-1.478.067a1.328,1.328,0,0,1-1.527-1.478,1.351,1.351,0,0,1,1.427-1.477Q251.745,87.439,252.973,87.439Z"/><path class="cls-3" d="M275.684,95.125h-3.3l-3.287-.016a6.008,6.008,0,0,1-1.627-.15,1.208,1.208,0,0,1-.847-1.261q0-1.677,2.607-1.677l.8.017.681.033q0-.8-.141-2.358t-.141-2.34q0-2.109.382-6.409.365-4.233.348-6.424-2.224,1.727-2.839,1.726a1.568,1.568,0,0,1-1.154-.5,1.588,1.588,0,0,1-.489-1.145q0-.78,1.428-1.893.9-.63,2.54-2.025a4.1,4.1,0,0,1,2.789-1.478q1.111,0,1.112,1.278a9.419,9.419,0,0,1-.1,1.138,9.553,9.553,0,0,0-.1,1.137q0,.547.057,1.66t.059,1.66q0,1.893-.4,5.645t-.4,5.628q0,.963.133,2.34t.149,2.258l1.744-.033a1.565,1.565,0,0,1,1.154.457,1.655,1.655,0,0,1,0,2.282A1.581,1.581,0,0,1,275.684,95.125Z"/><path class="cls-3" d="M294.46,84.434a1.558,1.558,0,0,1-.407,1.071,1.308,1.308,0,0,1-1.021.456,4,4,0,0,1-.6-.066,4.059,4.059,0,0,0-.615-.066l-1.66.033q-1.012.033-1.66,0v3.9a1.313,1.313,0,0,1-1.478,1.494,1.5,1.5,0,0,1-1.1-.373,1.527,1.527,0,0,1-.373-1.121l-.017-1.909-.016-1.926q-2.008.117-2.839.116-2.574,0-2.573-1.527a1.24,1.24,0,0,1,.913-1.345,9.358,9.358,0,0,1,1.66-.083q.831,0,2.839-.116l-.017-1.942a9.727,9.727,0,0,1,.15-2.092,1.771,1.771,0,0,1,.514-.9,1.331,1.331,0,0,1,.9-.3,1.521,1.521,0,0,1,1.071.406,1.354,1.354,0,0,1,.439,1.038q0,.282-.058.9c-.038.41-.058.72-.058.93l.017,1.893,1.245.05c.222,0,.559-.014,1.013-.042s.791-.041,1.012-.041Q294.461,82.874,294.46,84.434Z"/><path class="cls-3" d="M302.163,82.06l-.249,8.251q0,1.313-.133,3.852-.165,1.659-1.627,1.66-1.627,0-1.627-1.694,0-2.007.183-6.034t.183-6.035q0-2.622.083-6t.083-6a1.635,1.635,0,1,1,3.27,0q0,2.623-.083,6T302.163,82.06Z"/><path class="cls-3" d="M313.485,96.088a6.469,6.469,0,0,1-4.8-2.058,8.824,8.824,0,0,1-2.358-6.159,10.746,10.746,0,0,1,1.893-6.608,7.431,7.431,0,0,1,6.474-3.37,5.459,5.459,0,0,1,5.031,3.038,11.676,11.676,0,0,1,1.311,5.91,10.737,10.737,0,0,1-1.926,6.292A6.608,6.608,0,0,1,313.485,96.088Zm1-14.825a4.174,4.174,0,0,0-3.8,2.324,8.432,8.432,0,0,0-1.079,4.284,5.149,5.149,0,0,0,1.311,3.752,3.5,3.5,0,0,0,2.573,1.112,4.03,4.03,0,0,0,2.972-1.262,5.337,5.337,0,0,0,1.494-3.768Q318.184,81.279,314.481,81.263Z"/><path class="cls-3" d="M338.8,87.954l-.382,5.578a23.624,23.624,0,0,1-.681,5.428,7.317,7.317,0,0,1-2.39,3.968,9.251,9.251,0,0,1-5.761,1.544,19.226,19.226,0,0,1-3.7-.3q-2.092-.416-2.092-1.726a1.291,1.291,0,0,1,1.444-1.478,11.239,11.239,0,0,1,1.992.291,13.887,13.887,0,0,0,3.088.257,4.481,4.481,0,0,0,4.4-3.088,18.726,18.726,0,0,0,.846-6.225,6.79,6.79,0,0,1-2.133,2.49,4.964,4.964,0,0,1-2.83.83,6.334,6.334,0,0,1-4.889-2.05,7.552,7.552,0,0,1-1.885-5.321,10.122,10.122,0,0,1,2.573-7.222,9.464,9.464,0,0,1,7.239-2.822,7.331,7.331,0,0,1,2.589.4,3.281,3.281,0,0,1,1.594,1.2q1.778.049,1.777,1.975a19.2,19.2,0,0,1-.349,3.155Q338.869,87.124,338.8,87.954Zm-5.329-7.189a5.873,5.873,0,0,0-4.881,2.175,7.8,7.8,0,0,0-1.544,4.98,5.981,5.981,0,0,0,.913,3.62,3.209,3.209,0,0,0,2.739,1.211,4.362,4.362,0,0,0,3.254-1.892,6.743,6.743,0,0,0,1.627-3.453q.348-1.794.747-5.628a4.86,4.86,0,0,0-1.378-.764A4.452,4.452,0,0,0,333.474,80.765Z"/><path class="cls-3" d="M376.621,91.423a21.6,21.6,0,0,1-.266,2.657q-.264,1.676-1.776,1.676a3.508,3.508,0,0,1-2.175-1.195A135.469,135.469,0,0,1,356.9,76.117l-.083,3.768-.049,3.785q0,1.378.057,4.134t.059,4.151q0,4.466-1.727,4.465a1.858,1.858,0,0,1-1.444-.581,1.735,1.735,0,0,1-.482-1.228q0-.7.108-2.109t.108-2.108q0-1.029.067-3.08t.066-3.079q0-1.1-.05-3.312t-.049-3.312q0-1.046-.2-3.113t-.2-3.113a1.907,1.907,0,0,1,.655-1.394,2.089,2.089,0,0,1,1.487-.631q.881,0,2.174,1.926,4.134,6.192,7.438,10.293a94.393,94.393,0,0,0,8.633,9.3q.05-.712,0-2.108l-.05-2.092a93.948,93.948,0,0,0-.564-11.6,17.344,17.344,0,0,0-.449-1.743,6.739,6.739,0,0,1-.332-1.76q0-1.926,1.76-1.926,2.889,0,2.889,10.775,0,1.842-.05,5.5T376.621,91.423Z"/><path class="cls-3" d="M348.74,104.476a2.078,2.078,0,0,1-.619-.136,2.082,2.082,0,0,0-.611-.136q-.448,0-1.345.052t-1.353.053a8.437,8.437,0,0,0-1.015.088,8.482,8.482,0,0,1-1.016.088,1.679,1.679,0,0,1-.281-.035,1.578,1.578,0,0,0-.281-.035.762.762,0,0,1-.791-.589,3.618,3.618,0,0,1-.106-1.055,4.76,4.76,0,0,1,1.116-3.3,19.332,19.332,0,0,1,2.751-2.109,9.776,9.776,0,0,0,1.679-1.345,2.871,2.871,0,0,0,.756-1.978,1.222,1.222,0,0,0-.729-1,2.389,2.389,0,0,0-1.257-.4,2.808,2.808,0,0,0-1.538.466l-1.257.984a1.116,1.116,0,0,1-.607.3q-.9,0-.9-.721a.925.925,0,0,1,.334-.712,10.021,10.021,0,0,1,1.784-1.4,4.41,4.41,0,0,1,4.729.167,2.623,2.623,0,0,1,1.248,2.232,5.143,5.143,0,0,1-.255,1.653A4.282,4.282,0,0,1,348.4,97a9.424,9.424,0,0,1-2.232,1.766,13.23,13.23,0,0,0-2.171,1.573,3.341,3.341,0,0,0-.958,2.453l1.811-.167q1.863-.106,2.663-.106a3.5,3.5,0,0,1,1.265.229q.792.308.791.852a.9.9,0,0,1-.237.611A.753.753,0,0,1,348.74,104.476Z"/></svg>