<svg id="Слой_1" data-name="Слой 1" xmlns="http://www.w3.org/2000/svg" xmlns:xlink="http://www.w3.org/1999/xlink" viewBox="0 0 348.098 320.5"><defs><style>.cls-1,.cls-4,.cls-7{fill:#fff;}.cls-1,.cls-10,.cls-11,.cls-12,.cls-18,.cls-19,.cls-2,.cls-20,.cls-21,.cls-5{stroke:#1a2e35;}.cls-1,.cls-11,.cls-2,.cls-20,.cls-21,.cls-5{stroke-linecap:round;}.cls-1,.cls-11,.cls-2,.cls-5{stroke-linejoin:round;}.cls-12,.cls-13,.cls-2,.cls-3{fill:#5ae4a7;}.cls-4{opacity:0.7;}.cls-18,.cls-19,.cls-20,.cls-21,.cls-5{fill:none;}.cls-15,.cls-6{fill-opacity:0.7;}.cls-6{opacity:0.2;}.cls-8{clip-path:url(#clip-path);}.cls-9{fill:#1a2e35;}.cls-10{fill:#bfbfbf;}.cls-10,.cls-12,.cls-18,.cls-19,.cls-20,.cls-21{stroke-miterlimit:10;}.cls-11{fill:#757575;}.cls-13{opacity:0.4;}.cls-14{clip-path:url(#clip-path-2);}.cls-15{opacity:0.3;}.cls-16{clip-path:url(#clip-path-3);}.cls-17{clip-path:url(#clip-path-4);}.cls-18{stroke-width:0.75px;}.cls-19,.cls-21{stroke-width:0.5px;}.cls-20{stroke-width:2px;}</style><clipPath id="clip-path" transform="translate(-46.276 0)"><polygon class="cls-1" points="366.93 34.704 355.947 141.876 349.192 207.805 254.799 198.136 236.432 196.254 224.671 195.05 235.095 93.303 242.409 21.949 366.93 34.704"/></clipPath><clipPath id="clip-path-2" transform="translate(-46.276 0)"><path class="cls-2" d="M339.256,117.512l-2.577,5.85-69.334,92.445-7.723-4.923,10.485-13.153,62.275-78.116,5.492-3.489A1.953,1.953,0,0,1,339.256,117.512Z"/></clipPath><clipPath id="clip-path-3" transform="translate(-46.276 0)"><path class="cls-2" d="M289.959,188.435s-7.737,15.361-15.184,26.226l-5.32,1.376s-12.2,12.125-19.646,18.177a16.7,16.7,0,0,1-3.639-3.056s10.572-20.3,22.267-33.15a14.958,14.958,0,0,1,3.838,2.037,18.875,18.875,0,0,1,4,3.844l13.037-16.4Z"/></clipPath><clipPath id="clip-path-4" transform="translate(-46.276 0)"><polygon class="cls-1" points="258.716 173.706 154.125 217.723 143.344 222.262 123.026 173.985 75.845 61.878 191.217 13.321 258.716 173.706"/></clipPath></defs><path class="cls-3" d="M204.216.9c96.41-8.586,96.573,45.809,140.013,96.484s52.736,73.65,36.361,132.066-71.561,104.21-139.827,78.263-107.374-1.03-150.434-24.07S31.28,216.087,62.8,163.623,85.337,11.488,204.216.9Z" transform="translate(-46.276 0)"/><path class="cls-4" d="M204.216.9c96.41-8.586,96.573,45.809,140.013,96.484s52.736,73.65,36.361,132.066-71.561,104.21-139.827,78.263-107.374-1.03-150.434-24.07S31.28,216.087,62.8,163.623,85.337,11.488,204.216.9Z" transform="translate(-46.276 0)"/><rect class="cls-5" x="203.787" y="231.586" width="24.121" height="24.121" rx="5.09" transform="matrix(0.979, -0.206, 0.206, 0.979, -91.854, 49.712)"/><line class="cls-5" x1="168.558" y1="238.834" x2="170.585" y2="248.459"/><line class="cls-5" x1="174.384" y1="242.633" x2="164.759" y2="244.66"/><rect class="cls-5" x="368.465" y="175.427" width="24.121" height="24.121" rx="5.09" transform="translate(-76.746 82.444) rotate(-11.893)"/><line class="cls-5" x1="336.936" y1="183.368" x2="331.563" y2="191.607"/><line class="cls-5" x1="338.369" y1="190.174" x2="330.13" y2="184.801"/><rect class="cls-5" x="151.508" y="275.909" width="24.121" height="24.121" rx="5.09" transform="translate(-29.407 -8.949) rotate(3.304)"/><line class="cls-5" x1="122.202" y1="288.253" x2="112.383" y2="287.686"/><rect class="cls-5" x="51.609" y="161.298" width="24.121" height="24.121" rx="5.09" transform="translate(11.471 -11.227) rotate(18.329)"/><line class="cls-5" x1="23.546" y1="170.268" x2="11.24" y2="176.449"/><path class="cls-5" d="M62.761,167.726a1.717,1.717,0,1,1-2.3-.763A1.717,1.717,0,0,1,62.761,167.726Z" transform="translate(-46.276 0)"/><path class="cls-5" d="M67.646,177.45a1.717,1.717,0,1,1-2.305-.763A1.716,1.716,0,0,1,67.646,177.45Z" transform="translate(-46.276 0)"/><path class="cls-6" d="M257.314,194.392s-.059,29.72,0,31.456,2.308,12.172,2.308,12.172l-7.215,13.3,6.212,5.009,12.088-11.882S281,250.808,282.881,259.9s13.079,15.716,24.7,40.9,24.876-56.35,24.876-56.35L296.6,199.309Z" transform="translate(-46.276 0)"/><polygon class="cls-7" points="320.653 34.704 309.67 141.876 302.916 207.805 208.522 198.136 190.155 196.254 178.395 195.05 188.818 93.303 196.133 21.949 320.653 34.704"/><g class="cls-8"><path class="cls-9" d="M330.765,38.705,277.013,33.2a1.837,1.837,0,0,0-.374,3.654l53.752,5.508a1.837,1.837,0,1,0,.374-3.654Z" transform="translate(-46.276 0)"/><path class="cls-9" d="M316.558,44.837l-26.876-2.754a.918.918,0,1,0-.187,1.826l26.876,2.754a.918.918,0,1,0,.187-1.826Z" transform="translate(-46.276 0)"/><path class="cls-9" d="M346.128,123.935,258.888,115a.918.918,0,0,0-.187,1.827l87.239,8.94a.918.918,0,0,0,.188-1.827Z" transform="translate(-46.276 0)"/><path class="cls-9" d="M345.454,130.5,244.011,120.109a.918.918,0,1,0-.187,1.827l101.443,10.395a.918.918,0,1,0,.187-1.827Z" transform="translate(-46.276 0)"/><path class="cls-9" d="M316.375,134.162l-73.037-7.484a.918.918,0,1,0-.187,1.826l73.036,7.485a.918.918,0,1,0,.188-1.827Z" transform="translate(-46.276 0)"/><rect class="cls-10" x="277.285" y="102.089" width="29.12" height="102.801" transform="translate(63.129 428.167) rotate(-84.149)"/><rect class="cls-11" x="329.536" y="152.574" width="1.921" height="10.982" transform="translate(596.876 349.006) rotate(-174.148)"/><rect class="cls-12" x="329.408" y="156.726" width="1.921" height="5.169" transform="translate(596.503 351.465) rotate(-174.15)"/><rect class="cls-11" x="334.12" y="150.258" width="1.921" height="10.982" transform="translate(606.264 344.84) rotate(-174.15)"/><rect class="cls-12" x="332.495" y="154.799" width="5.169" height="1.921" transform="translate(99.688 473.21) rotate(-84.148)"/><rect class="cls-11" x="338.207" y="152.794" width="1.921" height="10.982" transform="translate(614.158 350.316) rotate(-174.15)"/><rect class="cls-12" x="338.332" y="154.477" width="1.921" height="5.169" transform="translate(614.526 347.9) rotate(-174.148)"/><rect class="cls-11" x="325.456" y="149.975" width="1.921" height="10.982" transform="translate(589.002 343.405) rotate(-174.148)"/><rect class="cls-12" x="325.328" y="154.126" width="1.921" height="5.169" transform="translate(588.628 345.864) rotate(-174.15)"/><rect class="cls-11" x="320.823" y="152.766" width="1.921" height="10.982" transform="translate(579.484 348.488) rotate(-174.15)"/><rect class="cls-12" x="320.653" y="157.329" width="1.921" height="5.169" transform="translate(578.969 351.787) rotate(-174.148)"/><rect class="cls-11" x="316.81" y="149.505" width="1.921" height="10.982" transform="translate(571.813 341.572) rotate(-174.15)"/><rect class="cls-12" x="316.556" y="154.891" width="1.921" height="5.169" transform="translate(571.046 346.505) rotate(-174.148)"/><rect class="cls-11" x="311.923" y="154.776" width="1.921" height="10.982" transform="translate(561.519 351.601) rotate(-174.148)"/><rect class="cls-12" x="311.669" y="160.161" width="1.921" height="5.169" transform="matrix(-0.995, -0.102, 0.102, -0.995, 560.76, 356.521)"/><rect class="cls-11" x="308.327" y="147.455" width="1.921" height="10.982" transform="translate(555.098 336.62) rotate(-174.15)"/><rect class="cls-12" x="308.199" y="151.607" width="1.921" height="5.169" transform="translate(554.718 339.09) rotate(-174.15)"/><rect class="cls-11" x="304.091" y="146.377" width="1.921" height="10.982" transform="translate(546.751 334.048) rotate(-174.148)"/><rect class="cls-12" x="304.216" y="148.06" width="1.921" height="5.169" transform="translate(547.133 331.609) rotate(-174.15)"/><rect class="cls-11" x="299.087" y="152.792" width="1.921" height="10.982" transform="translate(536.122 346.324) rotate(-174.15)"/><rect class="cls-12" x="299.254" y="154.064" width="1.921" height="5.169" transform="translate(536.622 343.081) rotate(-174.15)"/><rect class="cls-11" x="295.277" y="147.55" width="1.921" height="10.982" transform="translate(529.058 335.479) rotate(-174.15)"/><rect class="cls-12" x="295.192" y="151.29" width="1.921" height="5.169" transform="translate(528.801 337.134) rotate(-174.15)"/><rect class="cls-11" x="290.683" y="149.96" width="1.921" height="10.982" transform="translate(519.64 339.829) rotate(-174.148)"/><rect class="cls-12" x="290.556" y="154.111" width="1.921" height="5.169" transform="translate(519.266 342.289) rotate(-174.15)"/><rect class="cls-11" x="285.879" y="154.424" width="1.921" height="10.982" transform="translate(509.603 348.243) rotate(-174.148)"/><rect class="cls-12" x="285.583" y="160.221" width="1.921" height="5.169" transform="translate(508.725 353.969) rotate(-174.15)"/><rect class="cls-11" x="282.287" y="147.064" width="1.921" height="10.982" transform="translate(503.194 333.185) rotate(-174.15)"/><rect class="cls-12" x="282.117" y="151.627" width="1.921" height="5.169" transform="translate(502.686 336.473) rotate(-174.15)"/><rect class="cls-11" x="278.477" y="141.822" width="1.921" height="10.982" transform="translate(496.122 322.351) rotate(-174.148)"/><rect class="cls-12" x="278.307" y="146.385" width="1.921" height="5.169" transform="translate(495.621 325.629) rotate(-174.15)"/><rect class="cls-11" x="273.583" y="147.164" width="1.921" height="10.982" transform="translate(485.821 332.498) rotate(-174.15)"/><rect class="cls-12" x="273.708" y="148.847" width="1.921" height="5.169" transform="translate(486.19 330.079) rotate(-174.148)"/><rect class="cls-11" x="268.649" y="152.898" width="1.921" height="10.982" transform="translate(475.394 343.434) rotate(-174.15)"/><rect class="cls-12" x="268.858" y="153.758" width="1.921" height="5.169" transform="translate(476.021 339.373) rotate(-174.15)"/><rect class="cls-11" x="264.98" y="146.282" width="1.921" height="10.982" transform="translate(468.75 329.862) rotate(-174.15)"/><rect class="cls-12" x="264.852" y="150.434" width="1.921" height="5.169" transform="translate(468.361 332.343) rotate(-174.148)"/><rect class="cls-11" x="260.865" y="144.024" width="1.921" height="10.982" transform="translate(460.764 324.947) rotate(-174.148)"/><rect class="cls-12" x="261.032" y="145.295" width="1.921" height="5.169" transform="translate(461.271 321.694) rotate(-174.15)"/><rect class="cls-11" x="256.214" y="146.991" width="1.921" height="10.982" transform="translate(451.184 330.391) rotate(-174.148)"/><rect class="cls-12" x="255.918" y="152.788" width="1.921" height="5.169" transform="translate(450.306 336.117) rotate(-174.15)"/><rect class="cls-11" x="252.262" y="143.142" width="1.921" height="10.982" transform="translate(443.7 322.301) rotate(-174.15)"/><rect class="cls-12" x="252.05" y="148.117" width="1.921" height="5.169" transform="translate(443.059 326.415) rotate(-174.148)"/><rect class="cls-11" x="247.809" y="144.175" width="1.921" height="10.982" transform="translate(434.712 323.909) rotate(-174.15)"/><rect class="cls-12" x="247.555" y="149.561" width="1.921" height="5.169" transform="translate(433.953 328.828) rotate(-174.15)"/><rect class="cls-11" x="243.651" y="142.331" width="1.921" height="10.982" transform="translate(426.607 319.806) rotate(-174.15)"/><rect class="cls-12" x="243.903" y="142.78" width="1.921" height="5.169" transform="translate(427.36 314.929) rotate(-174.15)"/><path class="cls-9" d="M340.706,176.842l-87.24-8.94a.918.918,0,0,0-.187,1.827l87.24,8.94a.918.918,0,1,0,.187-1.827Z" transform="translate(-46.276 0)"/><path class="cls-9" d="M340.033,183.411l-101.443-10.4a.918.918,0,0,0-.187,1.827l101.443,10.4a.918.918,0,1,0,.187-1.827Z" transform="translate(-46.276 0)"/><path class="cls-9" d="M296.75,185.614l-58.833-6.029a.918.918,0,0,0-.188,1.827l58.834,6.029a.918.918,0,1,0,.187-1.827Z" transform="translate(-46.276 0)"/><path class="cls-6" d="M350.327,126.952c-3.008-.241-4.05,4.555-4.05,4.555s-4.757-6.234-4-20.893c0,0-2.324-6.5-8.55-2.573s-12.677,17.761-11.138,32.832l-12.1-40.178c-4.181.887-12.677,6.506-10.439,33.641l-13.206-13.96a4.977,4.977,0,0,0-5.6,2.013c-2.021,3.172-1.057,25.822.614,34.294s-2.588,25.5-2.588,25.5-4.554-19.276-12.794-24.154L235.1,93.3,224.671,195.05l11.761,1.2,18.886-9.193c-.106,4.252-.209,8.161-.519,11.075l94.393,9.669,6.755-65.929C353.654,133.66,351.462,127.038,350.327,126.952Z" transform="translate(-46.276 0)"/></g><polygon class="cls-5" points="320.653 34.704 309.67 141.876 302.916 207.805 208.522 198.136 190.155 196.254 178.395 195.05 188.818 93.303 196.133 21.949 320.653 34.704"/><path class="cls-7" d="M365.375,310.608,310.188,320s-9.607-51.029-15.336-59.066-4.679-11.348-7.462-16.766c-1.679-3.272-10.1-9.374-16.7-15.4h-.007c-.575-.521-1.135-1.041-1.671-1.562-.234-.21-.451-.435-.669-.645-.878-.871-1.694-1.718-2.417-2.55q-.4-.442-.746-.886a12.579,12.579,0,0,1-2.674-4.734,1.159,1.159,0,0,1-.047-.24,2.126,2.126,0,0,1-.047-.288c-.147-1.205-.3-2.581-.458-4.073-.031-.295-.062-.606-.1-.917-.016-.125-.031-.241-.047-.373-.132-1.244-.28-2.565-.451-3.926-.171-1.422-.357-2.9-.575-4.383-.07-.513-.14-1.026-.225-1.547,0-.008,0-.016-.008-.016-.086-.575-.179-1.15-.272-1.733l-.257-1.493c-.015-.085-.038-.163-.046-.233-.109-.583-.218-1.15-.327-1.725a.813.813,0,0,1-.039-.195c-.108-.5-.209-1-.326-1.508-.241-1.127-.513-2.23-.808-3.3a40.977,40.977,0,0,0-2.06-5.907c-3.98-8.885,1.2-5.674-1.92-28.534,0,0,2.293-5.3,8.83-1.065A17.388,17.388,0,0,1,264.779,158h.008a18.356,18.356,0,0,1,3.474,3.715,21.487,21.487,0,0,1,3,6.187,26.915,26.915,0,0,1,.886,11.115s4.912,16.836,7.5,20.668,13.291-18.18,12.6-20.745a34.746,34.746,0,0,1-.552-3.483c-.046-.38-.093-.785-.147-1.212s-.1-.871-.148-1.329c-.031-.218-.054-.451-.085-.677-.008-.093-.016-.186-.032-.272-.093-.878-.2-1.811-.3-2.774-.023-.273-.054-.529-.085-.793-.047-.459-.093-.933-.14-1.4a1.749,1.749,0,0,1-.023-.234c-.032-.264-.063-.536-.086-.816-.062-.544-.117-1.1-.171-1.648-.054-.474-.093-.948-.14-1.422-.093-.894-.179-1.788-.264-2.651-.062-.645-.124-1.282-.179-1.9-.015-.14-.031-.28-.039-.412-.326-3.42-.583-6.234-.676-7.431,0,0-7.781-11.519-8.581-16.944s-.731-11.139,2.526-13.463c7.711-5.488,5.457,3.358,8.908,7.019,3.451,3.676,8.744,9.662,11.744,11.535,2.768,1.756,5.239,8.581,5.589,9.576-.4-1.492-4.353-16.168-4.438-19.121-.1-3.117-2.48-19.557,1.562-25.456s9.413-1.322,9.91-.156.646,17.093,2.068,21.531,7.376,22.907,7.376,22.907.249-17.971,1.594-26.016,4.835-14.333,8.255-14.691,6.583,3.413,6.583,3.413-1.352,12.825-.964,15.786-.559,13.657,1.065,19.409c0,0-.186-15.32,2.192-17.279s4.423-2.9,5.76-1.578,1.624,10.392,2.985,15.849,1.189,12.872,2.083,21.383,4.415,20.326,3.715,27.08c-.7,6.739-2.853,23.5-4.586,33.338s-6.156,23.3-6.156,23.3a48.324,48.324,0,0,1,1.625,13.6C349.6,267.92,365.375,310.608,365.375,310.608Z" transform="translate(-46.276 0)"/><path class="cls-13" d="M318.47,125c1.057,3.283,4.589,14.257,6.349,19.736,0,0-7.715,5.67-7.523,10.939s-1.413,15.906-4.877,15.6-3.151-22.429-4.282-26.146c.7,1.6,1.16,2.9,1.251,3.152-.256-.953-4.378-16.182-4.465-19.2-.021-.709-.163-2.12-.323-3.946l0-.036s7.667-7.34,13.3-2.846v.007A18.761,18.761,0,0,0,318.47,125Z" transform="translate(-46.276 0)"/><path class="cls-13" d="M341.391,131.326c-3.592,3.405-9.011,9.424-9.7,15.233,0,0,2,16.208,1.147,23.279l-7-21.929s.251-17.973,1.6-26.015c.035-.22.077-.446.119-.665a31.963,31.963,0,0,1,14.058-3.436,62.683,62.683,0,0,0-.306,8.607A47.253,47.253,0,0,1,341.391,131.326Z" transform="translate(-46.276 0)"/><path class="cls-13" d="M344.566,128.531l-.008.007-.022.02c-.083.059-.293.225-.6.485a10.4,10.4,0,0,1,.613-1.014Z" transform="translate(-46.276 0)"/><path class="cls-13" d="M346.393,173.359s-4.616-17.32-4.7-31.265c-.033-5.159.563-9.864,2.231-13.045l.008-.006a10.4,10.4,0,0,1,.613-1.014l.019.5a12.7,12.7,0,0,1,2.751-1.82c-1.3,2.023-2.792,5.98-1.062,12.409C348.963,149.192,346.606,161.492,346.393,173.359Z" transform="translate(-46.276 0)"/><path class="cls-13" d="M282.709,206.357s1.24,16.5-12.025,22.414h-.007c-.576-.522-1.131-1.042-1.671-1.561-.23-.215-.452-.436-.668-.649-.877-.87-1.7-1.721-2.419-2.552-.267-.3-.514-.6-.746-.883a12.567,12.567,0,0,1-2.671-4.734,1.475,1.475,0,0,1-.05-.239,2.244,2.244,0,0,1-.046-.289c-.148-1.2-.3-2.579-.458-4.076-.032-.3-.063-.605-.1-.915-.014-.122-.027-.245-.041-.374-.138-1.246-.286-2.564-.453-3.926-.17-1.419-.359-2.9-.575-4.384-.076-.512-.151-1.032-.227-1.544,0-.007,0-.014-.006-.015-.086-.577-.18-1.155-.273-1.733-.084-.5-.175-1-.259-1.5-.016-.079-.033-.159-.043-.231-.107-.579-.215-1.151-.33-1.723a1.677,1.677,0,0,1-.038-.195c-.105-.507-.21-1.007-.323-1.507-.253-1.125-.521-2.228-.813-3.305,5.248-5.049,17.36-1.881,11.5-13.577,0,0,2.952-10.011-5.186-20.867h.007c5.568,4.49,8.417,12.375,7.365,21.022,0,0,4.911,16.83,7.5,20.666s13.289-18.182,12.6-20.749c-.133-.509-.327-1.765-.544-3.481-.048-.382-.095-.785-.148-1.21s-.1-.872-.154-1.333c-.029-.216-.051-.447-.08-.67-.009-.094-.017-.187-.034-.274-.095-.885-.2-1.814-.3-2.779-.027-.266-.054-.526-.087-.792-.044-.461-.094-.929-.144-1.4-.009-.072-.012-.151-.021-.23-.027-.266-.06-.54-.086-.82-.059-.548-.111-1.094-.17-1.649-.05-.475-.092-.95-.142-1.425-.088-.892-.176-1.784-.259-2.647-.061-.648-.122-1.288-.184-1.9-.013-.144-.026-.281-.039-.417.216,1.022,4.158,19.781,6.407,24.153C298.564,186.56,288.764,210.248,282.709,206.357Z" transform="translate(-46.276 0)"/><path class="cls-13" d="M354.521,224.6c-1.734,9.842-6.15,23.3-6.15,23.3a48.207,48.207,0,0,1,1.618,13.6c-.1,1.724.965,6.081,2.569,11.522-.463-1.194-5.418-14.036-5.337-18.516.1-4.7-1.241-6-3.862-11.773s-6.615-5.141-6.615-5.141-1.542,14.41-5.159,4.941-4.315-20.485,4.8-58.726c0,0,1.379,4.8.226,19.046s2.252,18.562,2.252,18.562a132.781,132.781,0,0,0,12.118-28.259s-1.177,16.629-2.228,24.2,3.735-8.776,7.08-18.877c3.142-9.477,3.256-13.082,2.06-19.828.889,4.753,1.555,9.286,1.216,12.6C358.413,198.006,356.255,214.768,354.521,224.6Z" transform="translate(-46.276 0)"/><path class="cls-13" d="M292.162,256.654c2.69,4.277,9.276,9.927,13.2,25.56s1.458,32.742,1.458,32.742Z" transform="translate(-46.276 0)"/><path class="cls-6" d="M271.262,167.9s-13.766,6.972-14.854,18.632c-3.98-8.885,1.2-5.674-1.92-28.534,0,0,2.293-5.3,8.83-1.065A17.388,17.388,0,0,1,264.779,158h.008a18.356,18.356,0,0,1,3.474,3.715Z" transform="translate(-46.276 0)"/><path class="cls-5" d="M310.186,320s-9.6-51.03-15.334-59.069-4.68-11.348-7.46-16.764-24.041-18.6-24.983-26.3-2.018-22.446-6-31.336,1.2-5.675-1.928-28.536c0,0,2.306-5.3,8.837-1.061s9.972,12.705,8.831,22.086c0,0,4.909,16.827,7.5,20.664s13.282-18.182,12.591-20.751-2.744-24.46-3.065-28.452c0,0-7.781-11.523-8.58-16.948s-.732-11.139,2.523-13.457c7.712-5.491,5.453,3.355,8.906,7.023s8.745,9.652,11.742,11.534,5.631,9.69,5.631,9.69-4.387-16.122-4.479-19.24-2.478-19.557,1.562-25.452,9.418-1.323,9.913-.159.649,17.088,2.074,21.526,7.366,22.911,7.366,22.911.254-17.969,1.6-26.012,4.841-14.337,8.258-14.694,6.581,3.412,6.581,3.412-1.352,12.825-.968,15.784-.555,13.654,1.073,19.412c0,0-.192-15.323,2.192-17.282s4.422-2.9,5.755-1.577,1.626,10.392,2.989,15.852,1.191,12.872,2.084,21.382,4.411,20.327,3.714,27.075-2.856,23.507-4.592,33.346-6.145,23.3-6.145,23.3a48.191,48.191,0,0,1,1.617,13.6c-.393,6.413,15.38,49.1,15.38,49.1" transform="translate(-46.276 0)"/><path class="cls-5" d="M325.837,147.908c1.607,3.777,5.581,19.724,7,21.934a7.52,7.52,0,0,0,3.031,2.873" transform="translate(-46.276 0)"/><path class="cls-5" d="M342.377,145.81s-.342,3.268,1.424,13.687,2.625,14.856,3.614,17.181" transform="translate(-46.276 0)"/><path class="cls-5" d="M309.4,148.322c2.157,6.349,3.375,16.469,4.6,19.515s2.321,3.679,2.321,3.679" transform="translate(-46.276 0)"/><path class="cls-5" d="M312.893,163.558a9.6,9.6,0,0,1,2.981,3.767" transform="translate(-46.276 0)"/><path class="cls-5" d="M279.653,199.683s1.181,8.42,6.456,7.753" transform="translate(-46.276 0)"/><path class="cls-5" d="M292.244,178.932s1.366,10.007-.875,14.255" transform="translate(-46.276 0)"/><path class="cls-5" d="M334.4,179.02s3.545,2.17,1.174,8.532-6.493,32.046-6.493,32.046" transform="translate(-46.276 0)"/><path class="cls-5" d="M349.83,185.739c1.486,5.75,1.619,5.9-.8,12.966s-6.305,24.371-6.305,24.371" transform="translate(-46.276 0)"/><path class="cls-5" d="M348.374,247.909s-2.318-4.681-.4-8.524" transform="translate(-46.276 0)"/><path class="cls-5" d="M294.852,260.931a64.057,64.057,0,0,1,8.409,17.445" transform="translate(-46.276 0)"/><polygon class="cls-11" points="291.7 116.644 293.282 115.079 294.002 114.876 293.954 115.651 292.496 117.507 291.7 116.644"/><path class="cls-3" d="M339.256,117.512l-2.577,5.85-69.334,92.445-7.723-4.923,10.485-13.153,62.275-78.116,5.492-3.489A1.953,1.953,0,0,1,339.256,117.512Z" transform="translate(-46.276 0)"/><g class="cls-14"><path class="cls-15" d="M339.256,117.512l-2.577,5.85-69.334,92.445-7.723-4.923,10.485-13.153c4.815-.5,5.62,2.347,5.62,2.347l59.734-77.963c-.586-2.1-3.079-2.5-3.079-2.5l5.492-3.489A1.953,1.953,0,0,1,339.256,117.512Z" transform="translate(-46.276 0)"/></g><path class="cls-5" d="M339.256,117.512l-2.577,5.85-69.334,92.445-7.723-4.923,10.485-13.153,62.275-78.116,5.492-3.489A1.953,1.953,0,0,1,339.256,117.512Z" transform="translate(-46.276 0)"/><path class="cls-3" d="M289.959,188.435s-7.737,15.361-15.184,26.226l-5.32,1.376s-12.2,12.125-19.646,18.177a16.7,16.7,0,0,1-3.639-3.056s10.572-20.3,22.267-33.15a14.958,14.958,0,0,1,3.838,2.037,18.875,18.875,0,0,1,4,3.844l13.037-16.4Z" transform="translate(-46.276 0)"/><g class="cls-16"><path class="cls-15" d="M289.959,188.435s-7.737,15.361-15.184,26.226l-5.32,1.376s-12.2,12.125-19.646,18.177l.2-3.292c8.073-12.336,18.333-25.789,22.264-30.877a18.875,18.875,0,0,1,4,3.844l-7.245,9.669,4.152-.747,16.13-25.324Z" transform="translate(-46.276 0)"/></g><path class="cls-5" d="M289.959,188.435s-7.737,15.361-15.184,26.226l-5.32,1.376s-12.2,12.125-19.646,18.177a16.7,16.7,0,0,1-3.639-3.056s10.572-20.3,22.267-33.15a14.958,14.958,0,0,1,3.838,2.037,18.875,18.875,0,0,1,4,3.844l13.037-16.4Z" transform="translate(-46.276 0)"/><path class="cls-7" d="M316.324,171.514l-21.658,21-3.461,3.356c2.37-6.091,1.224-15.509,1.072-16.656V179.2c-.01-.065-.015-.1-.015-.1a.974.974,0,0,0-.019-.166c-.133-.509-.327-1.765-.544-3.481-.048-.382-.095-.785-.148-1.21s-.1-.872-.154-1.333c-.029-.216-.051-.447-.08-.67-.009-.094-.017-.187-.034-.274-.1-.878-.2-1.815-.3-2.779-.027-.266-.054-.526-.087-.792-.044-.461-.094-.929-.144-1.4-.009-.072-.012-.151-.021-.23-.027-.266-.06-.54-.086-.82-.059-.548-.111-1.094-.17-1.649-.05-.475-.092-.95-.142-1.425-.088-.892-.176-1.784-.259-2.647q-.1-.972-.184-1.9c-.013-.144-.026-.281-.039-.417-.327-3.418-.583-6.23-.674-7.43,0,0-7.776-11.52-8.58-16.948s-.733-11.138,2.528-13.456c7.71-5.491,5.451,3.353,8.9,7.019s8.748,9.656,11.744,11.535,5.628,9.694,5.628,9.694c2.157,6.347,3.374,16.464,4.6,19.514S316.324,171.514,316.324,171.514Z" transform="translate(-46.276 0)"/><path class="cls-5" d="M312.893,163.558a9.6,9.6,0,0,1,2.981,3.767" transform="translate(-46.276 0)"/><path class="cls-13" d="M292.028,127.1c3.437,3.666,8.715,9.619,11.716,11.519-.423-.212-5.944-2.9-9.031.09-3.21,3.122-5.536,11.776-5.536,11.776s-7.776-11.52-8.58-16.948-.733-11.138,2.528-13.456C290.835,114.585,288.576,123.429,292.028,127.1Z" transform="translate(-46.276 0)"/><path class="cls-13" d="M294.666,192.515l-3.461,3.356c2.37-6.091,1.224-15.509,1.072-16.656V179.2a1.079,1.079,0,0,0-.034-.267c-.133-.509-.327-1.765-.544-3.481-.048-.382-.095-.785-.148-1.21s-.1-.872-.154-1.333c-.029-.216-.051-.447-.08-.67-.009-.094-.017-.187-.034-.274-.095-.885-.2-1.814-.3-2.779-.027-.266-.054-.526-.087-.792-.044-.461-.094-.929-.144-1.4-.009-.072-.012-.151-.021-.23-.027-.266-.06-.54-.086-.82-.059-.548-.111-1.094-.17-1.649-.05-.475-.092-.95-.142-1.425-.088-.892-.176-1.784-.259-2.647-.061-.648-.122-1.288-.184-1.9-.013-.144-.026-.281-.039-.417.216,1.022,4.158,19.781,6.407,24.153C297.108,183.717,296.317,187.981,294.666,192.515Z" transform="translate(-46.276 0)"/><path class="cls-5" d="M316.325,171.516s-1.093-.633-2.321-3.679-2.446-13.166-4.6-19.515c0,0-2.634-7.809-5.631-9.69s-8.288-7.866-11.742-11.534-1.194-12.514-8.906-7.023c-3.255,2.318-3.322,8.032-2.523,13.457s8.58,16.948,8.58,16.948c.321,3.992,2.373,25.883,3.065,28.452" transform="translate(-46.276 0)"/><path class="cls-5" d="M292.244,178.932s1.366,10.007-.875,14.255" transform="translate(-46.276 0)"/><path class="cls-6" d="M159.3,191.175s4.92,22.845-5.74,39.467-18.86,21.053-22.55,26.012-18.126,32.686-18.126,32.686L96.022,239.385l16.866-61.8Z" transform="translate(-46.276 0)"/><polygon class="cls-7" points="212.44 173.706 107.849 217.723 97.068 222.262 76.75 173.985 29.569 61.878 144.941 13.321 212.44 173.706"/><g class="cls-17"><path class="cls-9" d="M232.4,141.072l-80.83,34.017a.918.918,0,0,0,.712,1.693l80.83-34.017a.918.918,0,0,0-.712-1.693Z" transform="translate(-46.276 0)"/><path class="cls-9" d="M234.959,147.159l-93.99,39.555a.919.919,0,1,0,.713,1.693l93.99-39.556a.918.918,0,1,0-.713-1.692Z" transform="translate(-46.276 0)"/><path class="cls-9" d="M237.521,153.245,143.531,192.8a.918.918,0,0,0,.712,1.693l93.99-39.555a.918.918,0,0,0-.712-1.693Z" transform="translate(-46.276 0)"/><path class="cls-9" d="M240.082,159.331l-93.99,39.556a.919.919,0,0,0,.713,1.693l93.99-39.556a.919.919,0,0,0-.713-1.693Z" transform="translate(-46.276 0)"/><path class="cls-9" d="M203.164,182.033l-54.51,22.94a.918.918,0,0,0,.712,1.693l54.511-22.941a.918.918,0,1,0-.713-1.692Z" transform="translate(-46.276 0)"/><polyline class="cls-5" points="68.288 124.649 87.565 170.454 162.788 138.797"/><path class="cls-9" d="M185.45,152.692l-24.9,10.479a.918.918,0,0,0,.712,1.693l24.9-10.48a.918.918,0,0,0-.712-1.692Z" transform="translate(-46.276 0)"/><rect class="cls-10" x="201.842" y="109.333" width="3.584" height="3.584" rx="0.626" transform="translate(-73.438 87.694) rotate(-22.825)"/><path class="cls-9" d="M217.151,104.911,207.2,109.1a.412.412,0,1,1-.32-.759l9.952-4.188a.412.412,0,1,1,.319.759Z" transform="translate(-46.276 0)"/><path class="cls-9" d="M214.81,107.84l-6.915,2.91a.412.412,0,1,1-.32-.759l6.915-2.91a.412.412,0,1,1,.32.759Z" transform="translate(-46.276 0)"/><rect class="cls-12" x="204.955" y="116.731" width="3.584" height="3.584" rx="0.626" transform="translate(-76.064 89.479) rotate(-22.824)"/><path class="cls-9" d="M220.265,112.309l-9.952,4.188a.412.412,0,0,1-.319-.759l9.951-4.188a.412.412,0,0,1,.32.759Z" transform="translate(-46.276 0)"/><path class="cls-9" d="M217.923,115.238l-6.915,2.911a.412.412,0,0,1-.319-.759l6.915-2.911a.412.412,0,1,1,.319.759Z" transform="translate(-46.276 0)"/><path class="cls-6" d="M154.125,217.723l-10.781,4.539-20.318-48.277a11.961,11.961,0,0,0,3.4-6.661c1.212-6.467.357-27.259,16.548-29.4s2.534,34.263,3.28,41.2C146.935,185.442,156.162,203.81,154.125,217.723Z" transform="translate(-46.276 0)"/></g><polygon class="cls-5" points="212.44 173.706 107.849 217.723 97.068 222.262 76.75 173.985 29.569 61.878 144.941 13.321 212.44 173.706"/><path class="cls-7" d="M147.612,181.755c1.815-6.206,8.9-26.128,7.974-34.935a8.676,8.676,0,0,0-.5-2.144c-2.489-6.577-12.658-5.941-16.562-.491-4.288,5.994-7.791,16.778-8.09,23.343a20.3,20.3,0,0,1-3.075,9.216.138.138,0,0,1-.013.029,22.824,22.824,0,0,1-2.058,2.922l-23.2-55.046a31.411,31.411,0,0,0-6.07,6.775,11.107,11.107,0,0,0-1.784,4.719c-.475,5.421-6.616,27.7-9.169,37.1-.049.2-.105.39-.155.578-2.454,9.033,4.026,42.581,2.173,52.325s-3.005,9.528-3.275,16.448c-.2,5.053-7.426,20.415-15.524,36.184-4.643,9.038-9.574,18.2-13.639,25.627l59.322-2.464c1.028-7.207,2.081-14.815,3.044-22.178a82.837,82.837,0,0,1,1.773-9.105v-.007c1.31-5.285,2.9-10.067,3.875-12.865a121.1,121.1,0,0,0,3.095-12.511c6.9-7.3,15.947-18.782,18.568-26.557.006-.015.012-.037.019-.051a9.654,9.654,0,0,0,.591-5.048,23.393,23.393,0,0,1-.47-4.246c.007-.007.007-.007,0-.014C144.165,200.939,146.091,186.927,147.612,181.755Z" transform="translate(-46.276 0)"/><path class="cls-13" d="M127.35,176.773c-1.841,3.692-4.057,7.278-5.471,11.416s-2.933,4.724-7.086,7.961-7.182-2.095-7.182-2.095,5.493-5.708,3.668-8.884-8.663-11.086-8.258-15.447-4.145-14.139-4.145-14.139,10.357-6.082,8.347-13.187c-1.1-3.891-6.521-8.031-11.2-10.974a31.411,31.411,0,0,1,6.07-6.775l23.2,55.046A22.824,22.824,0,0,0,127.35,176.773Z" transform="translate(-46.276 0)"/><path class="cls-13" d="M89.726,210.538c.141.466,3.511,11.608.668,16.249-2.911,4.743-5.768,10.792-4.378,17.094,1.11,5.034-8.216,23.226-17.728,34.9,8.1-15.769,15.327-31.131,15.524-36.184.27-6.92,1.415-6.71,3.275-16.448s-4.627-43.292-2.173-52.325c.05-.188.106-.376.155-.578,1.811,10.235,6.03,30.623,7.188,37.177C93.733,218.767,89.882,210.867,89.726,210.538Z" transform="translate(-46.276 0)"/><path class="cls-13" d="M111.087,277.75c6.891-29.681,30.1-52.444,33.238-59.033-2.621,7.775-11.669,19.254-18.568,26.557a121.1,121.1,0,0,1-3.095,12.511c-.97,2.8-2.565,7.58-3.875,12.865v.007C112.051,278.6,111.087,277.75,111.087,277.75Z" transform="translate(-46.276 0)"/><path class="cls-13" d="M147.612,181.755c-1.521,5.172-3.447,19.184-3.147,27.6-1.22-5.287-3.571-12-3.959-21.349-.659-15.856,8.323-10.17,5.191-17.978s-12.063,2.2-7.662-14.336c3.214-12.073,12.357-11.96,17.055-11.019a8.676,8.676,0,0,1,.5,2.144C156.516,155.627,149.427,175.549,147.612,181.755Z" transform="translate(-46.276 0)"/><path class="cls-5" d="M63.669,288.033c7.441-13.592,14.673-27.574,19.887-42.657.625-2.169-.207-4.993.417-7.162,7.046-19.584-.945-39.973.365-60.033,1.1-7.905,3.628-15.87,6.155-23.834,1.19-5.766,1.636-12.215,3.539-18.01,1.962-4.368,3.9-9.45,8.06-11.688,7.928,18.169,15.831,36.418,23.2,55.046,3.328-1.924,3.864-6.234,4.429-9.83,1.784-8.648,3.6-16.582,6.868-23.863,3.329-5.855,11.8-8.35,17-3.564a8.1,8.1,0,0,1,2.377,5.617c-1.012,10.045-4.164,20.179-7.345,29.6-1.249,4.338-2.527,7.964-3.063,12.273.06,1.427.089,2.14.148,3.567-1.843,7.221-.15,13.581-.567,20.744-1.607,12.927-11.95,21.931-19.411,31.529-1.844,7.222-3.687,14.443-6.244,21.7-3.122,10.847-4.1,21.6-5.169,32.062" transform="translate(-46.276 0)"/><path class="cls-5" d="M125.294,179.7a48.39,48.39,0,0,0-3.416,8.494c-.973,3.809-5.895,3.259-8.435,5.626" transform="translate(-46.276 0)"/><path class="cls-5" d="M106.737,172.99s6.693,2.36,10.588,5.4a20.837,20.837,0,0,0,6.778,3.784" transform="translate(-46.276 0)"/><path class="cls-5" d="M102.467,156.4s5.4,1.514,9.406-.391a35.833,35.833,0,0,1,1.015-5.741" transform="translate(-46.276 0)"/><path class="cls-5" d="M113.159,156.789s.057.753,2.81.785" transform="translate(-46.276 0)"/><path class="cls-5" d="M125.756,245.277a36.819,36.819,0,0,0-8.489,13.392" transform="translate(-46.276 0)"/><path class="cls-5" d="M84.594,175.481c-.242,4.654,5.225,21.2,6.885,29.423s2.279,14.038,2.279,14.038" transform="translate(-46.276 0)"/><circle class="cls-18" cx="117.229" cy="130.191" r="1.445"/><line class="cls-19" x1="117.704" y1="129.136" x2="125.112" y2="107.331"/><line class="cls-19" x1="111.777" y1="153.249" x2="116.704" y2="131.637"/><line class="cls-19" x1="87.537" y1="122.571" x2="115.784" y2="130.191"/><line class="cls-19" x1="118.675" y1="130.191" x2="144.425" y2="124.148"/><path class="cls-19" d="M131.88,120.068l-2.146,3.718a.353.353,0,0,0,.306.53h4.293a.353.353,0,0,0,.306-.53l-2.146-3.718A.354.354,0,0,0,131.88,120.068Z" transform="translate(-46.276 0)"/><path class="cls-19" d="M171.541,103.268l-2.147,3.717a.354.354,0,0,0,.307.531h4.292a.354.354,0,0,0,.307-.531l-2.147-3.717A.353.353,0,0,0,171.541,103.268Z" transform="translate(-46.276 0)"/><path class="cls-19" d="M192.247,121.287l-2.147,3.718a.354.354,0,0,0,.307.53H194.7a.354.354,0,0,0,.307-.53l-2.147-3.718A.353.353,0,0,0,192.247,121.287Z" transform="translate(-46.276 0)"/><path class="cls-19" d="M156.678,151.658l-2.147,3.718a.354.354,0,0,0,.307.53h4.292a.354.354,0,0,0,.307-.53l-2.147-3.718A.353.353,0,0,0,156.678,151.658Z" transform="translate(-46.276 0)"/><path d="M94.25,58.062l.127.039a.939.939,0,0,0,.9-.3,3.533,3.533,0,0,1,.854-.581,3.474,3.474,0,0,1,3.31.48,6.8,6.8,0,0,1,2.628,3.2,8.323,8.323,0,0,1,.442,6,5.525,5.525,0,0,1-2.976,3.623,3.53,3.53,0,0,1-3.47-.356,7.524,7.524,0,0,1-2.779-3.58,11.787,11.787,0,0,1-.7-4.982q.115-3.057,1.181-3.5a.658.658,0,0,1,.244-.056A1.144,1.144,0,0,1,94.25,58.062Zm.744.849-.053.224a.686.686,0,0,1-.3.152,4.4,4.4,0,0,1-.543.091,9.436,9.436,0,0,0-.294,3.268,8.944,8.944,0,0,0,.649,2.835,6.6,6.6,0,0,0,2.268,3.066,2.71,2.71,0,0,0,2.694.4,3.862,3.862,0,0,0,2.244-2.8,7.182,7.182,0,0,0-2.982-7.524,3.237,3.237,0,0,0-2.971-.419,1.443,1.443,0,0,0-.459.313A.923.923,0,0,0,94.994,58.911Z" transform="translate(-46.276 0)"/><path d="M110.536,63.1a5.728,5.728,0,0,1-.848,2.432,3.742,3.742,0,0,1-1.771,1.511,1.836,1.836,0,0,1-1.631,0,2.85,2.85,0,0,1-1.2-1.507,5.5,5.5,0,0,1-.114-3.316,10.924,10.924,0,0,1,1.881-4.01q-2.755-1.294-2.919-1.438a.874.874,0,0,1-.235-.316q-.185-.438,1.909-3.2a12.818,12.818,0,0,1,2.7-3.02.64.64,0,0,1,.39-.015.406.406,0,0,1,.254.188.428.428,0,0,1-.028.326,21.072,21.072,0,0,1-1.466,1.906,31.276,31.276,0,0,0-2.249,2.939.862.862,0,0,0-.121.679,1.815,1.815,0,0,0,.8.657,7.891,7.891,0,0,0,1.469.62c.185-.264.328-.456.43-.579a.807.807,0,0,1,.278-.237.385.385,0,0,1,.338.079.69.69,0,0,1,.284.3c.014.031,0,.079-.031.143s-.186.319-.454.763a3.67,3.67,0,0,1,1.2.806,3.775,3.775,0,0,1,.79,1.2,4.963,4.963,0,0,1,.342,1.47A8.211,8.211,0,0,1,110.536,63.1Zm-2.831-4.361a10.028,10.028,0,0,0-1.539,3.268,4.427,4.427,0,0,0,.12,2.826,1.863,1.863,0,0,0,.766.988,1.089,1.089,0,0,0,1.042.022,2.879,2.879,0,0,0,1.378-2.139,5.323,5.323,0,0,0-.281-3.45,3.271,3.271,0,0,0-.586-.888A2.807,2.807,0,0,0,107.705,58.743Z" transform="translate(-46.276 0)"/><path d="M115.45,66.717l-3.642-7.91a12.7,12.7,0,0,1-.918-2.335.642.642,0,0,1,.42-.776.539.539,0,0,1,.523-.008,1.535,1.535,0,0,1,.41.647q.138.33.6,1.629t1.108,2.743a14,14,0,0,1,.878-4.224,3.78,3.78,0,0,1,1.756-2.27,2.106,2.106,0,0,1,1.6-.091,2.058,2.058,0,0,1,1.134,1.229,6.645,6.645,0,0,1,.117,4.857,4.923,4.923,0,0,1-2.5,3.23.336.336,0,0,1-.211.044.2.2,0,0,1-.1-.117.539.539,0,0,1-.055-.327.628.628,0,0,1,.128-.33l.732-.936a5.893,5.893,0,0,0,1.234-2.677,5.191,5.191,0,0,0-.4-2.914q-.382-.909-.961-1.035t-.961.589l-.321.6a11.731,11.731,0,0,0-.923,2.823,17.046,17.046,0,0,0-.444,3.174q.9,2.1,1.973,4.271a17.717,17.717,0,0,0,1.566,2.78l.352.441a1.381,1.381,0,0,1,.283,1.155.976.976,0,0,1-.5.782.515.515,0,0,1-.542-.1,1.46,1.46,0,0,1-.433-.593c-.057-.135-.131-.333-.22-.589s-.162-.45-.215-.575c-.027-.038-.028-.031,0,.019S116.456,68.9,115.45,66.717Z" transform="translate(-46.276 0)"/><path d="M128.222,56.878l.2.47a2.111,2.111,0,0,1,.247,1.113.761.761,0,0,1-.478.441.565.565,0,0,1-.725-.211,1.377,1.377,0,0,1-.247-1,6.437,6.437,0,0,1-1.233,1.432,5.333,5.333,0,0,1-1.353.838,3.035,3.035,0,0,1-1.673.233,1.4,1.4,0,0,1-1.131-.935,3,3,0,0,1,.669-3.122,5.2,5.2,0,0,1,3.338-1.995l-.587-1.394a1.576,1.576,0,0,0-.8-.929,1.625,1.625,0,0,0-1.2.09,4.326,4.326,0,0,0-1.07.679,7.489,7.489,0,0,0-1.034,1.073,1.22,1.22,0,0,1-.512.446c-.143.041-.249-.034-.318-.227q-.177-.422.885-1.469a6.97,6.97,0,0,1,2.145-1.5,2.129,2.129,0,0,1,1.763-.06A3.785,3.785,0,0,1,126.6,52.9l1.332,3.164a2.1,2.1,0,0,1,.3-.43,1.1,1.1,0,0,1,.351-.3.456.456,0,0,1,.285.018.406.406,0,0,1,.221.175.6.6,0,0,1-.112.544A4.192,4.192,0,0,1,128.222,56.878Zm-1.28.114-.2-.485a1.44,1.44,0,0,0-2.19-1,3.006,3.006,0,0,0-1.43,1.313,1.789,1.789,0,0,0-.269,1.616,1.214,1.214,0,0,0,.6.642,1.136,1.136,0,0,0,.966-.029,5.959,5.959,0,0,0,1.29-.812A6.389,6.389,0,0,0,126.942,56.992Z" transform="translate(-46.276 0)"/><path d="M130.955,52.722l-.312.924c.358.734.686,1.388.981,1.957s.456.887.482.95a.8.8,0,0,1,.03.6.67.67,0,0,1-.384.4.51.51,0,0,1-.508-.044,1.967,1.967,0,0,1-.453-.75l-.579-1.287q-.207-.447-.859-1.779t-.976-1.967a2.316,2.316,0,0,1-.176-.351,2.143,2.143,0,0,1-.061-.214.484.484,0,0,1,.055-.392.782.782,0,0,1,.377-.287.672.672,0,0,1,.478-.027.929.929,0,0,1,.386.455,2.172,2.172,0,0,0,.188.447,9.281,9.281,0,0,0,.561,1.028,19.146,19.146,0,0,1,.98-2.165q.654-1.27,1-1.417c.182-.064.371.066.569.388a5.025,5.025,0,0,1,.512,1.261,14.576,14.576,0,0,1,1.184-2.269,2.988,2.988,0,0,1,1.041-1.122.705.705,0,0,1,.673.023,1.578,1.578,0,0,1,.543.72l.416.988c.092.219.177.423.256.61q.519,1.405.506,1.355c-.008-.033-.01-.045,0-.034a10.549,10.549,0,0,0,.559,1.129,2.045,2.045,0,0,0,.519.686l.21.151a.8.8,0,0,1,.334.662.618.618,0,0,1-.44.618q-.564.238-1.064-.446a15.624,15.624,0,0,1-1.353-2.668l-.5-1.138a3.079,3.079,0,0,0-.605-1.044.441.441,0,0,0-.443-.045,2.187,2.187,0,0,0-.793,1.008,6.751,6.751,0,0,0-.608,1.537q.342.594,1.088,1.9t.87,1.608a.964.964,0,0,1,.057.684.849.849,0,0,1-.362.475l-.118.05-.086.036q-.33.047-.759-.685a28.989,28.989,0,0,1-1.407-3.234c-.158-.377-.25-.594-.274-.652s-.049-.117-.076-.179a.9.9,0,0,0-.319-.364.451.451,0,0,0-.379-.025c-.126.053-.266.238-.422.555A12.413,12.413,0,0,0,130.955,52.722Z" transform="translate(-46.276 0)"/><path d="M140.475,48.826l1.117-1.245a16.644,16.644,0,0,0,1.142-1.339c.132-.2.268-.41.405-.64a14.38,14.38,0,0,1-.91-2.338q-.138-.633.238-.792a.474.474,0,0,1,.371-.017.552.552,0,0,1,.274.281c0,.035.029.162.078.382a4.525,4.525,0,0,0,.356.911c.11.261.162.386.158.375s.583,1.095,1.765,3.316l.548,1.041a5.392,5.392,0,0,1,.752,1.852.538.538,0,0,1-.342.393.61.61,0,0,1-.608-.086,1.619,1.619,0,0,1-.53-.691l-1.1-2.34q-.582-1.214-.635-1.292c-.035-.053-.075-.119-.12-.2-.04.054-.041.058,0,.012l-2.486,3.232q.209.409.8,1.323a10.351,10.351,0,0,1,.818,1.464.577.577,0,0,1,.009.5.8.8,0,0,1-.384.357.5.5,0,0,1-.44.027.84.84,0,0,1-.3-.419l-.191-.455c0-.009-.1-.189-.281-.536s-.439-.882-.768-1.6a3.125,3.125,0,0,1-.369.285,2.357,2.357,0,0,1-.286.174.249.249,0,0,1-.206.014.336.336,0,0,1-.141-.18.813.813,0,0,1-.078-.383q.015-.162.53-.692c-.139-.3-.259-.571-.362-.816l-.881-2.092a3.179,3.179,0,0,1-.321-1.2.542.542,0,0,1,.329-.534.39.39,0,0,1,.35.045.848.848,0,0,1,.327.426c.052.126.1.244.141.355s.151.425.33.94a6.337,6.337,0,0,0,.253.688Q140,47.751,140.475,48.826Z" transform="translate(-46.276 0)"/><path d="M153.684,46.162l.2.47a2.109,2.109,0,0,1,.247,1.113.76.76,0,0,1-.478.442.567.567,0,0,1-.725-.211,1.381,1.381,0,0,1-.247-1,6.479,6.479,0,0,1-1.233,1.431,5.3,5.3,0,0,1-1.353.837,3.018,3.018,0,0,1-1.673.234,1.4,1.4,0,0,1-1.131-.935,3,3,0,0,1,.669-3.122,5.2,5.2,0,0,1,3.338-1.995l-.587-1.4a1.573,1.573,0,0,0-.8-.927,1.626,1.626,0,0,0-1.2.088,4.338,4.338,0,0,0-1.07.681,7.472,7.472,0,0,0-1.034,1.071,1.229,1.229,0,0,1-.512.448c-.143.04-.248-.035-.318-.228q-.177-.421.885-1.469a6.97,6.97,0,0,1,2.145-1.5,2.133,2.133,0,0,1,1.763-.06,3.781,3.781,0,0,1,1.489,2.048l1.332,3.164a2.155,2.155,0,0,1,.3-.429,1.1,1.1,0,0,1,.351-.3.456.456,0,0,1,.285.018.4.4,0,0,1,.221.175.6.6,0,0,1-.112.545A4.251,4.251,0,0,1,153.684,46.162Zm-1.28.114-.2-.485a1.857,1.857,0,0,0-.906-1.123,1.833,1.833,0,0,0-1.284.126,3.013,3.013,0,0,0-1.43,1.312,1.793,1.793,0,0,0-.269,1.618,1.212,1.212,0,0,0,.6.641,1.137,1.137,0,0,0,.965-.029,5.9,5.9,0,0,0,1.291-.812A6.334,6.334,0,0,0,152.4,46.276Z" transform="translate(-46.276 0)"/><path d="M157.462,45.715l.046.811a2.244,2.244,0,0,1-.079.8.6.6,0,0,1-.333.37.4.4,0,0,1-.349-.018.722.722,0,0,1-.244-.341,4.188,4.188,0,0,1-.119-1.9,6.182,6.182,0,0,1,.7-2.362,2.185,2.185,0,0,1-1.842.443,1.919,1.919,0,0,1-1.345-1.222,3.534,3.534,0,0,1,.423-3.314,4.3,4.3,0,0,1,3.079-2.126,1.4,1.4,0,0,1,.259-.285,2.137,2.137,0,0,1,.285-.22.405.405,0,0,1,.47.106,7.971,7.971,0,0,1,.741,2.113,12.806,12.806,0,0,0,1.377,3.3q.926,1.564,1.085,1.941a.627.627,0,0,1,.064.48.665.665,0,0,1-.357.27.909.909,0,0,1-.534.068.4.4,0,0,1-.329-.276l-.362-.862c-.161-.352-.341-.736-.542-1.156s-.411-.829-.628-1.229a6.116,6.116,0,0,0-1.174,2.163A7.011,7.011,0,0,0,157.462,45.715Zm1.1-5.535-.923-2.544c-.181.04-.368.084-.561.135a3.9,3.9,0,0,0-.526.175,2.992,2.992,0,0,0-1.615,1.62,2.633,2.633,0,0,0-.055,2.125,1.426,1.426,0,0,0,.984.915,1.917,1.917,0,0,0,1.437-.291,4.1,4.1,0,0,1,.449-1.056A6.493,6.493,0,0,1,158.563,40.18Z" transform="translate(-46.276 0)"/><path d="M129.106,72.166l.583-.634a9.842,9.842,0,0,1,1.2-1.178,4.371,4.371,0,0,1,.769-.406,1.793,1.793,0,0,1,1.17-.114,1.143,1.143,0,0,1,.741.712,2.656,2.656,0,0,1,.008,1.637,5.871,5.871,0,0,1-.866,1.932,3.988,3.988,0,0,1,2.808-1.5,2.309,2.309,0,0,1,2.171,1.678,4.568,4.568,0,0,1-.56,4.366,11.821,11.821,0,0,1-4.6,4l-.5.264c-.12.063-.185.091-.195.083a.093.093,0,0,1-.021-.029c-.013-.031.008-.076.062-.136a.885.885,0,0,1,.169-.146l.952-.677a11.107,11.107,0,0,0,3.405-3.5,3.591,3.591,0,0,0,.333-3.22,2.372,2.372,0,0,0-1.091-1.256,1.813,1.813,0,0,0-1.553-.029,3.105,3.105,0,0,0-.735.465,5.28,5.28,0,0,0-.638.611l-.464.564a.391.391,0,0,1-.349.176.33.33,0,0,1-.279-.225.594.594,0,0,1-.043-.167,1.362,1.362,0,0,1,.151-.451l.386-.882a11.074,11.074,0,0,0,.588-1.6,1.493,1.493,0,0,0-.018-.942.976.976,0,0,0-.562-.612,1.13,1.13,0,0,0-.79.073,2.165,2.165,0,0,0-.626.44,4.607,4.607,0,0,0-.616.729l-.371.563a.855.855,0,0,1-.495.382.3.3,0,0,1-.4-.189.5.5,0,0,1-.008-.348A1.185,1.185,0,0,1,129.106,72.166Z" transform="translate(-46.276 0)"/><path d="M144.818,72.026l.2.47a2.112,2.112,0,0,1,.247,1.113.756.756,0,0,1-.478.443.565.565,0,0,1-.725-.212,1.372,1.372,0,0,1-.248-1,6.4,6.4,0,0,1-1.232,1.431,5.346,5.346,0,0,1-1.353.837,3.028,3.028,0,0,1-1.673.234,1.4,1.4,0,0,1-1.131-.936,3,3,0,0,1,.669-3.122,5.2,5.2,0,0,1,3.338-1.994l-.587-1.395a1.568,1.568,0,0,0-.8-.927,1.619,1.619,0,0,0-1.2.088,4.314,4.314,0,0,0-1.07.68,7.427,7.427,0,0,0-1.034,1.072,1.212,1.212,0,0,1-.513.447c-.142.042-.248-.035-.316-.227q-.178-.423.884-1.469a6.944,6.944,0,0,1,2.144-1.5A2.123,2.123,0,0,1,141.708,66a3.769,3.769,0,0,1,1.489,2.047l1.331,3.165a2.156,2.156,0,0,1,.3-.431,1.11,1.11,0,0,1,.351-.3.45.45,0,0,1,.285.019.4.4,0,0,1,.221.174.6.6,0,0,1-.112.544A4.164,4.164,0,0,1,144.818,72.026Zm-1.28.116-.2-.486a1.86,1.86,0,0,0-.906-1.123,1.831,1.831,0,0,0-1.283.127,3,3,0,0,0-1.431,1.311,1.792,1.792,0,0,0-.27,1.617,1.2,1.2,0,0,0,.6.641,1.135,1.135,0,0,0,.966-.028,5.964,5.964,0,0,0,1.29-.811A6.472,6.472,0,0,0,143.538,72.142Z" transform="translate(-46.276 0)"/><path d="M152.438,69.317a5.385,5.385,0,0,1-1.147,1.48,5.2,5.2,0,0,1-1.414.891,2.8,2.8,0,0,1-2.5-.084,3.8,3.8,0,0,1-1.757-1.962,5.133,5.133,0,0,1-.047-3.946A4.2,4.2,0,0,1,147.7,63.1a1.245,1.245,0,0,1,.971-.06,1.053,1.053,0,0,1,.595.581.346.346,0,0,1,.043.193.087.087,0,0,1-.083.063.075.075,0,0,1-.051.031,2.245,2.245,0,0,1-.291-.054,1.256,1.256,0,0,0-.252.015,1.236,1.236,0,0,0-.295.088,3.029,3.029,0,0,0-1.791,2.1,4.306,4.306,0,0,0,.153,2.906,2.807,2.807,0,0,0,1.555,1.613,2.844,2.844,0,0,0,2.27-.106,2.984,2.984,0,0,0,.686-.409,4.356,4.356,0,0,0,.708-.75,2.57,2.57,0,0,1,.335-.39.9.9,0,0,0,.114-.076.477.477,0,0,1,.131-.018.082.082,0,0,1,.05.054.238.238,0,0,1,.017.149A1.386,1.386,0,0,1,152.438,69.317Z" transform="translate(-46.276 0)"/><path d="M158.827,66a10.524,10.524,0,0,1-1.407,1.938,4.1,4.1,0,0,1-1.324.908,2.92,2.92,0,0,1-2.4.106,3.443,3.443,0,0,1-1.656-1.94,5.008,5.008,0,0,1-.062-3.829A4.171,4.171,0,0,1,154.2,60.61a1.8,1.8,0,0,1,1.013-.113.822.822,0,0,1,.639.488,3.211,3.211,0,0,1-.278,2.144,25.275,25.275,0,0,1-2.057,3.966,1.92,1.92,0,0,0,1.107.9,1.974,1.974,0,0,0,1.372-.134,4.887,4.887,0,0,0,1.42-.921,6.871,6.871,0,0,0,1.172-1.425,1.587,1.587,0,0,1,.157-.2.408.408,0,0,1,.128-.089.163.163,0,0,1,.06.01.3.3,0,0,1,.051.034l.027.062.019.047a.675.675,0,0,1-.021.258A1.419,1.419,0,0,1,158.827,66Zm-4.348-2.356.3-.7a3.115,3.115,0,0,0,.239-.681A.813.813,0,0,0,155,61.95a.451.451,0,0,0-.322-.242.864.864,0,0,0-.525.027,2.523,2.523,0,0,0-1.336,1.8,3.954,3.954,0,0,0,.25,2.809q.462-.877.891-1.675T154.479,63.646Z" transform="translate(-46.276 0)"/><path d="M164.263,64.674l-.175-.369c-.037-.059-.074-.126-.112-.2s-.162-.3-.371-.683l-.151-.251q-.089-.145-.718-1.376a3.435,3.435,0,0,1-.426,1.4,1.968,1.968,0,0,1-.955.844,2.474,2.474,0,0,1-2.508-.2,8.045,8.045,0,0,1-2.329-3.539,1.36,1.36,0,0,1-.153-.756.565.565,0,0,1,.372-.388.559.559,0,0,1,.528.028,1.906,1.906,0,0,1,.557.753,8,8,0,0,0,1.831,2.751,1.5,1.5,0,0,0,2.308-.519,3.225,3.225,0,0,0,.315-1.378q-1.122-2.182-1.128-2.2l-.02-.046a1.431,1.431,0,0,1-.143-.8.677.677,0,0,1,.454-.477.527.527,0,0,1,.6.052,4.737,4.737,0,0,1,.689,1.176l1.133,2.474.291.56c.35.713.617,1.217.8,1.507a5.834,5.834,0,0,1,.454.861,3.618,3.618,0,0,1,.333,1.271.613.613,0,0,1-.337.648.518.518,0,0,1-.546-.157A3.193,3.193,0,0,1,164.263,64.674Z" transform="translate(-46.276 0)"/><path d="M169.159,55.493l.2-.893a.8.8,0,0,1,.353-.545q.282-.184.4.1a3.387,3.387,0,0,1-.522,2.746,10.156,10.156,0,0,1-2.575,3.131A4.612,4.612,0,0,1,171,58.98a3.608,3.608,0,0,1,2.643,2.117.7.7,0,0,1,.052.521.593.593,0,0,1-.36.327.458.458,0,0,1-.322.044c-.08-.028-.17-.132-.27-.311a3.592,3.592,0,0,0-2.566-1.65,4.079,4.079,0,0,0-3.167.78q.3.485.756,1.268a11.328,11.328,0,0,1,.6,1.113,1,1,0,0,1,.061.713.809.809,0,0,1-.47.418.578.578,0,0,1-.539.034,4.949,4.949,0,0,1-.716-1.349q-1.275-2.856-1.479-3.3c-.136-.294-.262-.563-.378-.81q-.418-.819-.471-.945c-.035-.083-.071-.167-.106-.251-.036-.057-.051-.085-.044-.081s.01,0,0-.013a1.573,1.573,0,0,1-.184-.632.39.39,0,0,1,.286-.351c.245-.09.409-.108.5-.052a1.037,1.037,0,0,1,.278.353c.09.184.266.562.531,1.132s.555,1.171.869,1.8a10.492,10.492,0,0,0,1.749-2.156A7.266,7.266,0,0,0,169.159,55.493Z" transform="translate(-46.276 0)"/><path d="M179.994,57.222l.2.47a2.106,2.106,0,0,1,.248,1.114.763.763,0,0,1-.478.442.567.567,0,0,1-.726-.212,1.377,1.377,0,0,1-.247-1,6.421,6.421,0,0,1-1.232,1.43,5.35,5.35,0,0,1-1.353.838,3.03,3.03,0,0,1-1.674.234,1.4,1.4,0,0,1-1.13-.936,3,3,0,0,1,.669-3.122,5.209,5.209,0,0,1,3.337-2l-.586-1.394a1.571,1.571,0,0,0-.8-.927,1.621,1.621,0,0,0-1.2.088,4.328,4.328,0,0,0-1.069.68A7.427,7.427,0,0,0,172.921,54a1.22,1.22,0,0,1-.513.447c-.142.041-.248-.035-.317-.226q-.177-.425.885-1.471a6.945,6.945,0,0,1,2.144-1.5,2.127,2.127,0,0,1,1.764-.06,3.781,3.781,0,0,1,1.489,2.048L179.7,56.4a2.086,2.086,0,0,1,.3-.43,1.133,1.133,0,0,1,.35-.3.468.468,0,0,1,.286.019.4.4,0,0,1,.22.174.6.6,0,0,1-.111.545A4.255,4.255,0,0,1,179.994,57.222Zm-1.28.116-.2-.486a1.86,1.86,0,0,0-.906-1.123,1.839,1.839,0,0,0-1.284.126,3.008,3.008,0,0,0-1.43,1.312,1.792,1.792,0,0,0-.27,1.617,1.2,1.2,0,0,0,.6.641,1.135,1.135,0,0,0,.966-.028,5.948,5.948,0,0,0,1.29-.811A6.472,6.472,0,0,0,178.714,57.338Z" transform="translate(-46.276 0)"/><line class="cls-20" x1="74.339" y1="88.288" x2="131.358" y2="64.631"/><path d="M131.536,86.959l.131-.055.109.262a5.269,5.269,0,0,1-.324,1.071q4.209-1.425,4.86.124.466,1.107-4.765,5.271a31.793,31.793,0,0,0,.164,3.343l-.261.11-.321-2.97a.125.125,0,0,1-.185-.076,23.235,23.235,0,0,1-2.659,1.427q-2.086.578-2.588-.614-.525-1.248,3.954-4.615,1.41-.711,1.285-1.008l-.582.091q-1.38.582-4.37,4.009l-.13.055q-.2-.476,2.71-3.157,2.975-1.785,2.612-2.648Zm-5.442,7.726q.444,1.055,1.891.447l.528-.222q2.9-1.222,2.514-2.148a10.348,10.348,0,0,1-.154-2.573,1.034,1.034,0,0,0-.449.03,10.352,10.352,0,0,0-4.442,4.2Zm5.239-5.623.111.266.241.206q-.7.3-.36,3.57l.266-.112q4.6-3.437,4.251-4.273-.571-1.359-3.888-.386C131.479,88.672,131.271,88.916,131.333,89.062Z" transform="translate(-46.276 0)"/><path d="M135.467,91.742l.131-.054a.89.89,0,0,1,.842.554,6.852,6.852,0,0,1-1.349,3.311l-.643.27a4.853,4.853,0,0,1-.806-1.186A3.438,3.438,0,0,1,135.467,91.742Zm-1.035,3.325.055.132.239.2a6.464,6.464,0,0,0,1.438-2.732l-.218-.517-.572.087Q133.915,93.839,134.432,95.067Z" transform="translate(-46.276 0)"/><path d="M138.144,88.987q.949-.4,1.717.807.614,1.458-1.567,4.632l-.053-.125q1.939-3.381,1.435-4.582-.312-.741-1.94-.254-4.416,3.31-3.623,5.2l-.131.055a.251.251,0,0,1-.371-.151l-.164-.392a9.18,9.18,0,0,1,3.381-4.325A3.422,3.422,0,0,1,138.144,88.987Zm-1.259,2.823.316.02q.612,2.9,3.225,10.57l-.131.055-.165-.392A73.772,73.772,0,0,1,136.885,91.81Z" transform="translate(-46.276 0)"/><path d="M142.482,88.629l.141-.059.119.283a9.443,9.443,0,0,1-.1,2.525l.059.142.341.022.708-3.447.141-.059a6.959,6.959,0,0,1-.077,2.184l.238.565c.079.188.259.222.541.1l1.05-1.438.059.141a2.225,2.225,0,0,1-1.131,1.638l-.14.06c-.255.106-.495-.068-.721-.527l-.141.059a3.346,3.346,0,0,1-.49,1.2q-.381.162-.72-.526l-.14.059-.768,1.319-.563.238-.118-.282c-.18-.59-.157-.931.066-1.024a1.5,1.5,0,0,1,.437.646l.142-.06a4.979,4.979,0,0,0,.843-3.5Z" transform="translate(-46.276 0)"/><path d="M145.436,87.584l.563-.237.08.188a3.42,3.42,0,0,0,.065,1.731l.234.558.188-.079,1.266-2.733.188-.079a29.2,29.2,0,0,1,.637,4.128l.376-.159A3.29,3.29,0,0,1,150.4,89.45l.158.376q-2.255,1.95-1.513,3.71,1.214,6.738-.955,7.651l-.188.079a2.213,2.213,0,0,0-.764-.78q-.829-1.968,1.2-8.632a29.7,29.7,0,0,0-.587-3.484l-1.054,2.2q-.423.178-.952-.7A9.041,9.041,0,0,1,145.436,87.584ZM147.6,98.976l.549,1.305.183-.076q1.26-1.712.26-6.7l-.079-.188-.188.08Q146.981,97.334,147.6,98.976Z" transform="translate(-46.276 0)"/><path d="M151.266,84.915l.313-.132.066.156a4.882,4.882,0,0,1-.241,2.481l.327.779.314-.132A27.909,27.909,0,0,0,154.967,85q-1.641,2.894-2.947,3.441l-.157.066-.819-.208q.1.231-.632,1.551l-.465.2-.066-.156-.171-.845.778-.327q.492-.336.445-3.3Z" transform="translate(-46.276 0)"/><path d="M155.151,83.673l.245-.1a15.037,15.037,0,0,0-.434,2.065q1.107-.467,1.313.024l.051.12q.371-.156.75-2.338l.337-.572.246-.1.153.365-.538,1.819.1.245c.1.152.214.2.35.143a4.929,4.929,0,0,1,1.145-1.061l.126-.052a2.662,2.662,0,0,1-1.414,1.461l-.647-.165a7.123,7.123,0,0,1-1.743,2.038l-.4-.268Q154.3,86.133,155.151,83.673Zm-.216,3.27c.068.164.227.193.474.089l.12-.051-.05-.119Zm.216-.522.051.121c.164-.069.263-.062.3.021.364-.276.516-.484.455-.628l-.1-.245-.12.05C155.276,86.031,155.083,86.257,155.151,86.421Z" transform="translate(-46.276 0)"/><path d="M136.946,99.83l.136-.058.055.131q-5.639,4.543-6.825,6.586.27.642,4.045-.307a18.2,18.2,0,0,0-.163-3.337l.392-.165.055.13a7.459,7.459,0,0,0,.244,3.15l1.614-.212a2.476,2.476,0,0,0,.007-1.091l.131-.055a.28.28,0,0,1,.373.157c.048.6.027.916-.06.952a3.583,3.583,0,0,1,1.638,1.322l.167.4c.261.92.268,1.431.025,1.534l-.131.055a2.154,2.154,0,0,1-1.507-1.376l-.5-1.181a34.887,34.887,0,0,0-1.511,4.5l-.131.055-.055-.13a21.3,21.3,0,0,0-.481-4.446l-.055-.13q-4.143,1.183-4.44.478l-.057-.135q.7-1.647,4.942-5.172A14.207,14.207,0,0,1,136.946,99.83Zm-2.025,6.582q.045,1.216.262,2.827,1.227-2.606,1.088-2.935Q136.108,105.913,134.921,106.412Zm2.225.146a1.139,1.139,0,0,0,.092.582l.11.261q.813,1.362,1.267,1.17l-.4-1.688Q137.935,106.225,137.146,106.558Z" transform="translate(-46.276 0)"/><path d="M140.506,103.1q.951-.4,1.718.807.614,1.458-1.568,4.632l-.052-.125q1.939-3.382,1.434-4.583-.312-.741-1.939-.252-4.417,3.309-3.623,5.194l-.131.055a.25.25,0,0,1-.371-.151l-.164-.391a9.174,9.174,0,0,1,3.38-4.325A3.419,3.419,0,0,1,140.506,103.1Zm-1.258,2.822.315.021q.614,2.9,3.226,10.57l-.131.054-.165-.391A73.474,73.474,0,0,1,139.248,105.925Z" transform="translate(-46.276 0)"/><path d="M143.306,103.516l.58-.244q.177-.075.653.267l.29.689a12.409,12.409,0,0,0,.123,1.577.859.859,0,0,0,.393-.031l1.679-1.794.051.12a6.284,6.284,0,0,1-1.748,1.953,7.534,7.534,0,0,1-.743.177,1.364,1.364,0,0,1-.859,1.173,2.42,2.42,0,0,1-.847-.725A2.831,2.831,0,0,1,143.306,103.516Zm-.242,2,.2.464c.088.143.2.187.325.133l.23-.1a2.311,2.311,0,0,0,.457-1.82l.231-.1-.1-.23c-.045-.109-.208-.175-.489-.2Q143.163,103.982,143.064,105.512Zm.619.827-.557-.037.1.231.357.526.115-.049a1.437,1.437,0,0,0,.767-1.405l-.12.051A1.4,1.4,0,0,1,143.683,106.339Z" transform="translate(-46.276 0)"/><path d="M149.24,101.123a6.51,6.51,0,0,0-.093,2.438l.057.135c.1.169.233.222.386.158a9.573,9.573,0,0,0,1.479-1.423q.173.408-1.365,1.694c-.419.016-.657-.043-.714-.179l-.172-.407a1.723,1.723,0,0,1-.071-.93l-.136.057a4.371,4.371,0,0,1-.629,1.544,1.166,1.166,0,0,0-.6.093q.09,1.56-.243,1.7a.132.132,0,0,0-.194-.079q.029-3.849.394-4l.057.136a12.726,12.726,0,0,0,.357,1.608q1.013-2.5,1.43-2.68Z" transform="translate(-46.276 0)"/><path d="M151.891,99.867l.167.4a5.347,5.347,0,0,0-.387,2.954l.2-.084q.69-.291,1.936-3.145a.19.19,0,0,0,.282.115l-.178,1.243.248.59.2-.083a17.65,17.65,0,0,0,2.323-1.672q.248.59-2.469,2.434a1.525,1.525,0,0,1-.726-.629l-.2.083-.857,1.3-.59.248a.38.38,0,0,1-.564-.229Q151.123,100.19,151.891,99.867Z" transform="translate(-46.276 0)"/><path d="M157.829,97.472l.147-.062c.139-.058.346.027.623.254l.062.146-.586.247q-1.76,1.152-1.165,2.563l.562.107,2.93-1.233q.143.339-2.307,1.486a1.386,1.386,0,0,1-1.478-.237l-.123-.293Q156.451,98.052,157.829,97.472Z" transform="translate(-46.276 0)"/><path d="M164.629,95.587q.131.309-3.26,2.627a.651.651,0,0,0-.421.035l-.554.233-.193-.195.133-.2q.875-.228,1.074-.311Q164.431,95.672,164.629,95.587Z" transform="translate(-46.276 0)"/><path d="M169.282,86.221l.136-.057.055.131q-5.639,4.542-6.826,6.585.272.642,4.046-.307a18.254,18.254,0,0,0-.164-3.337l.392-.165.056.13a7.481,7.481,0,0,0,.243,3.151l1.614-.213a2.466,2.466,0,0,0,.008-1.091l.131-.055a.282.282,0,0,1,.373.157c.047.6.027.916-.06.953a3.582,3.582,0,0,1,1.638,1.321l.167.4q.39,1.38.024,1.534l-.13.055a2.157,2.157,0,0,1-1.508-1.376l-.5-1.181a34.878,34.878,0,0,0-1.51,4.5l-.131.055-.055-.13a21.374,21.374,0,0,0-.481-4.446l-.055-.13q-4.144,1.183-4.441.478l-.057-.135q.7-1.647,4.942-5.172A14.246,14.246,0,0,1,169.282,86.221ZM167.257,92.8q.045,1.217.262,2.828,1.226-2.607,1.088-2.936Q168.442,92.305,167.257,92.8Zm2.225.146a1.138,1.138,0,0,0,.091.582l.111.261q.811,1.362,1.266,1.17l-.4-1.688Q170.271,92.617,169.482,92.949Z" transform="translate(-46.276 0)"/><path d="M172.842,89.493q.951-.4,1.717.808.613,1.458-1.567,4.632l-.053-.125q1.94-3.383,1.435-4.582-.312-.743-1.939-.253-4.417,3.309-3.624,5.194l-.13.055a.25.25,0,0,1-.371-.151l-.165-.391a9.176,9.176,0,0,1,3.381-4.325A3.423,3.423,0,0,1,172.842,89.493Zm-1.259,2.823.316.021q.613,2.9,3.225,10.57l-.13.055-.165-.392A73.682,73.682,0,0,1,171.583,92.316Z" transform="translate(-46.276 0)"/><path d="M175.642,89.907l.579-.244c.118-.05.337.039.653.267l.291.689a12.765,12.765,0,0,0,.122,1.577.881.881,0,0,0,.394-.03l1.678-1.8.051.12a6.271,6.271,0,0,1-1.748,1.953c-.059.025-.307.085-.742.178a1.367,1.367,0,0,1-.859,1.173,2.424,2.424,0,0,1-.847-.726A2.83,2.83,0,0,1,175.642,89.907Zm-.243,2,.2.464q.132.215.325.133l.23-.1a2.311,2.311,0,0,0,.457-1.82l.23-.1-.1-.23c-.046-.109-.208-.174-.49-.2C175.75,90.268,175.466,90.882,175.4,91.9Zm.62.827-.557-.037.1.231.356.526.115-.049A1.436,1.436,0,0,0,176.8,92l-.12.05A1.4,1.4,0,0,1,176.019,92.73Z" transform="translate(-46.276 0)"/><path d="M181.576,87.514a6.459,6.459,0,0,0-.093,2.437l.057.136c.1.169.232.222.386.157a9.532,9.532,0,0,0,1.479-1.422q.173.408-1.365,1.694c-.419.016-.658-.043-.715-.179l-.172-.407a1.732,1.732,0,0,1-.07-.93l-.137.058a4.347,4.347,0,0,1-.629,1.544,1.156,1.156,0,0,0-.6.092q.09,1.56-.243,1.7a.131.131,0,0,0-.193-.08q.027-3.849.394-4l.057.136a12.678,12.678,0,0,0,.357,1.608q1.013-2.5,1.43-2.68Z" transform="translate(-46.276 0)"/><path d="M184.706,86.129c.366-.055.6.04.706.287q-.319,2.325-1.453,2.8A8.47,8.47,0,0,0,185.071,87a.993.993,0,0,0-.036-.422l-.245.1q-1.243.522-1.127,2.521a1.065,1.065,0,0,0,1.179.378l2.79-2.048.1.245a20.322,20.322,0,0,1-2.715,1.875l-.622.262a1.138,1.138,0,0,1-1.039-.732q-.384-.912,1.222-3Z" transform="translate(-46.276 0)"/><path d="M190.14,76.409l.422-.178.06.141q.339,1.579-1.6,7.619a1.08,1.08,0,0,1,.037.482l.142-.059a2.816,2.816,0,0,1,1.145-.814c.917.073,1.47.338,1.66.789a2.053,2.053,0,0,1-.859,2.679q-1.343.345-1.973-1.154l-.119-.283-.141.059a1.12,1.12,0,0,1-.363.32,3.235,3.235,0,0,1,.21-1.078l-.06-.141-.141.059a11.946,11.946,0,0,1-1.281,2.857l-.119-.282.977-2.4a10.935,10.935,0,0,0,.631-4.4A38.7,38.7,0,0,1,190.14,76.409Zm-1.081,6.081a15.484,15.484,0,0,0,1.377-5.376l-.282.119Q188.831,80.869,189.059,82.49Zm.158,2.743q.929,1.929,1.534,1.673l.142-.059q1.086-.457.694-2.28l-.06-.14a1.285,1.285,0,0,0-1.417-.228l-.141.06A1.031,1.031,0,0,0,189.217,85.233Z" transform="translate(-46.276 0)"/><path d="M193.94,82.169l.167.4a5.363,5.363,0,0,0-.386,2.954l.2-.083q.689-.291,1.935-3.145a.191.191,0,0,0,.282.115l-.178,1.242.249.59.2-.083a17.639,17.639,0,0,0,2.322-1.672q.249.591-2.468,2.434a1.519,1.519,0,0,1-.726-.628l-.2.083-.856,1.3-.591.249a.381.381,0,0,1-.564-.23Q193.174,82.492,193.94,82.169Z" transform="translate(-46.276 0)"/><path d="M200.021,79.61l.135-.057.054.131a1.622,1.622,0,0,0-.007,1.092l.131-.055a11.457,11.457,0,0,0,.8-1.424l.266-.112.056.131-.576,1.95a2.325,2.325,0,0,0,.068.906,1.055,1.055,0,0,1,.3.337,21.107,21.107,0,0,0,2.274-2.353l.112.267a10.718,10.718,0,0,1-2.4,2.407l-.429-.286-.167-.4a2.478,2.478,0,0,1-.052-1.219c-.352.148-.564.134-.637-.039l-.262.11a5.14,5.14,0,0,1-1.119,1.4l-.056-.13A21.794,21.794,0,0,0,200.021,79.61Z" transform="translate(-46.276 0)"/><path d="M204.133,77.916l.58-.244q.177-.075.653.266l.29.69a12.635,12.635,0,0,0,.123,1.577.89.89,0,0,0,.393-.03l1.68-1.8.05.12a6.259,6.259,0,0,1-1.748,1.953,7.22,7.22,0,0,1-.743.177,1.364,1.364,0,0,1-.859,1.174,2.431,2.431,0,0,1-.846-.726A2.831,2.831,0,0,1,204.133,77.916Zm-.241,2,.195.464a.245.245,0,0,0,.326.133l.23-.1a2.315,2.315,0,0,0,.457-1.82l.23-.1-.1-.23c-.044-.109-.208-.175-.489-.2Q203.99,78.381,203.892,79.912Zm.618.827-.557-.037.1.231.356.526.115-.049a1.435,1.435,0,0,0,.767-1.4l-.119.05A1.4,1.4,0,0,1,204.51,80.739Z" transform="translate(-46.276 0)"/><rect class="cls-19" x="254.488" y="56.165" width="92.825" height="42.263" rx="2.464" transform="translate(-36.775 -30.417) rotate(5.88)"/><line class="cls-19" x1="209.517" y1="62.239" x2="301.853" y2="71.747"/><line class="cls-21" x1="239.645" y1="56.368" x2="238.913" y2="63.475"/><line class="cls-21" x1="256.111" y1="58.064" x2="255.38" y2="65.17"/><line class="cls-21" x1="238.534" y1="67.153" x2="235.642" y2="95.24"/><line class="cls-21" x1="255.001" y1="68.849" x2="252.108" y2="96.936"/><path d="M261.192,54.818l.219.023-.008.073-.632,1.118a13.407,13.407,0,0,0-1.353,2.374l-.03.294.057.153-.153.058a.786.786,0,0,1-.11-.38,14.19,14.19,0,0,1,1.37-2.521l.007-.073q-2.583,2.126-2.619,2.466c-.215.57-.393.847-.531.832l-.145-.015c-.071-.007-.136-.087-.2-.241q.029-.26.856-1.1l.735-2.142a15.2,15.2,0,0,1-1.643,1.6l-.073-.008.008-.072a12.659,12.659,0,0,0,2.262-2.577l.145.015-.03.294a8.5,8.5,0,0,0-1.163,2.69l.073.007Q261.074,55.422,261.192,54.818Zm-3.634,3.693a.879.879,0,0,1-.191.426l.072.007c.1.01.186-.13.264-.418Z" transform="translate(-46.276 0)"/><path d="M261.188,57.61l.324.033c.066.007.141.1.229.283l-.039.385a6.484,6.484,0,0,0-.337.746.485.485,0,0,0,.187.084l1.207-.4-.007.067a3.241,3.241,0,0,1-1.278.451,3.8,3.8,0,0,1-.381-.1.708.708,0,0,1-.681.319,1.288,1.288,0,0,1-.2-.539A1.466,1.466,0,0,1,261.188,57.61Zm-.531,1.374-.243-.155-.014.129.033.326.064.007a.743.743,0,0,0,.7-.446l-.067-.007A.722.722,0,0,1,260.657,58.984Zm-.074-.529-.026.259c0,.087.042.134.114.141l.128.014q.332-.069.659-.713l.128.013.014-.128c0-.061-.051-.131-.173-.212Q261.007,57.786,260.583,58.455Z" transform="translate(-46.276 0)"/><path d="M263.294,57.971l.094.009-.029.274-.542.773-.008.09.093.009,1.083-.715.184.019-.009.09-.156.629a.648.648,0,0,0,.346.221,8.155,8.155,0,0,1,1.31-.233,2.12,2.12,0,0,1-1.693.376,1.971,1.971,0,0,1-.209-.666,11.344,11.344,0,0,0-1.277.79l-.174-.109A5.6,5.6,0,0,1,263.294,57.971Z" transform="translate(-46.276 0)"/><path d="M267.079,57.454q.531.054.579.793-.084.813-1.861,1.711l.007-.07q1.719-1.051,1.788-1.721c.028-.276-.243-.476-.816-.6q-2.825.4-2.933,1.456l-.073-.007a.129.129,0,0,1-.13-.162l.022-.217a4.737,4.737,0,0,1,2.608-1.122A1.753,1.753,0,0,1,267.079,57.454Zm-1.271.967.138.088q-.444,1.468-1.162,5.594l-.073-.007.022-.219A38.221,38.221,0,0,1,265.808,58.421Z" transform="translate(-46.276 0)"/><path d="M268.246,58.337l.324.033c.065.007.142.1.229.283l-.039.385a6.362,6.362,0,0,0-.336.746.457.457,0,0,0,.186.083l1.206-.4-.006.067a3.258,3.258,0,0,1-1.278.451c-.033,0-.16-.038-.381-.1a.706.706,0,0,1-.68.319,1.257,1.257,0,0,1-.2-.539A1.465,1.465,0,0,1,268.246,58.337Zm-.53,1.374-.243-.155-.014.129.032.326.064.007a.744.744,0,0,0,.7-.447l-.067-.007A.719.719,0,0,1,267.716,59.711Zm-.075-.529-.028.258c0,.088.044.135.116.143l.128.013q.331-.069.66-.713l.128.013.013-.128c.006-.06-.052-.131-.173-.212Q268.067,58.513,267.641,59.182Z" transform="translate(-46.276 0)"/><path d="M273.625,55.348l.236.024-.007.079a10.915,10.915,0,0,1-2.616,3.058.574.574,0,0,1-.1.228l.078.009a1.442,1.442,0,0,1,.722-.085c.4.26.583.517.556.77a1.061,1.061,0,0,1-1.054,1q-.694-.178-.609-1.015l.017-.157-.078-.008a.593.593,0,0,1-.245.055,1.642,1.642,0,0,1,.363-.437l.008-.079-.079-.008a6.165,6.165,0,0,1-1.29.977l.016-.157,1.038-.844a5.645,5.645,0,0,0,1.379-1.841A20.309,20.309,0,0,1,273.625,55.348Zm-2.608,3.772q-.058,1.1.28,1.139l.079.008q.606.063.88-.86l.008-.079a.665.665,0,0,0-.586-.455l-.079-.008A.531.531,0,0,0,271.017,59.12Zm.609-1.284a8,8,0,0,0,1.959-2.095l-.157-.016A6.512,6.512,0,0,0,271.626,57.836Z" transform="translate(-46.276 0)"/><path d="M274.3,58.893l.175.018-.01.088a2.519,2.519,0,0,1-.726,1.064l-.044.435.175.018a14.587,14.587,0,0,0,2.085-.663,4.084,4.084,0,0,1-2.19.829l-.088-.01-.32-.3c-.008.085-.233.267-.672.546l-.258-.027.008-.087.132-.426.435.045q.306-.03,1.019-1.385Z" transform="translate(-46.276 0)"/><path d="M276.856,59.241c.18.066.262.167.248.3q-.721.975-1.354.91a4.4,4.4,0,0,0,1.057-.731.536.536,0,0,0,.088-.2l-.138-.014q-.693-.072-1.137.863c.088.288.234.443.441.464l1.774-.235-.014.136a10.493,10.493,0,0,1-1.7.176l-.347-.036a.587.587,0,0,1-.289-.589c.034-.34.468-.692,1.3-1.056Z" transform="translate(-46.276 0)"/><path d="M279.639,59.56a3.37,3.37,0,0,0-.648,1.082l-.008.076c.006.1.05.158.136.167a4.826,4.826,0,0,0,1.025-.278q-.024.228-1.04.43c-.195-.1-.288-.183-.28-.259l.024-.227a.886.886,0,0,1,.2-.439l-.076-.008c-.006.064-.23.245-.669.543a.591.591,0,0,0-.3-.106q-.346.729-.533.71a.066.066,0,0,0-.067-.083q.967-1.738,1.172-1.717l-.008.076a6.571,6.571,0,0,0-.238.818q1.083-.885,1.314-.861Z" transform="translate(-46.276 0)"/><path d="M281.152,59.648l-.022.222q-.869.845-.909,1.243l.11.012q.385.039,1.659-.946a.1.1,0,0,0,.1.122l-.389.52-.034.329.11.012a9.169,9.169,0,0,0,1.469-.182c-.022.22-.6.383-1.724.491a.781.781,0,0,1-.172-.466l-.112-.011-.71.375-.329-.034a.2.2,0,0,1-.2-.245Q280.724,59.605,281.152,59.648Z" transform="translate(-46.276 0)"/><path d="M284.538,60.032c.18.066.263.168.248.306q-.721.974-1.353.909a4.386,4.386,0,0,0,1.055-.731.513.513,0,0,0,.088-.2l-.137-.014q-.693-.072-1.137.864c.089.287.235.442.441.463l1.774-.235-.014.137a10.573,10.573,0,0,1-1.7.175l-.347-.036a.586.586,0,0,1-.289-.589q.051-.51,1.3-1.056Z" transform="translate(-46.276 0)"/><path d="M293.675,57.5l-.023.215a17.717,17.717,0,0,0-2.933,3.174,1.556,1.556,0,0,0,1.408,1.088l-.015.142-.07-.007a2.211,2.211,0,0,1-1.487-1.022l-.074-.008a8.171,8.171,0,0,1-.872,1.431l-.142-.015,1.111-3.072-.553.449-.142-.015.014-.142q.143.015.633-.515a2.713,2.713,0,0,0,.605-.951l.142.015-.007.072-.858,2.012.263.245A31.188,31.188,0,0,1,293.675,57.5Zm-3.3,3.209a1.269,1.269,0,0,1-.345.542l-.022.216c.058.006.223-.2.5-.6A.127.127,0,0,0,290.375,60.71Z" transform="translate(-46.276 0)"/><path d="M293.679,60.579l.175.018-.01.088a2.526,2.526,0,0,1-.726,1.065l-.044.434.176.018a14.366,14.366,0,0,0,2.085-.663,4.069,4.069,0,0,1-2.191.829l-.088-.009-.32-.3c-.008.085-.233.268-.671.546l-.259-.027.008-.087.133-.425.434.044q.306-.03,1.02-1.384Z" transform="translate(-46.276 0)"/><path d="M295.752,60.86l.324.034c.067.006.142.1.23.283l-.039.385a6.484,6.484,0,0,0-.337.746.477.477,0,0,0,.186.083l1.207-.4-.007.067a3.249,3.249,0,0,1-1.278.452c-.032,0-.16-.038-.38-.1a.709.709,0,0,1-.681.319,1.293,1.293,0,0,1-.2-.54A1.467,1.467,0,0,1,295.752,60.86Zm-.53,1.374-.243-.154-.014.128.032.327.065.007a.744.744,0,0,0,.7-.447l-.067-.007A.725.725,0,0,1,295.222,62.234Zm-.075-.529-.026.259c0,.088.042.135.114.142l.128.013q.332-.069.659-.713l.128.014.014-.128c.006-.061-.051-.131-.173-.212Q295.573,61.037,295.147,61.705Z" transform="translate(-46.276 0)"/><path d="M298.447,61.17l.082.009c.077.008.151.1.219.27l-.008.081-.326-.033q-1.085.086-1.165.872l.229.189,1.634.169c-.012.126-.485.159-1.416.1a.714.714,0,0,1-.61-.475l.017-.164Q297.678,61.093,298.447,61.17Z" transform="translate(-46.276 0)"/><path d="M300.3,61.361l.082.009c.077.007.151.1.219.27l-.008.081-.326-.033q-1.085.085-1.165.872l.228.189,1.635.168q-.02.189-1.416.1a.717.717,0,0,1-.61-.476l.016-.163Q299.529,61.282,300.3,61.361Z" transform="translate(-46.276 0)"/><path d="M313.251,57.275q.107.012.09.174a6.7,6.7,0,0,0-1.7,3.362l-.054-.006.033-.323a5.727,5.727,0,0,1,.473-1.421,18.091,18.091,0,0,1-1.767,1.833l-.055-.006a.1.1,0,0,1-.1-.118,8.964,8.964,0,0,1,1.044-2.725l.006-.053-.057-.006c-.011.105-.134.238-.367.4l-.055-.006a4.11,4.11,0,0,1,.857-.893l.107.011-.012.109a7.417,7.417,0,0,0-1.333,2.911l-.016.16a12.027,12.027,0,0,0,2.61-3.159C312.959,57.469,313.058,57.389,313.251,57.275Z" transform="translate(-46.276 0)"/><path d="M313.418,59.9l.123.012c.078.022.114.067.107.134l-.031.3a.9.9,0,0,0-.365.576c.188.019.281.315.276.888a13.056,13.056,0,0,1,1.314-.847l-.012.121q-1.488.755-1.6,1.8-1.536,3.586-2.447,3.493l-.243-.025a.586.586,0,0,1-.314-.523q.119-1.143,2.83-3.639a.561.561,0,0,0,.359-.515q-.015-.675-.478-.724l.007-.06a1.77,1.77,0,0,0,.573-.8.439.439,0,0,0-.175-.08q-.767.271-.818.775l-.059-.006c.012-.121,0-.184-.043-.188Q312.927,59.846,313.418,59.9Zm-2.926,5.775-.024.243a.391.391,0,0,0,.338.281q.986.1,2.423-3.864l.006-.061A7.268,7.268,0,0,0,310.492,65.672Z" transform="translate(-46.276 0)"/><path d="M316.237,59.834l.066.007-.013.131a4.057,4.057,0,0,1-.561.934l-.006.065.125.079.979-1.155.067.006a2.988,2.988,0,0,1-.481.81l-.027.262c-.009.088.051.138.183.152l.694-.326-.007.065a.962.962,0,0,1-.767.385l-.066-.007c-.117-.012-.172-.128-.162-.347l-.066-.007c-.247.239-.39.357-.433.352-.117-.012-.173-.128-.163-.348l-.066-.006-.562.339-.262-.027.013-.131c.053-.259.133-.384.236-.374a.636.636,0,0,1,.032.335l.067.007a2.14,2.14,0,0,0,1.043-1.149Z" transform="translate(-46.276 0)"/><path d="M318.375,60.118c.15.054.22.139.207.255q-.6.812-1.128.757a3.664,3.664,0,0,0,.879-.609.424.424,0,0,0,.074-.167l-.114-.011c-.386-.04-.7.2-.948.719.074.24.2.369.368.386l1.477-.2-.011.115a8.877,8.877,0,0,1-1.413.146l-.288-.03a.489.489,0,0,1-.244-.491q.045-.424,1.083-.88Z" transform="translate(-46.276 0)"/><path d="M320.564,59.693q.441.045.482.661-.07.677-1.551,1.425l.007-.058q1.432-.876,1.489-1.434.036-.345-.68-.5-2.353.336-2.444,1.213l-.06-.006a.109.109,0,0,1-.11-.135l.019-.181a3.946,3.946,0,0,1,2.174-.935A1.475,1.475,0,0,1,320.564,59.693Zm-1.06.806.116.073a47.421,47.421,0,0,0-.97,4.662l-.059-.006.018-.182A31.576,31.576,0,0,1,319.5,60.5Z" transform="translate(-46.276 0)"/><path d="M321.936,60.484c.149.055.219.14.207.255q-.6.812-1.128.757a3.68,3.68,0,0,0,.879-.608.452.452,0,0,0,.074-.167l-.114-.012c-.386-.04-.7.2-.949.72q.111.358.368.386l1.478-.2-.012.114a8.806,8.806,0,0,1-1.413.147l-.289-.03a.489.489,0,0,1-.242-.491q.043-.425,1.083-.88Z" transform="translate(-46.276 0)"/><path d="M324.255,60.75a2.777,2.777,0,0,0-.54.9l-.007.063c0,.085.043.132.113.139a4.06,4.06,0,0,0,.854-.231c-.013.127-.3.245-.866.357-.163-.08-.24-.151-.233-.215l.02-.189a.727.727,0,0,1,.165-.367L323.7,61.2c-.006.054-.191.2-.557.453a.5.5,0,0,0-.246-.089c-.192.406-.34.6-.444.593a.056.056,0,0,0-.056-.07q.808-1.448.976-1.431l-.007.063a5.43,5.43,0,0,0-.2.682q.9-.737,1.1-.716Z" transform="translate(-46.276 0)"/><path d="M326.134,60.944a2.776,2.776,0,0,0-.539.9l-.007.063c0,.085.043.132.113.139a4.027,4.027,0,0,0,.854-.232c-.013.127-.3.246-.867.358-.162-.08-.239-.152-.232-.216l.02-.189a.721.721,0,0,1,.165-.366l-.064-.007c-.006.054-.191.206-.557.454a.5.5,0,0,0-.247-.089c-.191.406-.339.6-.444.593a.056.056,0,0,0-.056-.07q.808-1.449.977-1.431l-.007.063a5.331,5.331,0,0,0-.2.682q.9-.738,1.1-.717Z" transform="translate(-46.276 0)"/><path d="M327.2,61.112l.113.012a6.638,6.638,0,0,0-.591.69c.343.036.506.129.491.282l-.006.055q.173.02.769-.728l.245-.146.114.012-.018.169-.58.576-.011.114c0,.078.039.12.1.127a2.109,2.109,0,0,1,.651-.164l.059.006a1.146,1.146,0,0,1-.837.26l-.211-.2a3.085,3.085,0,0,1-1.079.409l-.1-.184A2.346,2.346,0,0,1,327.2,61.112Zm-.759,1.192c-.007.076.046.119.161.131l.055.006.006-.056Zm.19-.153-.006.056c.076.008.112.031.108.07.195-.029.295-.077.3-.143l.012-.114-.055-.006C326.761,62.029,326.641,62.075,326.633,62.151Z" transform="translate(-46.276 0)"/><path d="M329.568,61.271c.15.054.22.139.207.254q-.6.812-1.129.757a3.615,3.615,0,0,0,.88-.608.435.435,0,0,0,.075-.167l-.116-.012c-.385-.039-.7.2-.947.72q.109.358.368.386l1.478-.2-.012.114a8.814,8.814,0,0,1-1.414.147l-.288-.03a.487.487,0,0,1-.242-.491q.043-.426,1.082-.881Z" transform="translate(-46.276 0)"/><path d="M320.82,66.428a2.827,2.827,0,0,0-.539.9l-.007.063c0,.086.043.132.115.139a4.059,4.059,0,0,0,.852-.231c-.012.127-.3.245-.866.358-.161-.081-.239-.153-.233-.216l.019-.189a.757.757,0,0,1,.165-.366l-.062-.006q-.007.079-.558.452a.491.491,0,0,0-.245-.088c-.192.405-.341.6-.444.592a.056.056,0,0,0-.057-.069c.538-.966.862-1.443.978-1.432l-.007.064a5.379,5.379,0,0,0-.2.681q.9-.737,1.095-.717Z" transform="translate(-46.276 0)"/><path d="M321.892,66.5l.269.028c.055,0,.118.084.192.235l-.033.321a5.114,5.114,0,0,0-.28.622.382.382,0,0,0,.154.069l1.006-.331,0,.056a2.711,2.711,0,0,1-1.065.377q-.04,0-.318-.087a.586.586,0,0,1-.567.265,1.061,1.061,0,0,1-.17-.449A1.218,1.218,0,0,1,321.892,66.5Zm-.442,1.145-.2-.129-.011.107.026.272.052.006a.621.621,0,0,0,.582-.372l-.056-.006A.6.6,0,0,1,321.45,67.642Zm-.063-.441-.023.216c0,.073.036.112.1.118l.106.011c.184-.039.367-.236.55-.594l.107.011.01-.107c0-.05-.043-.109-.143-.176Q321.74,66.643,321.387,67.2Z" transform="translate(-46.276 0)"/><path d="M323.646,66.8l.078.008-.024.228-.451.644-.008.075.078.008.9-.6.152.016-.008.075-.129.524a.532.532,0,0,0,.287.184,6.993,6.993,0,0,1,1.092-.194,1.769,1.769,0,0,1-1.41.314,1.656,1.656,0,0,1-.175-.556,9.883,9.883,0,0,0-1.063.659l-.146-.091A4.669,4.669,0,0,1,323.646,66.8Z" transform="translate(-46.276 0)"/><path d="M326.8,66.367c.294.03.455.25.481.66q-.069.678-1.551,1.426l.006-.057q1.434-.877,1.492-1.435.035-.345-.682-.5-2.352.338-2.443,1.214l-.061-.006a.108.108,0,0,1-.109-.134l.019-.183a3.956,3.956,0,0,1,2.172-.934A1.485,1.485,0,0,1,326.8,66.367Zm-1.06.806.114.073q-.368,1.224-.968,4.662l-.061-.006.02-.182A31.843,31.843,0,0,1,325.741,67.173Z" transform="translate(-46.276 0)"/><path d="M327.773,67.1l.27.027c.056.006.118.085.191.236l-.033.321a5.308,5.308,0,0,0-.279.621.367.367,0,0,0,.154.07l1.006-.331-.006.056a2.673,2.673,0,0,1-1.064.376c-.028,0-.133-.032-.319-.086a.583.583,0,0,1-.566.265,1.058,1.058,0,0,1-.17-.449A1.219,1.219,0,0,1,327.773,67.1Zm-.441,1.145-.2-.129-.011.107.025.272.054,0c.219.023.412-.1.581-.371l-.056-.006A.607.607,0,0,1,327.332,68.248Zm-.062-.441-.023.215c0,.074.035.112.1.119l.106.01c.184-.038.367-.235.55-.593l.106.011.011-.107c0-.05-.042-.109-.143-.177Q327.622,67.249,327.27,67.807Z" transform="translate(-46.276 0)"/><path d="M332.257,64.611l.2.021-.007.066a9.119,9.119,0,0,1-2.178,2.549.5.5,0,0,1-.087.19l.066.006a1.209,1.209,0,0,1,.6-.07c.331.217.485.431.464.641a.886.886,0,0,1-.879.835q-.579-.147-.507-.845l.013-.131-.065-.007a.479.479,0,0,1-.2.046,1.4,1.4,0,0,1,.3-.365l.006-.065-.065-.007a5.105,5.105,0,0,1-1.076.815l.014-.131.866-.7a4.722,4.722,0,0,0,1.148-1.533A16.859,16.859,0,0,1,332.257,64.611Zm-2.175,3.144c-.033.614.046.93.233.949l.066.007q.506.052.734-.717l.007-.065a.557.557,0,0,0-.489-.38l-.066-.007A.445.445,0,0,0,330.082,67.755Zm.508-1.069a6.69,6.69,0,0,0,1.633-1.747l-.133-.013A5.421,5.421,0,0,0,330.59,66.686Z" transform="translate(-46.276 0)"/><path d="M332.821,67.566l.146.015-.008.073a2.114,2.114,0,0,1-.605.887l-.037.362.146.015a11.9,11.9,0,0,0,1.738-.552,3.4,3.4,0,0,1-1.826.691l-.073-.008-.265-.248c-.008.071-.2.223-.561.455l-.217-.022.008-.073.111-.355.361.038q.255-.025.85-1.155Z" transform="translate(-46.276 0)"/><path d="M334.947,67.856c.151.055.22.14.208.255q-.6.811-1.128.757a3.664,3.664,0,0,0,.879-.609.412.412,0,0,0,.074-.166l-.114-.012c-.386-.04-.7.2-.948.719.074.241.195.369.367.387l1.479-.2-.012.114a8.633,8.633,0,0,1-1.414.146l-.289-.029a.491.491,0,0,1-.241-.492q.043-.425,1.082-.879Z" transform="translate(-46.276 0)"/><path d="M337.268,68.122a2.777,2.777,0,0,0-.54.9l-.007.063c0,.086.043.133.114.14a4.076,4.076,0,0,0,.853-.231q-.019.189-.867.358c-.162-.081-.239-.153-.233-.216l.019-.189a.753.753,0,0,1,.165-.366l-.062-.007c0,.053-.19.2-.558.453a.5.5,0,0,0-.245-.089c-.192.406-.341.6-.444.592a.056.056,0,0,0-.057-.069q.807-1.448.977-1.431l-.006.063a5.291,5.291,0,0,0-.2.681c.6-.491.966-.73,1.094-.716Z" transform="translate(-46.276 0)"/><path d="M338.527,68.195l-.018.185q-.723.7-.756,1.037l.092.009q.321.033,1.382-.788a.082.082,0,0,0,.083.1l-.326.433-.028.274.093.01a7.587,7.587,0,0,0,1.222-.152q-.027.274-1.435.409a.653.653,0,0,1-.144-.387l-.093-.01-.592.312-.274-.028a.164.164,0,0,1-.165-.2Q338.171,68.158,338.527,68.195Z" transform="translate(-46.276 0)"/><path d="M341.618,68.406c.117.011.167.095.151.251l-.623,1.469-.03.292a.1.1,0,0,1-.1-.128l.011-.117a4.1,4.1,0,0,1,.271-.917q-1.088.6-1.124.594L340,69.832l.013-.117a3.344,3.344,0,0,0,1.438-.8l-.122.047-.058-.007a.1.1,0,0,1-.105-.128l.007-.058A.362.362,0,0,1,341.618,68.406Zm-.257.209-.017.175c.2-.082.306-.15.314-.2l-.116-.012A.443.443,0,0,1,341.361,68.615Z" transform="translate(-46.276 0)"/></svg>