<svg id="orange" xmlns="http://www.w3.org/2000/svg" viewBox="0 0 57.969 42.876"><path d="M26.572,8.562v2.711Q14.446,18.249,11.6,28.967a10.52,10.52,0,0,1,5.6-2,8.969,8.969,0,0,1,7.089,3.391,12.344,12.344,0,0,1,2.892,8.294,12.171,12.171,0,0,1-3.8,9.107,12.937,12.937,0,0,1-9.351,3.681,11.422,11.422,0,0,1-9.28-4.683A18.1,18.1,0,0,1,1.016,35.1q0-9.819,7.509-17.6A28.813,28.813,0,0,1,26.572,8.562Zm31.807,0v2.711q-12.128,6.976-14.97,17.694a10.572,10.572,0,0,1,5.641-2,8.927,8.927,0,0,1,7.044,3.391,12.337,12.337,0,0,1,2.89,8.294,12.207,12.207,0,0,1-3.777,9.107,12.857,12.857,0,0,1-9.327,3.681,11.405,11.405,0,0,1-9.3-4.683A18.187,18.187,0,0,1,32.867,35.1q0-9.819,7.487-17.6A28.717,28.717,0,0,1,58.379,8.562Z" transform="translate(-1.016 -8.562)" style="fill:#d4d4d4"/></svg>