<svg xmlns="http://www.w3.org/2000/svg" viewBox="0 0 488.415 420.415"><defs><style>.cls-1{fill:#fff;fill-rule:evenodd;}</style></defs><g id="Слой_1" data-name="Слой 1"><path class="cls-1" d="M453.14,42.135,16.524,231.211a17.643,17.643,0,0,0-9.509,22.734,17.282,17.282,0,0,0,9.509,9.75l81.231,26.238a87.115,87.115,0,0,0,76.763-12.078L358.506,147.5a6.422,6.422,0,0,1,8.756,2.865,6.8,6.8,0,0,1-.633,7.13L225.694,295.763a35.615,35.615,0,0,0-.453,49.472,34.35,34.35,0,0,0,4.92,4.252l151.5,104.95a33.608,33.608,0,0,0,47.258-9.975,35.5,35.5,0,0,0,5.136-13.347l59.7-355.663c2.832-16.537-7.947-32.3-24.075-35.2A28.976,28.976,0,0,0,453.14,42.135Z" transform="translate(-5.792 -39.792)"/></g></svg>