<svg id="Слой_2" data-name="Слой 2" xmlns="http://www.w3.org/2000/svg" viewBox="0 0 190.6 117.191"><defs><style>.cls-1{fill:#8b3ffd;}</style></defs><path class="cls-1" d="M295.3,208.6a50,50,0,1,0,50,50A50,50,0,0,0,295.3,208.6Zm0,69a19,19,0,1,1,19-19A19,19,0,0,1,295.3,277.6Z" transform="translate(-154.7 -191.405)"/><path class="cls-1" d="M216.419,302.631,192.4,226.053a8.513,8.513,0,0,0-8.122-5.965H163.212a8.512,8.512,0,0,1-8.512-8.513V199.917a8.512,8.512,0,0,1,8.512-8.512h94.813a8.513,8.513,0,0,1,8.513,8.512v11.658a8.513,8.513,0,0,1-8.513,8.513H239.443a8.512,8.512,0,0,0-8.122,11.059l20.756,66.176a8.513,8.513,0,0,1-8.029,11.06l-19.414.212A8.512,8.512,0,0,1,216.419,302.631Z" transform="translate(-154.7 -191.405)"/></svg>