<svg xmlns="http://www.w3.org/2000/svg" xmlns:xlink="http://www.w3.org/1999/xlink" viewBox="0 0 440 320"><defs><style>.cls-1{isolation:isolate;}.cls-2{fill:url(#radial-gradient);}.cls-3{fill:#4ca0fe;}.cls-4{fill:#696969;}.cls-5{fill:#ababab;}.cls-6,.cls-7{mix-blend-mode:multiply;}.cls-6{fill:url(#radial-gradient-2);}.cls-7{fill:url(#radial-gradient-3);}.cls-8{fill:none;}.cls-10,.cls-9{fill:#0a2540;}.cls-10{stroke:#000;stroke-miterlimit:10;stroke-width:0.75px;}</style><radialGradient id="radial-gradient" cx="175.856" cy="109.744" r="416.917" gradientTransform="translate(-44.853 -17.528) scale(1.04 1.029)" gradientUnits="userSpaceOnUse"><stop offset="0.251" stop-color="#f1f1f1"/><stop offset="1" stop-color="#fff"/></radialGradient><radialGradient id="radial-gradient-2" cx="-36.868" cy="4192.364" r="72.765" gradientTransform="translate(230.664 -952.331) scale(2.207 0.254)" gradientUnits="userSpaceOnUse"><stop offset="0.306" stop-color="#b5c3d1"/><stop offset="0.385" stop-color="#c1cdd8"/><stop offset="0.644" stop-color="#e3e8ed"/><stop offset="0.858" stop-color="#f7f9fa"/><stop offset="1" stop-color="#fff"/></radialGradient><radialGradient id="radial-gradient-3" cx="-739.607" cy="165.303" r="72.765" gradientTransform="translate(99.952 -1485.196) rotate(-90) scale(2.22 0.253)" xlink:href="#radial-gradient-2"/></defs><g class="cls-1"><g id="Слой_1" data-name="Слой 1"><rect class="cls-2" width="440" height="316.826"/><rect class="cls-3" x="44.119" y="107.046" width="91.936" height="92.489"/><rect class="cls-4" x="44.119" y="51.152" width="147.489" height="55.886"/><rect class="cls-5" x="136.055" y="51.152" width="55.552" height="55.886"/><path class="cls-6" d="M302.171,107.039c-20.807-7.434-81.381-12.812-152.877-12.812S17.223,99.605-3.584,107.039Z"/><path class="cls-7" d="M136.055,3.174c-7.389,20.932-12.735,81.87-12.735,153.8s5.346,132.864,12.735,153.8Z"/><rect id="SVGID" class="cls-8" x="7.265" y="16.851" width="410" height="299.974"/><path class="cls-9" d="M171.169,211.688q0,.558-3.131,5.766l-2.356,3.905a5.726,5.726,0,0,1,1.116-.681,2.789,2.789,0,0,1,1.178-.31,1.382,1.382,0,0,1,1.023.372,1.66,1.66,0,0,1,.372,1.209,9.418,9.418,0,0,1-2.139,5.363q-2.139,2.945-3.844,2.945a1.971,1.971,0,0,1-1.612-.837,1.758,1.758,0,0,1-.527.837,1.176,1.176,0,0,1-.775.372c-.268-.041-.4-.269-.4-.682a15.27,15.27,0,0,1,1.488-3.534q1.611-3.008,3.224-6.015,2.139-4.09,3.6-7.346a4.952,4.952,0,0,1,1.054-1.6,1.6,1.6,0,0,1,1.023-.512.659.659,0,0,1,.527.218A.782.782,0,0,1,171.169,211.688Zm-3.441,11.222q0-.992-.651-.992t-1.736,1.209a26.41,26.41,0,0,0-1.612,2.139q-.744,1.488-1.457,2.945a1.287,1.287,0,0,0,.961.558q1.084,0,2.79-2.155A6.435,6.435,0,0,0,167.728,222.91Z"/><path class="cls-9" d="M183.754,213.052c0,.557-.484,1-1.457,1.333a6.645,6.645,0,0,1-2.2.4,6.537,6.537,0,0,0,1.4,1.859,1.565,1.565,0,0,1,.527.869.59.59,0,0,1-.17.4.582.582,0,0,1-.45.185,2.037,2.037,0,0,1-1.441-.9,5.743,5.743,0,0,1-1.1-1.953c-.269.061-.6.4-.992,1.022q-1.177,1.8-1.674,1.675-.651-.093-.65-.682a2.885,2.885,0,0,1,.821-1.674,4.48,4.48,0,0,1,1.535-1.3A7.086,7.086,0,0,0,176,212.9q-.93-.525-.806-1.053.093-.528.558-.528a3.615,3.615,0,0,1,1.612.683q.621.434,1.24.837a7.539,7.539,0,0,0,.233-1.55q.139-1.4,1.008-1.4c.433,0,.651.31.651.929a4.763,4.763,0,0,1-.2,1.272,7.031,7.031,0,0,1-.449,1.209c.062.1.2.155.4.155a3.5,3.5,0,0,0,1.054-.217,12.9,12.9,0,0,1,1.953-.558C183.588,212.68,183.754,212.8,183.754,213.052Z"/><path class="cls-9" d="M192.373,221.174a2.735,2.735,0,0,1-1.055,2.077,4.248,4.248,0,0,1-2.944,1.054,1.209,1.209,0,0,1-.667-.17.422.422,0,0,1-.232-.419c0-.31.381-.528,1.147-.652a2.484,2.484,0,0,0,1.426-.557,1.334,1.334,0,0,0,.527-.992q0-.681-.868-.682a3.206,3.206,0,0,0-2.155.85,2.516,2.516,0,0,0-.976,1.931,6.1,6.1,0,0,0,.7,2.04,6.518,6.518,0,0,1,.7,2.75,2.43,2.43,0,0,1-.652,1.778,2.856,2.856,0,0,1-2.107.664,2.507,2.507,0,0,1-2.062-.853,3.245,3.245,0,0,1-.7-2.123,3.842,3.842,0,0,1,.465-1.876q.465-.852,1.116-.852.341,0,.341.31a1.1,1.1,0,0,1-.155.527,2.367,2.367,0,0,0-.4,1.24,2.71,2.71,0,0,0,.435,1.488,1.194,1.194,0,0,0,.961.682q1.4,0,1.394-1.144a3.185,3.185,0,0,0-.309-1.282,9.575,9.575,0,0,0-.837-1.468,3.744,3.744,0,0,1-.465-1.73,3.839,3.839,0,0,1,1.611-3.06,5.437,5.437,0,0,1,3.473-1.3,2.587,2.587,0,0,1,1.7.495A1.591,1.591,0,0,1,192.373,221.174Z"/><path class="cls-9" d="M196.371,220.9a1.547,1.547,0,0,1-.4.96,19.554,19.554,0,0,0-2.17,3.8,19,19,0,0,0-1.52,3.86q-.186,1.054-.837.992c-.165,0-.309-.113-.433-.341a1.53,1.53,0,0,1-.187-.744,10.2,10.2,0,0,1,1.426-4.278,28,28,0,0,1,2.729-4.278,2.615,2.615,0,0,1,.387-.372.8.8,0,0,1,.511-.186A.522.522,0,0,1,196.371,220.9Zm3.193-5.829a2.284,2.284,0,0,1-.759,1.536,2.065,2.065,0,0,1-1.318.79c-.433,0-.651-.258-.651-.775a2.33,2.33,0,0,1,.744-1.519,2.005,2.005,0,0,1,1.3-.806C199.337,214.292,199.564,214.551,199.564,215.066Z"/><path class="cls-9" d="M204.835,221.267a2.653,2.653,0,0,1-.589,1.209q-1.83,2.572-1.923,2.79a18.988,18.988,0,0,0-.837,1.922,6.539,6.539,0,0,0-.433,2.077,2.279,2.279,0,0,0,.185.961,3.564,3.564,0,0,1,.4,1.085q0,.619-.558.62a1.422,1.422,0,0,1-1.085-.744,2.975,2.975,0,0,1-.527-1.767,9.034,9.034,0,0,1,.5-2.7,13.132,13.132,0,0,1,.868-2.17,9.683,9.683,0,0,0-2.542,2.7q-1.892,2.913-2.573,2.914c-.352,0-.506-.186-.465-.559a7.8,7.8,0,0,1,1.022-2.666q.5-.958,1.148-2.169,2.139-3.906,2.7-3.906.681,0,.682.558a3.423,3.423,0,0,1-.589,1.457q-.435.713-.837,1.426.216-.218,1.829-1.737,1.767-1.7,2.82-1.7Q204.772,220.864,204.835,221.267Z"/><path class="cls-9" d="M220.8,208.557a1.215,1.215,0,0,1-.4.868,39.734,39.734,0,0,0-8.742,11.129,37.767,37.767,0,0,0-3.967,12.059,6,6,0,0,1-.217,1.891,1.053,1.053,0,0,1-.992.806.418.418,0,0,1-.4-.294,2.08,2.08,0,0,1-.124-.791,5.061,5.061,0,0,1,.077-.806,4.547,4.547,0,0,1,.2-.806,26.661,26.661,0,0,1,2.6-11.625,31.419,31.419,0,0,1,5.519-7.905q1.3-1.4,5.052-4.619a1.536,1.536,0,0,1,.868-.434C220.623,207.988,220.8,208.164,220.8,208.557Z"/><path class="cls-9" d="M232.146,212.618q0,1.8-2.186,3.643a13.256,13.256,0,0,1-5.192,2.65,4.881,4.881,0,0,1,2.851,1.705,4.792,4.792,0,0,1,.992,3.037q0,2.513-2.868,5.208a8.531,8.531,0,0,1-5.812,2.7,7.426,7.426,0,0,1-1.8-.217,5.522,5.522,0,0,1-1.643-.713,2.66,2.66,0,0,1-.232,1.162.576.576,0,0,1-.76.326,1.192,1.192,0,0,1-.775-1.3,7.4,7.4,0,0,1,.589-2.386q.188-.465.682-1.7a79.248,79.248,0,0,1,4.309-8.308,54.2,54.2,0,0,1,4-6.324,14.373,14.373,0,0,0-2.324.868,3.6,3.6,0,0,1-1.148.372.571.571,0,0,1-.527-.62q0-.528,3.085-1.906a12.84,12.84,0,0,1,4.665-1.38,4.665,4.665,0,0,1,2.914.9A2.77,2.77,0,0,1,232.146,212.618Zm-5.364,10.168a2.527,2.527,0,0,0-1.209-2.124,4.063,4.063,0,0,0-2.325-.852h-1.24a.955.955,0,0,1-.651-.155q-.961,1.891-1.921,3.751-1.242,2.542-2.481,5.766,0,.31.806.573a5.863,5.863,0,0,0,1.829.264,6.806,6.806,0,0,0,5.022-2.511A7.023,7.023,0,0,0,226.782,222.786Zm3.6-10.695a1.311,1.311,0,0,0-.713-.806,2.972,2.972,0,0,0-1.27-.248,5.267,5.267,0,0,0-2.388.558.4.4,0,0,1,.217.372,2.837,2.837,0,0,1-.651,1.271q-2.264,3.162-3.007,4.464a9.88,9.88,0,0,0,4.774-1.675q3.1-1.827,3.1-3.5A2.656,2.656,0,0,0,230.378,212.091Z"/><path class="cls-9" d="M235.431,220.9a1.543,1.543,0,0,1-.4.96,19.608,19.608,0,0,0-2.17,3.8,19.035,19.035,0,0,0-1.519,3.86q-.186,1.054-.837.992c-.165,0-.31-.113-.434-.341a1.53,1.53,0,0,1-.186-.744,10.186,10.186,0,0,1,1.426-4.278,27.924,27.924,0,0,1,2.728-4.278,2.676,2.676,0,0,1,.388-.372.8.8,0,0,1,.511-.186A.522.522,0,0,1,235.431,220.9Zm3.193-5.829a2.285,2.285,0,0,1-.76,1.536,2.063,2.063,0,0,1-1.317.79q-.651,0-.651-.775a2.33,2.33,0,0,1,.744-1.519,2,2,0,0,1,1.3-.806C238.4,214.292,238.624,214.551,238.624,215.066Z"/><path class="cls-9" d="M247.242,208.93a27.327,27.327,0,0,1-1.86,9.745,37.427,37.427,0,0,1-4.246,8.007,49.215,49.215,0,0,1-4.651,5.679q-1.674,1.707-2.014,2.018-1.24,1.086-1.892.931-.372,0-.372-.311a2.175,2.175,0,0,1,.868-1.4,34.311,34.311,0,0,0,6.541-7.635,45.761,45.761,0,0,0,4.464-8.875,22.966,22.966,0,0,0,1.674-7.7,1.624,1.624,0,0,1,.279-.994.785.785,0,0,1,.62-.372Q247.243,208.03,247.242,208.93Z"/><path class="cls-9" d="M265.78,213.052c0,.557-.485,1-1.457,1.333a6.65,6.65,0,0,1-2.2.4,6.506,6.506,0,0,0,1.4,1.859,1.567,1.567,0,0,1,.526.869.59.59,0,0,1-.17.4.582.582,0,0,1-.45.185,2.042,2.042,0,0,1-1.442-.9,5.774,5.774,0,0,1-1.1-1.953c-.269.061-.6.4-.991,1.022q-1.181,1.8-1.675,1.675-.651-.093-.651-.682a2.888,2.888,0,0,1,.822-1.674,4.487,4.487,0,0,1,1.534-1.3,7.061,7.061,0,0,0-1.891-1.4q-.93-.525-.8-1.053c.061-.352.248-.528.557-.528A3.617,3.617,0,0,1,259.4,212q.62.434,1.24.837a7.745,7.745,0,0,0,.232-1.55q.139-1.4,1.007-1.4c.435,0,.651.31.651.929a4.758,4.758,0,0,1-.2,1.272,7.026,7.026,0,0,1-.45,1.209c.063.1.2.155.4.155a3.508,3.508,0,0,0,1.054-.217,12.934,12.934,0,0,1,1.953-.558C265.614,212.68,265.78,212.8,265.78,213.052Z"/><path class="cls-9" d="M279.514,221.174a2.735,2.735,0,0,1-1.055,2.077,4.25,4.25,0,0,1-2.944,1.054,1.207,1.207,0,0,1-.667-.17.425.425,0,0,1-.233-.419q0-.465,1.148-.652a2.481,2.481,0,0,0,1.425-.557,1.332,1.332,0,0,0,.528-.992q0-.681-.868-.682a3.211,3.211,0,0,0-2.156.85,2.518,2.518,0,0,0-.975,1.931,6.078,6.078,0,0,0,.7,2.04,6.515,6.515,0,0,1,.7,2.75,2.429,2.429,0,0,1-.651,1.778,2.859,2.859,0,0,1-2.107.664,2.505,2.505,0,0,1-2.062-.853,3.24,3.24,0,0,1-.7-2.123,3.842,3.842,0,0,1,.465-1.876q.463-.852,1.116-.852c.226,0,.341.1.341.31a1.087,1.087,0,0,1-.156.527,2.374,2.374,0,0,0-.4,1.24,2.71,2.71,0,0,0,.435,1.488,1.194,1.194,0,0,0,.961.682q1.393,0,1.394-1.144a3.185,3.185,0,0,0-.309-1.282,9.745,9.745,0,0,0-.837-1.468,3.744,3.744,0,0,1-.465-1.73,3.839,3.839,0,0,1,1.611-3.06,5.433,5.433,0,0,1,3.473-1.3,2.589,2.589,0,0,1,1.7.495A1.594,1.594,0,0,1,279.514,221.174Z"/><path class="cls-9" d="M283.512,220.9a1.543,1.543,0,0,1-.4.96,19.608,19.608,0,0,0-2.17,3.8,19.035,19.035,0,0,0-1.519,3.86q-.186,1.054-.837.992c-.165,0-.31-.113-.434-.341a1.53,1.53,0,0,1-.186-.744,10.186,10.186,0,0,1,1.426-4.278,27.924,27.924,0,0,1,2.728-4.278,2.676,2.676,0,0,1,.388-.372.8.8,0,0,1,.511-.186A.522.522,0,0,1,283.512,220.9Zm3.193-5.829a2.285,2.285,0,0,1-.76,1.536,2.063,2.063,0,0,1-1.317.79q-.651,0-.651-.775a2.33,2.33,0,0,1,.744-1.519,2,2,0,0,1,1.3-.806C286.478,214.292,286.705,214.551,286.705,215.066Z"/><path class="cls-9" d="M291.976,221.267a2.664,2.664,0,0,1-.589,1.209q-1.83,2.572-1.923,2.79a18.765,18.765,0,0,0-.837,1.922,6.544,6.544,0,0,0-.434,2.077,2.279,2.279,0,0,0,.186.961,3.58,3.58,0,0,1,.4,1.085c0,.413-.185.62-.557.62a1.421,1.421,0,0,1-1.085-.744,2.976,2.976,0,0,1-.528-1.767,9.034,9.034,0,0,1,.5-2.7,13.131,13.131,0,0,1,.869-2.17,9.669,9.669,0,0,0-2.542,2.7q-1.892,2.913-2.574,2.914-.526,0-.465-.559a7.789,7.789,0,0,1,1.023-2.666q.5-.958,1.147-2.169,2.139-3.906,2.7-3.906.681,0,.681.558a3.409,3.409,0,0,1-.589,1.457q-.435.713-.836,1.426.216-.218,1.829-1.737,1.766-1.7,2.82-1.7Q291.913,220.864,291.976,221.267Z"/><path class="cls-9" d="M307.94,208.557a1.214,1.214,0,0,1-.4.868,39.734,39.734,0,0,0-8.742,11.129,37.793,37.793,0,0,0-3.968,12.059,5.97,5.97,0,0,1-.217,1.891,1.053,1.053,0,0,1-.992.806.418.418,0,0,1-.4-.294,2.08,2.08,0,0,1-.124-.791,4.947,4.947,0,0,1,.077-.806,4.547,4.547,0,0,1,.2-.806,26.646,26.646,0,0,1,2.6-11.625,31.389,31.389,0,0,1,5.518-7.905q1.3-1.4,5.053-4.619a1.534,1.534,0,0,1,.868-.434Q307.94,207.967,307.94,208.557Z"/><path class="cls-9" d="M319.286,212.618q0,1.8-2.185,3.643a13.254,13.254,0,0,1-5.193,2.65,4.884,4.884,0,0,1,2.852,1.705,4.792,4.792,0,0,1,.992,3.037q0,2.513-2.868,5.208a8.534,8.534,0,0,1-5.813,2.7,7.432,7.432,0,0,1-1.8-.217,5.506,5.506,0,0,1-1.642-.713,2.645,2.645,0,0,1-.233,1.162.575.575,0,0,1-.759.326,1.193,1.193,0,0,1-.776-1.3,7.4,7.4,0,0,1,.59-2.386q.186-.465.682-1.7a79.2,79.2,0,0,1,4.308-8.308,54.489,54.489,0,0,1,4-6.324,14.408,14.408,0,0,0-2.324.868,3.585,3.585,0,0,1-1.147.372.571.571,0,0,1-.528-.62q0-.528,3.085-1.906a12.85,12.85,0,0,1,4.665-1.38,4.663,4.663,0,0,1,2.914.9A2.768,2.768,0,0,1,319.286,212.618Zm-5.363,10.168a2.527,2.527,0,0,0-1.209-2.124,4.066,4.066,0,0,0-2.325-.852h-1.241a.952.952,0,0,1-.65-.155q-.963,1.891-1.922,3.751-1.24,2.542-2.48,5.766,0,.31.805.573a5.868,5.868,0,0,0,1.829.264,6.808,6.808,0,0,0,5.023-2.511A7.028,7.028,0,0,0,313.923,222.786Zm3.6-10.695a1.314,1.314,0,0,0-.713-.806,2.976,2.976,0,0,0-1.271-.248,5.273,5.273,0,0,0-2.388.558.4.4,0,0,1,.217.372,2.843,2.843,0,0,1-.65,1.271q-2.264,3.162-3.007,4.464a9.873,9.873,0,0,0,4.773-1.675q3.1-1.827,3.1-3.5A2.656,2.656,0,0,0,317.519,212.091Z"/><path class="cls-9" d="M322.571,220.9a1.542,1.542,0,0,1-.4.96,19.554,19.554,0,0,0-2.17,3.8,19.059,19.059,0,0,0-1.52,3.86q-.186,1.054-.836.992c-.165,0-.31-.113-.434-.341a1.53,1.53,0,0,1-.187-.744,10.2,10.2,0,0,1,1.426-4.278,28,28,0,0,1,2.729-4.278,2.615,2.615,0,0,1,.387-.372.8.8,0,0,1,.511-.186A.522.522,0,0,1,322.571,220.9Zm3.194-5.829a2.285,2.285,0,0,1-.76,1.536,2.063,2.063,0,0,1-1.317.79q-.651,0-.652-.775a2.33,2.33,0,0,1,.744-1.519,2.005,2.005,0,0,1,1.3-.806C325.537,214.292,325.765,214.551,325.765,215.066Z"/><path class="cls-9" d="M334.383,208.93a27.306,27.306,0,0,1-1.861,9.745,37.427,37.427,0,0,1-4.246,8.007,49.2,49.2,0,0,1-4.65,5.679q-1.674,1.707-2.015,2.018-1.24,1.086-1.891.931-.372,0-.372-.311a2.175,2.175,0,0,1,.868-1.4,34.337,34.337,0,0,0,6.541-7.635,45.874,45.874,0,0,0,4.464-8.875,22.966,22.966,0,0,0,1.674-7.7,1.617,1.617,0,0,1,.279-.994.782.782,0,0,1,.62-.372Q334.384,208.03,334.383,208.93Z"/><path class="cls-9" d="M168.6,254.8a2.2,2.2,0,0,1-.217.931.482.482,0,0,1,.186.433,9.055,9.055,0,0,1-.961,2.7,8.747,8.747,0,0,0-.961,2.79,1.413,1.413,0,0,0,.744,1.395,1.118,1.118,0,0,1,.744.992.488.488,0,0,1-.248.435,1.221,1.221,0,0,1-.651.154,1.837,1.837,0,0,1-1.3-.526,2.289,2.289,0,0,1-.682-1.737,2.541,2.541,0,0,1,.077-.527q.078-.341.109-.5-1.551,2.6-3.162,2.6-1.426,0-1.612-1.984a9.588,9.588,0,0,1,2.015-5.3q2.169-3.131,4.309-3.131a1.922,1.922,0,0,1,1.178.326A1.108,1.108,0,0,1,168.6,254.8Zm-1.209,1.179c-.145-.537-.424-.807-.837-.807q-1.086,0-2.635,2.341a7.543,7.543,0,0,0-1.55,3.766.792.792,0,0,0,.4.806q.681.219,1.829-1.581Z"/><path class="cls-9" d="M183.289,246.675c0,.557-.484,1-1.457,1.333a6.643,6.643,0,0,1-2.2.4,6.564,6.564,0,0,0,1.4,1.861,1.554,1.554,0,0,1,.528.868.589.589,0,0,1-.171.4.58.58,0,0,1-.449.187,2.042,2.042,0,0,1-1.442-.9,5.731,5.731,0,0,1-1.1-1.953q-.4.094-.993,1.023-1.178,1.8-1.673,1.674c-.434-.061-.651-.289-.651-.681a2.882,2.882,0,0,1,.821-1.674,4.485,4.485,0,0,1,1.535-1.3,7.079,7.079,0,0,0-1.891-1.394q-.931-.528-.807-1.054.093-.528.559-.528a3.607,3.607,0,0,1,1.611.682q.621.435,1.241.837a7.564,7.564,0,0,0,.232-1.55q.139-1.393,1.008-1.394c.433,0,.651.309.651.929a4.75,4.75,0,0,1-.2,1.271,7,7,0,0,1-.449,1.209c.062.1.2.155.4.155a3.5,3.5,0,0,0,1.053-.217,12.861,12.861,0,0,1,1.953-.557C183.123,246.3,183.289,246.427,183.289,246.675Z"/><path class="cls-9" d="M191.908,254.8a2.731,2.731,0,0,1-1.054,2.077,4.253,4.253,0,0,1-2.945,1.055,1.2,1.2,0,0,1-.667-.171.421.421,0,0,1-.232-.419q0-.465,1.147-.65a2.492,2.492,0,0,0,1.426-.559,1.329,1.329,0,0,0,.527-.991q0-.683-.868-.683a3.2,3.2,0,0,0-2.155.851,2.516,2.516,0,0,0-.976,1.93,6.081,6.081,0,0,0,.7,2.04,6.534,6.534,0,0,1,.7,2.751,2.426,2.426,0,0,1-.652,1.777,2.851,2.851,0,0,1-2.107.665,2.5,2.5,0,0,1-2.061-.853,3.243,3.243,0,0,1-.7-2.124,3.855,3.855,0,0,1,.465-1.875q.465-.852,1.116-.852.34,0,.341.309a1.1,1.1,0,0,1-.155.528,2.362,2.362,0,0,0-.4,1.24,2.708,2.708,0,0,0,.434,1.487,1.2,1.2,0,0,0,.961.683q1.395,0,1.395-1.144a3.184,3.184,0,0,0-.31-1.282,9.582,9.582,0,0,0-.837-1.469,3.747,3.747,0,0,1-.465-1.73,3.838,3.838,0,0,1,1.612-3.06,5.433,5.433,0,0,1,3.472-1.3,2.587,2.587,0,0,1,1.7.5A1.59,1.59,0,0,1,191.908,254.8Z"/><path class="cls-9" d="M195.906,254.518a1.554,1.554,0,0,1-.4.961,19.458,19.458,0,0,0-2.17,3.8,18.975,18.975,0,0,0-1.52,3.861q-.186,1.053-.836.991c-.166,0-.31-.113-.434-.341a1.522,1.522,0,0,1-.187-.744,10.193,10.193,0,0,1,1.426-4.277,28.015,28.015,0,0,1,2.729-4.279,2.615,2.615,0,0,1,.387-.372.8.8,0,0,1,.511-.185A.521.521,0,0,1,195.906,254.518Zm3.194-5.829a2.279,2.279,0,0,1-.76,1.535,2.061,2.061,0,0,1-1.318.791c-.433,0-.651-.259-.651-.776a2.328,2.328,0,0,1,.744-1.518,2.008,2.008,0,0,1,1.3-.807Q199.1,247.914,199.1,248.689Z"/><path class="cls-9" d="M204.37,254.89a2.658,2.658,0,0,1-.589,1.209q-1.828,2.573-1.923,2.79a18.89,18.89,0,0,0-.837,1.922,6.528,6.528,0,0,0-.433,2.077,2.279,2.279,0,0,0,.185.961,3.555,3.555,0,0,1,.4,1.085q0,.619-.558.62a1.422,1.422,0,0,1-1.085-.744,2.983,2.983,0,0,1-.527-1.768,9.029,9.029,0,0,1,.5-2.7,13.1,13.1,0,0,1,.868-2.17,9.679,9.679,0,0,0-2.542,2.7q-1.892,2.914-2.573,2.914c-.352,0-.506-.185-.465-.557a7.789,7.789,0,0,1,1.022-2.667q.5-.96,1.148-2.169,2.139-3.907,2.7-3.907.681,0,.682.558a3.4,3.4,0,0,1-.589,1.457q-.435.714-.837,1.427.218-.217,1.829-1.737,1.767-1.7,2.82-1.7C204.06,254.486,204.328,254.621,204.37,254.89Z"/><path class="cls-9" d="M220.335,242.18a1.216,1.216,0,0,1-.4.867,39.71,39.71,0,0,0-8.743,11.13,37.794,37.794,0,0,0-3.967,12.058,5.991,5.991,0,0,1-.217,1.891,1.054,1.054,0,0,1-.992.807.419.419,0,0,1-.4-.3,2.071,2.071,0,0,1-.124-.79,5.083,5.083,0,0,1,.077-.807,4.588,4.588,0,0,1,.2-.806,26.666,26.666,0,0,1,2.6-11.625,31.455,31.455,0,0,1,5.519-7.905q1.3-1.4,5.052-4.619a1.536,1.536,0,0,1,.869-.434C220.158,241.611,220.335,241.787,220.335,242.18Z"/><path class="cls-9" d="M231.681,246.24q0,1.8-2.186,3.643a13.25,13.25,0,0,1-5.192,2.65,4.892,4.892,0,0,1,2.851,1.705,4.8,4.8,0,0,1,.992,3.038q0,2.511-2.868,5.208a8.536,8.536,0,0,1-5.812,2.7,7.476,7.476,0,0,1-1.8-.217,5.525,5.525,0,0,1-1.643-.714,2.668,2.668,0,0,1-.232,1.163.575.575,0,0,1-.76.325,1.192,1.192,0,0,1-.775-1.3,7.364,7.364,0,0,1,.59-2.387l.681-1.7a79.143,79.143,0,0,1,4.309-8.309,54.3,54.3,0,0,1,4-6.324,14.582,14.582,0,0,0-2.324.868,3.6,3.6,0,0,1-1.148.372.57.57,0,0,1-.527-.62q0-.526,3.085-1.906a12.865,12.865,0,0,1,4.665-1.38,4.671,4.671,0,0,1,2.914.9A2.771,2.771,0,0,1,231.681,246.24Zm-5.364,10.168a2.528,2.528,0,0,0-1.209-2.123,4.063,4.063,0,0,0-2.325-.852h-1.24a.95.95,0,0,1-.65-.156q-.963,1.892-1.922,3.751-1.24,2.544-2.481,5.766,0,.31.806.574a5.863,5.863,0,0,0,1.829.264,6.806,6.806,0,0,0,5.022-2.512A7.021,7.021,0,0,0,226.317,256.408Zm3.6-10.7a1.316,1.316,0,0,0-.713-.806,2.969,2.969,0,0,0-1.27-.248,5.268,5.268,0,0,0-2.388.559.4.4,0,0,1,.217.372,2.84,2.84,0,0,1-.651,1.27q-2.262,3.163-3.006,4.464a9.877,9.877,0,0,0,4.773-1.674q3.1-1.827,3.1-3.5A2.7,2.7,0,0,0,229.913,245.713Z"/><path class="cls-9" d="M234.966,254.518a1.55,1.55,0,0,1-.4.961,19.468,19.468,0,0,0-2.169,3.8,18.975,18.975,0,0,0-1.52,3.861q-.186,1.053-.837.991c-.165,0-.309-.113-.433-.341a1.511,1.511,0,0,1-.187-.744,10.193,10.193,0,0,1,1.426-4.277,28.01,28.01,0,0,1,2.728-4.279,2.676,2.676,0,0,1,.388-.372.8.8,0,0,1,.511-.185A.521.521,0,0,1,234.966,254.518Zm3.193-5.829a2.279,2.279,0,0,1-.76,1.535,2.059,2.059,0,0,1-1.317.791q-.651,0-.651-.776a2.328,2.328,0,0,1,.744-1.518,2.006,2.006,0,0,1,1.3-.807Q238.159,247.914,238.159,248.689Z"/><path class="cls-9" d="M246.777,242.553a27.331,27.331,0,0,1-1.86,9.745,37.427,37.427,0,0,1-4.246,8.007,49.288,49.288,0,0,1-4.65,5.679q-1.675,1.707-2.015,2.017-1.24,1.086-1.892.932-.372,0-.372-.311a2.173,2.173,0,0,1,.868-1.4,34.333,34.333,0,0,0,6.541-7.635,45.769,45.769,0,0,0,4.464-8.876,22.961,22.961,0,0,0,1.674-7.7,1.628,1.628,0,0,1,.279-.994.785.785,0,0,1,.62-.372Q246.777,241.652,246.777,242.553Z"/><path class="cls-9" d="M265.315,246.675q0,.835-1.457,1.333a6.647,6.647,0,0,1-2.2.4,6.554,6.554,0,0,0,1.4,1.861,1.559,1.559,0,0,1,.526.868.588.588,0,0,1-.17.4.582.582,0,0,1-.45.187,2.043,2.043,0,0,1-1.441-.9,5.767,5.767,0,0,1-1.1-1.953q-.4.094-.991,1.023-1.179,1.8-1.675,1.674c-.434-.061-.65-.289-.65-.681a2.882,2.882,0,0,1,.821-1.674,4.492,4.492,0,0,1,1.534-1.3,7.063,7.063,0,0,0-1.891-1.394q-.93-.528-.805-1.054c.061-.352.248-.528.557-.528a3.612,3.612,0,0,1,1.613.682q.62.435,1.24.837a7.646,7.646,0,0,0,.232-1.55q.14-1.393,1.007-1.394.653,0,.652.929a4.75,4.75,0,0,1-.2,1.271,6.914,6.914,0,0,1-.45,1.209c.063.1.2.155.4.155a3.5,3.5,0,0,0,1.054-.217,12.861,12.861,0,0,1,1.953-.557C265.149,246.3,265.315,246.427,265.315,246.675Z"/><path class="cls-9" d="M279.049,254.8a2.732,2.732,0,0,1-1.055,2.077,4.249,4.249,0,0,1-2.944,1.055,1.2,1.2,0,0,1-.667-.171.424.424,0,0,1-.233-.419q0-.465,1.148-.65a2.5,2.5,0,0,0,1.426-.559,1.332,1.332,0,0,0,.527-.991q0-.683-.868-.683a3.2,3.2,0,0,0-2.155.851,2.513,2.513,0,0,0-.976,1.93,6.071,6.071,0,0,0,.7,2.04,6.519,6.519,0,0,1,.7,2.751A2.425,2.425,0,0,1,274,263.8a2.853,2.853,0,0,1-2.107.665,2.507,2.507,0,0,1-2.062-.853,3.242,3.242,0,0,1-.7-2.124,3.844,3.844,0,0,1,.465-1.875q.464-.852,1.116-.852.341,0,.341.309a1.1,1.1,0,0,1-.155.528,2.364,2.364,0,0,0-.4,1.24,2.709,2.709,0,0,0,.435,1.487,1.2,1.2,0,0,0,.961.683q1.394,0,1.394-1.144a3.181,3.181,0,0,0-.309-1.282,9.666,9.666,0,0,0-.837-1.469,3.735,3.735,0,0,1-.465-1.73,3.84,3.84,0,0,1,1.611-3.06,5.435,5.435,0,0,1,3.473-1.3,2.589,2.589,0,0,1,1.7.5A1.59,1.59,0,0,1,279.049,254.8Z"/><path class="cls-9" d="M283.047,254.518a1.554,1.554,0,0,1-.4.961,19.405,19.405,0,0,0-2.17,3.8,18.975,18.975,0,0,0-1.52,3.861q-.186,1.053-.837.991c-.165,0-.309-.113-.433-.341a1.522,1.522,0,0,1-.187-.744,10.193,10.193,0,0,1,1.426-4.277,28.01,28.01,0,0,1,2.728-4.279,2.676,2.676,0,0,1,.388-.372.8.8,0,0,1,.511-.185A.521.521,0,0,1,283.047,254.518Zm3.193-5.829a2.279,2.279,0,0,1-.76,1.535,2.059,2.059,0,0,1-1.317.791q-.651,0-.651-.776a2.328,2.328,0,0,1,.744-1.518,2.008,2.008,0,0,1,1.3-.807Q286.24,247.914,286.24,248.689Z"/><path class="cls-9" d="M291.511,254.89a2.669,2.669,0,0,1-.589,1.209q-1.83,2.573-1.923,2.79a18.89,18.89,0,0,0-.837,1.922,6.528,6.528,0,0,0-.433,2.077,2.279,2.279,0,0,0,.185.961,3.541,3.541,0,0,1,.4,1.085c0,.413-.185.62-.557.62a1.421,1.421,0,0,1-1.085-.744,2.977,2.977,0,0,1-.528-1.768,9,9,0,0,1,.5-2.7,13.1,13.1,0,0,1,.868-2.17,9.679,9.679,0,0,0-2.542,2.7q-1.892,2.914-2.574,2.914c-.351,0-.5-.185-.464-.557a7.767,7.767,0,0,1,1.022-2.667q.5-.96,1.148-2.169,2.138-3.907,2.7-3.907.681,0,.681.558a3.413,3.413,0,0,1-.588,1.457q-.435.714-.837,1.427.216-.217,1.829-1.737,1.767-1.7,2.82-1.7Q291.448,254.486,291.511,254.89Z"/><path class="cls-9" d="M307.476,242.18a1.213,1.213,0,0,1-.4.867,39.724,39.724,0,0,0-8.742,11.13,37.8,37.8,0,0,0-3.968,12.058,6,6,0,0,1-.216,1.891,1.056,1.056,0,0,1-.993.807.419.419,0,0,1-.4-.3,2.071,2.071,0,0,1-.124-.79,4.968,4.968,0,0,1,.077-.807,4.593,4.593,0,0,1,.2-.806,26.653,26.653,0,0,1,2.6-11.625,31.45,31.45,0,0,1,5.518-7.905q1.3-1.4,5.053-4.619a1.536,1.536,0,0,1,.868-.434C307.3,241.611,307.476,241.787,307.476,242.18Z"/><path class="cls-9" d="M318.821,246.24q0,1.8-2.185,3.643a13.254,13.254,0,0,1-5.193,2.65,4.891,4.891,0,0,1,2.852,1.705,4.8,4.8,0,0,1,.992,3.038q0,2.511-2.868,5.208a8.538,8.538,0,0,1-5.813,2.7,7.468,7.468,0,0,1-1.8-.217,5.514,5.514,0,0,1-1.643-.714,2.668,2.668,0,0,1-.232,1.163.576.576,0,0,1-.76.325,1.192,1.192,0,0,1-.776-1.3,7.39,7.39,0,0,1,.59-2.387l.682-1.7a79.143,79.143,0,0,1,4.309-8.309,54.3,54.3,0,0,1,4-6.324,14.616,14.616,0,0,0-2.325.868,3.585,3.585,0,0,1-1.147.372.569.569,0,0,1-.527-.62q0-.526,3.084-1.906a12.869,12.869,0,0,1,4.666-1.38,4.673,4.673,0,0,1,2.914.9A2.77,2.77,0,0,1,318.821,246.24Zm-5.363,10.168a2.528,2.528,0,0,0-1.209-2.123,4.066,4.066,0,0,0-2.325-.852h-1.24a.954.954,0,0,1-.651-.156q-.962,1.892-1.922,3.751-1.24,2.544-2.48,5.766,0,.31.806.574a5.863,5.863,0,0,0,1.829.264,6.809,6.809,0,0,0,5.022-2.512A7.026,7.026,0,0,0,313.458,256.408Zm3.6-10.7a1.319,1.319,0,0,0-.713-.806,2.976,2.976,0,0,0-1.271-.248,5.267,5.267,0,0,0-2.387.559.4.4,0,0,1,.216.372,2.835,2.835,0,0,1-.65,1.27q-2.264,3.163-3.007,4.464a9.877,9.877,0,0,0,4.774-1.674q3.1-1.827,3.1-3.5A2.664,2.664,0,0,0,317.054,245.713Z"/><path class="cls-9" d="M322.106,254.518a1.548,1.548,0,0,1-.4.961,19.51,19.51,0,0,0-2.17,3.8,19.013,19.013,0,0,0-1.519,3.861q-.186,1.053-.837.991c-.165,0-.31-.113-.434-.341a1.521,1.521,0,0,1-.186-.744,10.188,10.188,0,0,1,1.425-4.277,28.015,28.015,0,0,1,2.729-4.279,2.576,2.576,0,0,1,.388-.372.8.8,0,0,1,.51-.185A.521.521,0,0,1,322.106,254.518Zm3.194-5.829a2.279,2.279,0,0,1-.76,1.535,2.061,2.061,0,0,1-1.317.791q-.651,0-.652-.776a2.328,2.328,0,0,1,.744-1.518,2.01,2.01,0,0,1,1.3-.807Q325.3,247.914,325.3,248.689Z"/><path class="cls-9" d="M333.918,242.553a27.331,27.331,0,0,1-1.86,9.745,37.517,37.517,0,0,1-4.246,8.007,49.4,49.4,0,0,1-4.651,5.679q-1.674,1.707-2.015,2.017-1.24,1.086-1.891.932-.372,0-.372-.311a2.173,2.173,0,0,1,.868-1.4,34.359,34.359,0,0,0,6.541-7.635,45.825,45.825,0,0,0,4.464-8.876,22.961,22.961,0,0,0,1.674-7.7,1.621,1.621,0,0,1,.279-.994.785.785,0,0,1,.62-.372Q333.919,241.652,333.918,242.553Z"/><path class="cls-9" d="M359.164,244.016c0,.185-.176.331-.527.433a4.931,4.931,0,0,1-1.364.155H346.764a9.832,9.832,0,0,1-1.58-.077c-.248-.051-.373-.16-.373-.326q0-.372.636-.62a4.428,4.428,0,0,1,1.6-.248h10.478C358.616,243.333,359.164,243.562,359.164,244.016Zm1.52-6.417c0,.185-.176.331-.528.433a4.922,4.922,0,0,1-1.364.156H348.283a9.805,9.805,0,0,1-1.581-.078q-.372-.077-.372-.326,0-.372.636-.62a4.432,4.432,0,0,1,1.6-.248H359.04C360.135,236.916,360.684,237.145,360.684,237.6Z"/><path class="cls-9" d="M381.634,229.562a2.042,2.042,0,0,1-.352,1.056q-1.583,2.64-4.664,8.228-3.257,5.9-4.708,8.757-.968,1.936-1.1,2.155c-.412.676-.792,1.013-1.145,1.013a1.225,1.225,0,0,1-.748-.265.975.975,0,0,1-.352-.836,4.671,4.671,0,0,1,.44-1.628q.308-.747,1.188-2.552,1.541-3.344,3.432-6.776,1.407-2.55,3.52-6.027-4.488,2.595-5.324,2.595-.749,0-.924-.88-.221-.792,2.068-1.848a22.241,22.241,0,0,0,3.124-1.584,17.857,17.857,0,0,1,2.662-1.782,4.155,4.155,0,0,1,1.782-.55Q381.634,228.638,381.634,229.562Z"/><line class="cls-10" x1="153.293" y1="239.524" x2="329.558" y2="239.524"/><path class="cls-9" d="M265.146,125.07h-7.438l-5.2,20.719a1.031,1.031,0,0,1-.4.648,1.067,1.067,0,0,1-.664.215,1.365,1.365,0,0,1-.548-.215.466.466,0,0,1-.149-.366,1.06,1.06,0,0,1,.05-.3l5.412-21.565a.988.988,0,0,1,1.046-.863h8.3a.629.629,0,0,1,.514.249.792.792,0,0,1,.166.465.942.942,0,0,1-.016.166,1.278,1.278,0,0,1-.374.573A.993.993,0,0,1,265.146,125.07Z"/><path class="cls-9" d="M262.091,139.182l-1.063,4.117a1.373,1.373,0,0,0,.2,1.162,1.2,1.2,0,0,0,1.029.465h5.81a.629.629,0,0,1,.524.282.648.648,0,0,1,.124.581,1.141,1.141,0,0,1-.357.59.994.994,0,0,1-.706.273h-5.81a2.5,2.5,0,0,1-2.142-.979,2.41,2.41,0,0,1-.5-1.511,3.416,3.416,0,0,1,.116-.863l2.507-9.961a4.393,4.393,0,0,1,1.519-2.308,3.991,3.991,0,0,1,2.648-1.046h3.32a2.569,2.569,0,0,1,2.142.947,2.5,2.5,0,0,1,.5,1.544,3.461,3.461,0,0,1-.116.863l-1.262,4.98a.988.988,0,0,1-1.046.864Zm.431-1.727h6.558l1.046-4.117a1.372,1.372,0,0,0-.2-1.162,1.206,1.206,0,0,0-1.03-.465h-3.32a1.99,1.99,0,0,0-1.27.473,2.178,2.178,0,0,0-.772,1.154Z"/><path class="cls-9" d="M281.531,143.315a4.245,4.245,0,0,1-1.544,2.367,4.116,4.116,0,0,1-2.623.97h-3.32a2.507,2.507,0,0,1-2.142-.979,2.41,2.41,0,0,1-.5-1.511,3.418,3.418,0,0,1,.117-.863l2.506-9.961a4.395,4.395,0,0,1,1.52-2.308,3.986,3.986,0,0,1,2.647-1.046h3.321a2.568,2.568,0,0,1,2.141.947,2.5,2.5,0,0,1,.5,1.544,3.461,3.461,0,0,1-.116.863Zm-1.71-.016,2.507-9.961a1.372,1.372,0,0,0-.2-1.162,1.206,1.206,0,0,0-1.029-.465h-3.321a1.988,1.988,0,0,0-1.269.473,2.18,2.18,0,0,0-.773,1.154l-2.49,9.961a1.327,1.327,0,0,0,.183,1.154,1.2,1.2,0,0,0,1.029.473h3.32a2.028,2.028,0,0,0,1.279-.473A2.075,2.075,0,0,0,279.821,143.3Z"/><path class="cls-9" d="M294.729,145.806a1.016,1.016,0,0,1-.4.631,1.065,1.065,0,0,1-.664.215,1.376,1.376,0,0,1-.548-.215.623.623,0,0,1-.1-.648l3-12.086-4.648,5.113a1.187,1.187,0,0,1-.847.482q-.4,0-.614-.5l-2.108-5.1-3.038,12.086a1.031,1.031,0,0,1-.4.648,1.065,1.065,0,0,1-.664.215,1.376,1.376,0,0,1-.548-.215.493.493,0,0,1-.133-.366,1.018,1.018,0,0,1,.05-.282l3.719-14.941a1.109,1.109,0,0,1,.4-.623,1.06,1.06,0,0,1,.681-.257.737.737,0,0,1,.349.1.419.419,0,0,1,.282.316l2.656,6.375,5.861-6.392a1.121,1.121,0,0,1,.83-.415.737.737,0,0,1,.448.249.6.6,0,0,1,.2.465,1.442,1.442,0,0,1-.017.2Z"/><path class="cls-9" d="M300.49,139.182l-1.062,4.117a1.373,1.373,0,0,0,.2,1.162,1.2,1.2,0,0,0,1.029.465h5.811a.626.626,0,0,1,.523.282.648.648,0,0,1,.124.581,1.145,1.145,0,0,1-.356.59,1,1,0,0,1-.706.273h-5.811a2.5,2.5,0,0,1-2.141-.979,2.41,2.41,0,0,1-.5-1.511,3.461,3.461,0,0,1,.116-.863l2.507-9.961a4.393,4.393,0,0,1,1.519-2.308,3.989,3.989,0,0,1,2.648-1.046h3.32a2.57,2.57,0,0,1,2.142.947,2.5,2.5,0,0,1,.5,1.544,3.464,3.464,0,0,1-.117.863l-1.261,4.98a.988.988,0,0,1-1.046.864Zm.432-1.727h6.557l1.046-4.117a1.369,1.369,0,0,0-.2-1.162,1.2,1.2,0,0,0-1.029-.465h-3.32a1.99,1.99,0,0,0-1.27.473,2.178,2.178,0,0,0-.772,1.154Z"/><path class="cls-9" d="M319.665,131.711h-4.9l-3.537,14.078a1.025,1.025,0,0,1-.4.648,1.065,1.065,0,0,1-.664.215,1.376,1.376,0,0,1-.548-.215.463.463,0,0,1-.149-.366,1.056,1.056,0,0,1,.049-.3l3.752-14.924a.988.988,0,0,1,1.046-.864H325.11a2.569,2.569,0,0,1,2.142.947,2.5,2.5,0,0,1,.5,1.544,3.461,3.461,0,0,1-.116.863l-3.121,12.451a1.031,1.031,0,0,1-.4.648,1.065,1.065,0,0,1-.664.215,1.376,1.376,0,0,1-.548-.215.625.625,0,0,1-.1-.648l3.121-12.451a1.375,1.375,0,0,0-.2-1.162,1.207,1.207,0,0,0-1.03-.465h-3.287l-3.536,14.078a1.029,1.029,0,0,1-.4.648,1.069,1.069,0,0,1-.664.215,1.37,1.37,0,0,1-.548-.215.622.622,0,0,1-.1-.648Z"/><path class="cls-9" d="M328.2,146.669l-1.444,5.744a1.1,1.1,0,0,1-.406.6,1.051,1.051,0,0,1-.657.282.731.731,0,0,1-.531-.232.622.622,0,0,1-.149-.4.867.867,0,0,1,.033-.249l5.379-21.549a1.024,1.024,0,0,1,1.079-.88h5.827a2.579,2.579,0,0,1,2.125.947,2.549,2.549,0,0,1,.5,1.544,3.4,3.4,0,0,1-.116.846l-2.507,9.978a4.326,4.326,0,0,1-1.544,2.383,4.07,4.07,0,0,1-2.623.987Zm.432-1.727h4.947a1.988,1.988,0,0,0,1.245-.489,2.228,2.228,0,0,0,.8-1.154l2.507-9.978a1.342,1.342,0,0,0-.2-1.145,1.19,1.19,0,0,0-1.013-.465H331.95Z"/><path class="cls-9" d="M348.867,145.789a1,1,0,0,1-1.062.863h-5.811a2.5,2.5,0,0,1-2.141-.979,2.411,2.411,0,0,1-.5-1.511,3.464,3.464,0,0,1,.117-.863l3.137-12.451a1.067,1.067,0,0,1,.373-.573,1,1,0,0,1,.673-.291.736.736,0,0,1,.54.225.614.614,0,0,1,.108.639L341.2,143.3a1.327,1.327,0,0,0,.183,1.154,1.2,1.2,0,0,0,1.029.473h4.947l3.553-14.078a1.056,1.056,0,0,1,.373-.573,1,1,0,0,1,.673-.291.724.724,0,0,1,.531.216.562.562,0,0,1,.166.415,1.122,1.122,0,0,1-.033.249Z"/><path class="cls-9" d="M361.285,137.455l1.677-6.624a1.047,1.047,0,0,1,.382-.556,1.028,1.028,0,0,1,.68-.291.7.7,0,0,1,.532.233.539.539,0,0,1,.149.4,1.185,1.185,0,0,1-.033.249l-3.752,14.942a1.048,1.048,0,0,1-.382.631,1.065,1.065,0,0,1-.664.215,1.376,1.376,0,0,1-.548-.215.661.661,0,0,1-.116-.648l1.644-6.607h-4.931a2.507,2.507,0,0,1-2.142-.98,2.406,2.406,0,0,1-.5-1.511,3.461,3.461,0,0,1,.116-.863l1.262-5a1.047,1.047,0,0,1,.382-.556,1.031,1.031,0,0,1,.681-.291.7.7,0,0,1,.531.233.642.642,0,0,1,.1.647l-1.228,4.964a1.327,1.327,0,0,0,.183,1.154,1.2,1.2,0,0,0,1.029.473Z"/><path class="cls-9" d="M366.88,139.182l-1.063,4.117a1.373,1.373,0,0,0,.2,1.162,1.2,1.2,0,0,0,1.029.465h5.81a.629.629,0,0,1,.524.282.648.648,0,0,1,.124.581,1.141,1.141,0,0,1-.357.59.994.994,0,0,1-.706.273h-5.81a2.506,2.506,0,0,1-2.142-.979,2.41,2.41,0,0,1-.5-1.511,3.461,3.461,0,0,1,.116-.863l2.507-9.961a4.389,4.389,0,0,1,1.52-2.308,3.986,3.986,0,0,1,2.647-1.046H374.1a2.568,2.568,0,0,1,2.141.947,2.5,2.5,0,0,1,.5,1.544,3.461,3.461,0,0,1-.116.863l-1.262,4.98a.988.988,0,0,1-1.046.864Zm.432-1.727h6.557l1.046-4.117a1.372,1.372,0,0,0-.2-1.162,1.206,1.206,0,0,0-1.029-.465h-3.321a1.988,1.988,0,0,0-1.269.473,2.18,2.18,0,0,0-.773,1.154Z"/><path class="cls-9" d="M384.81,146.652H379a2.507,2.507,0,0,1-2.142-.979,2.41,2.41,0,0,1-.5-1.511,3.418,3.418,0,0,1,.117-.863l2.506-9.961a4.4,4.4,0,0,1,1.52-2.308,3.986,3.986,0,0,1,2.647-1.046h5.811a.63.63,0,0,1,.515.249.8.8,0,0,1,.166.465.842.842,0,0,1-.017.166,1.281,1.281,0,0,1-.374.574,1,1,0,0,1-.7.273h-5.811a1.988,1.988,0,0,0-1.269.473,2.18,2.18,0,0,0-.773,1.154L378.2,143.3a1.327,1.327,0,0,0,.183,1.154,1.2,1.2,0,0,0,1.029.473h5.811a.628.628,0,0,1,.523.282.648.648,0,0,1,.124.581,1.145,1.145,0,0,1-.356.59A1,1,0,0,1,384.81,146.652Z"/><path class="cls-9" d="M394.854,137.123l3.154,8.2.016.482a1.073,1.073,0,0,1-.415.6,1.172,1.172,0,0,1-.68.249.65.65,0,0,1-.358-.091.713.713,0,0,1-.24-.307l-2.988-7.819-2.258,1.975-1.361,5.379a1.031,1.031,0,0,1-.4.648,1.065,1.065,0,0,1-.664.215,1.376,1.376,0,0,1-.548-.215.466.466,0,0,1-.149-.366,1.025,1.025,0,0,1,.05-.3l3.752-14.941a1.055,1.055,0,0,1,.374-.556,1,1,0,0,1,.672-.291.734.734,0,0,1,.539.225.611.611,0,0,1,.108.639l-1.743,6.956,8.7-7.471a1.106,1.106,0,0,1,.714-.315.709.709,0,0,1,.548.265.815.815,0,0,1,.133.432,1.548,1.548,0,0,1-.017.216,1.081,1.081,0,0,1-.4.564Z"/><path class="cls-9" d="M410.293,145.789a1,1,0,0,1-1.063.863h-5.81a2.506,2.506,0,0,1-2.142-.979,2.41,2.41,0,0,1-.5-1.511,3.461,3.461,0,0,1,.116-.863l3.138-12.451a1.056,1.056,0,0,1,.373-.573,1,1,0,0,1,.673-.291.736.736,0,0,1,.54.225.614.614,0,0,1,.108.639L402.623,143.3a1.327,1.327,0,0,0,.183,1.154,1.2,1.2,0,0,0,1.029.473h4.947l3.553-14.078a1.056,1.056,0,0,1,.373-.573,1,1,0,0,1,.673-.291.724.724,0,0,1,.531.216.566.566,0,0,1,.166.415,1.185,1.185,0,0,1-.033.249Z"/><path class="cls-9" d="M416.1,139.182l-1.063,4.117a1.373,1.373,0,0,0,.2,1.162,1.206,1.206,0,0,0,1.03.465h5.81a.629.629,0,0,1,.524.282.654.654,0,0,1,.124.581,1.147,1.147,0,0,1-.357.59,1,1,0,0,1-.706.273h-5.811a2.5,2.5,0,0,1-2.141-.979,2.41,2.41,0,0,1-.5-1.511,3.461,3.461,0,0,1,.116-.863l2.507-9.961a4.393,4.393,0,0,1,1.519-2.308,3.991,3.991,0,0,1,2.648-1.046h3.32a2.569,2.569,0,0,1,2.142.947,2.5,2.5,0,0,1,.5,1.544,3.461,3.461,0,0,1-.116.863l-1.262,4.98a.988.988,0,0,1-1.046.864Zm.431-1.727h6.558l1.046-4.117a1.372,1.372,0,0,0-.2-1.162,1.2,1.2,0,0,0-1.029-.465h-3.32a1.992,1.992,0,0,0-1.27.473,2.184,2.184,0,0,0-.772,1.154Z"/><path class="cls-9" d="M258.023,176.065h-4.93a2.494,2.494,0,0,1-2.134-1,2.691,2.691,0,0,1-.39-2.374l3.121-12.45a1.067,1.067,0,0,1,.373-.574,1.006,1.006,0,0,1,.673-.29.739.739,0,0,1,.539.224.614.614,0,0,1,.109.64l-3.1,12.45a1.248,1.248,0,0,0,.207,1.171,1.262,1.262,0,0,0,1.022.473h4.93l3.553-14.094a1.055,1.055,0,0,1,.373-.574,1.006,1.006,0,0,1,.673-.29.726.726,0,0,1,.531.216.562.562,0,0,1,.166.415.985.985,0,0,1-.033.233l-4.8,19.091a4.267,4.267,0,0,1-1.527,2.357,4.054,4.054,0,0,1-2.623,1h-5a1.015,1.015,0,0,1-.565-.282.832.832,0,0,1-.1-.365.733.733,0,0,1,.033-.232,2.043,2.043,0,0,1,.349-.6.942.942,0,0,1,.7-.249h5a1.98,1.98,0,0,0,1.262-.482,2.116,2.116,0,0,0,.763-1.178Z"/><path class="cls-9" d="M270.906,176.065H265.1a2.5,2.5,0,0,1-2.142-.979,2.41,2.41,0,0,1-.5-1.511,3.416,3.416,0,0,1,.116-.863l2.507-9.961a4.383,4.383,0,0,1,1.52-2.307,3.986,3.986,0,0,1,2.647-1.046h5.811a.629.629,0,0,1,.514.249.8.8,0,0,1,.166.465.942.942,0,0,1-.016.166,1.278,1.278,0,0,1-.374.573,1,1,0,0,1-.7.273h-5.811a1.988,1.988,0,0,0-1.269.473,2.18,2.18,0,0,0-.773,1.154l-2.49,9.961a1.327,1.327,0,0,0,.182,1.154,1.2,1.2,0,0,0,1.03.473h5.81a.629.629,0,0,1,.524.282.654.654,0,0,1,.124.581,1.141,1.141,0,0,1-.357.59A.994.994,0,0,1,270.906,176.065Z"/><path class="cls-9" d="M283.44,175.219a1.016,1.016,0,0,1-.4.631,1.065,1.065,0,0,1-.664.215,1.376,1.376,0,0,1-.548-.215.625.625,0,0,1-.1-.648l3.5-14.078h-3.42L275.09,175.4a1.053,1.053,0,0,1-.98.664.664.664,0,0,1-.548-.249.474.474,0,0,1-.166-.365.588.588,0,0,1,.05-.232l.067-.216,7.039-14.941a1.023,1.023,0,0,1,1-.664h4.98q.7,0,.7.581a1.48,1.48,0,0,1-.034.3Z"/><path class="cls-9" d="M296.008,172.729a4.257,4.257,0,0,1-1.544,2.366,4.12,4.12,0,0,1-2.623.97h-3.32a2.5,2.5,0,0,1-2.142-.979,2.41,2.41,0,0,1-.5-1.511,3.461,3.461,0,0,1,.116-.863l2.507-9.961a4.387,4.387,0,0,1,1.519-2.307,3.991,3.991,0,0,1,2.648-1.046h3.32a2.568,2.568,0,0,1,2.142.946,2.5,2.5,0,0,1,.5,1.544,3.461,3.461,0,0,1-.116.863Zm-1.71-.017,2.507-9.961a1.372,1.372,0,0,0-.2-1.162,1.2,1.2,0,0,0-1.029-.465h-3.32a1.992,1.992,0,0,0-1.27.473,2.184,2.184,0,0,0-.772,1.154l-2.49,9.961a1.327,1.327,0,0,0,.182,1.154,1.2,1.2,0,0,0,1.03.473h3.32a2.023,2.023,0,0,0,1.278-.473A2.071,2.071,0,0,0,294.3,172.712Z"/><path class="cls-9" d="M306.218,159.4h1.859a2.585,2.585,0,0,1,2.158.946,2.5,2.5,0,0,1,.5,1.544,3.461,3.461,0,0,1-.116.863l-2.507,9.961a4.325,4.325,0,0,1-1.535,2.365,4.079,4.079,0,0,1-2.648.988H300.64a2.516,2.516,0,0,1-2.142-1,2.471,2.471,0,0,1-.515-1.527,3.169,3.169,0,0,1,.117-.83l2.506-9.961,1.661-6.657a4.077,4.077,0,0,1,1.643-2.473,4.173,4.173,0,0,1,2.507-.847,2.688,2.688,0,0,1,2.108.83,2.576,2.576,0,0,1,.415,2.49l-.166.614-.2.416a4.041,4.041,0,0,1-.913,1.062Zm.182,13.314,2.491-9.961a1.33,1.33,0,0,0-.183-1.154,1.216,1.216,0,0,0-1.046-.473h-3.287a2.03,2.03,0,0,0-1.286.481,2.2,2.2,0,0,0-.789,1.146l-2.49,9.961a1.369,1.369,0,0,0,.2,1.162,1.223,1.223,0,0,0,1.046.465h3.287a2,2,0,0,0,1.278-.482A2.208,2.208,0,0,0,306.4,172.712Zm-3.237-13.364,1.428-.83q.6-.364,1.726-1.212l.233-.2.382-.448a1.083,1.083,0,0,0,.3-.581,1.288,1.288,0,0,0-.19-1.155,1.24,1.24,0,0,0-1.021-.439,2.136,2.136,0,0,0-1.279.432,2.05,2.05,0,0,0-.78,1.178Z"/><path class="cls-9" d="M319.8,175.2a1,1,0,0,1-1.063.863h-5.81a2.506,2.506,0,0,1-2.142-.979,2.41,2.41,0,0,1-.5-1.511,3.461,3.461,0,0,1,.116-.863l3.138-12.451a1.054,1.054,0,0,1,.373-.572,1,1,0,0,1,.673-.291.733.733,0,0,1,.54.225.612.612,0,0,1,.107.638l-3.1,12.451a1.327,1.327,0,0,0,.183,1.154,1.2,1.2,0,0,0,1.029.473h4.947l3.553-14.078a1.054,1.054,0,0,1,.373-.572,1,1,0,0,1,.673-.291.722.722,0,0,1,.531.216.565.565,0,0,1,.166.415,1.2,1.2,0,0,1-.033.249Z"/><path class="cls-9" d="M331.784,175.219a1.016,1.016,0,0,1-.4.631,1.067,1.067,0,0,1-.664.215,1.37,1.37,0,0,1-.548-.215.622.622,0,0,1-.1-.648l1.644-6.607h-2.773l-5.661,7.022-.382.332-.464.116a.625.625,0,0,1-.548-.232.64.64,0,0,1-.166-.415.886.886,0,0,1,.033-.216,1.048,1.048,0,0,1,.232-.415l4.433-5.528a6.811,6.811,0,0,1-1.784-1.635,2.611,2.611,0,0,1-.358-2.383l.615-2.49a4.4,4.4,0,0,1,1.518-2.307,4,4,0,0,1,2.649-1.046h5.81q.7,0,.7.581a1.474,1.474,0,0,1-.033.3Zm.365-8.351,1.428-5.744h-4.931a1.994,1.994,0,0,0-1.27.473,2.189,2.189,0,0,0-.772,1.154l-.63,2.49a1.369,1.369,0,0,0,.2,1.162,1.2,1.2,0,0,0,1.029.465Z"/></g></g></svg>