<svg id="Слой_1" data-name="Слой 1" xmlns="http://www.w3.org/2000/svg" xmlns:xlink="http://www.w3.org/1999/xlink" viewBox="0 0 343.806 293.925"><defs><style>.cls-1,.cls-12,.cls-18,.cls-2,.cls-22{fill:#fff;}.cls-15,.cls-17,.cls-18,.cls-19,.cls-2,.cls-20,.cls-21,.cls-9{stroke:#0b1417;}.cls-15,.cls-2,.cls-7{stroke-miterlimit:10;}.cls-3,.cls-9{fill:#ad8de4;}.cls-4{opacity:0.7;}.cls-10,.cls-5,.cls-7{fill:#0b1417;}.cls-5,.cls-6,.cls-8{opacity:0.2;}.cls-7{stroke:#fff;}.cls-17,.cls-18,.cls-19,.cls-20,.cls-21,.cls-9{stroke-linecap:round;stroke-linejoin:round;}.cls-11{clip-path:url(#clip-path);}.cls-12,.cls-13{opacity:0.5;}.cls-14,.cls-15,.cls-17{fill:none;}.cls-16{clip-path:url(#clip-path-2);}.cls-19{fill:#757575;}.cls-20{fill:#999;}.cls-21{fill:silver;}.cls-22{opacity:0.1;}.cls-23{clip-path:url(#clip-path-3);}</style><clipPath id="clip-path" transform="translate(-48.097 -13.038)"><path class="cls-1" d="M292.334,262.966l.087-32.834c.358-1.328.644-6.2,1.407-9.594,1.288-5.691-3.791-12.55-4.149-12.772-1.423-.891-4.451-.875-4.451-.875s-2.949-3.394-5.619-4.467a13.244,13.244,0,0,0-5.691-.707,27.183,27.183,0,0,0-6.756-4.093,5.559,5.559,0,0,0-5.691,1.073l-3.322,5.174a3.872,3.872,0,0,0,.453,4.84c1.589,1.566,3.624.835,4.649.835,1.423,0,1.956-1.606,1.956-1.606s.349,8.362,0,9.427l-.008.008c-.366,1.065-3.021,3.553-3.021,3.553l-8.886-11.764a85.857,85.857,0,0,1-8-13.2,6.083,6.083,0,0,0-1-1.558c-1.558-1.765-4.9-2.281-5.762.985a6.4,6.4,0,0,0,.143,3.148c3.72,10.976,8.449,19.274,12.765,27.922,2.567,5.134,1.613,5.071,2.893,7.392-.151.1-.08.294-.239.389-.628,2.5-1.065,5-1.693,7.495a34.369,34.369,0,0,0-2.845-9.045,20.4,20.4,0,0,0,.389-5.285,6.95,6.95,0,0,0-2.2-4.69,4.566,4.566,0,0,0-2.591-1.009,2.706,2.706,0,0,0-2.854,2.313,27.214,27.214,0,0,1-.747,4.021,40.237,40.237,0,0,1-2.051,5.048c0,3.314,2.051,2.773,3.545,16.1,1.161,10.38,14.53,17.239,21.81,24.734l7.757,24.4a150.367,150.367,0,0,0,25.888-13.591Z"/></clipPath><clipPath id="clip-path-2" transform="translate(-48.097 -13.038)"><path class="cls-1" d="M210.277,224.3c-.318-1.471-2.408-1.256-2.408-1.256-7.019.413-7.965,11.414-7.965,11.414l-2.511,7.535-.787-11.335.079-14.608s2.123-13.981,1.177-16.175a3.2,3.2,0,0,0-2.9-2.122c-4.086-1.025-4.324,4.864-4.324,4.864l-3.45,12.018L185.773,227.6l-1.177-.628s-.556-13.75-.318-13.981,1.654-9.5,1.654-9.5.778-1.725,1.724-3.927a4.756,4.756,0,0,0,0-3.926c-1.653-3.378-5.1-1.8-5.81,0a52.324,52.324,0,0,1-2.829,5.341l-3.935,10.762c.151,2.432-1.248,14.45-1.248,14.45l-1.414-.644-2.281-7.058,1.732-7.225s3.768-4.157,3.14-6.6-3.847-1.725-3.847-1.725l-6.438,7.694h-1.892l-4.475,5.659a35.837,35.837,0,0,0-1.025,18.782l1.025,4.776v30.871a55.748,55.748,0,0,0-3.06,5.413c0,.214-1.263,4.117-3.028,8.981A151.9,151.9,0,0,0,171.307,295q3.315,1.311,6.684,2.5c2.822-7.924,6.12-16.4,7.941-18.384,3.608-3.926,10.674-11.469,10.674-11.469s8.036-12.9,8.974-17.192c.778-3.521,2.662-9.911,3.314-12.105a4.368,4.368,0,0,0,.183-1.534c-.056-1.16-.167-3.41-.167-5.4C208.91,228.59,210.587,225.76,210.277,224.3Z"/></clipPath><clipPath id="clip-path-3" transform="translate(-48.097 -13.038)"><path class="cls-2" d="M368.366,209.959a53.341,53.341,0,0,1-.723,8.815c-2.154,12.852-8.91,22.231-16.906,22.231a10.513,10.513,0,0,1-2.122-.223c-8.727-1.852-15.5-14.942-15.5-30.823,0-17.144,7.892-23.208,17.621-23.208S368.366,192.815,368.366,209.959Z"/></clipPath></defs><path class="cls-3" d="M391.9,157.008a88.841,88.841,0,0,1-2.473,21.155c-.557,2.273-1.226,4.538-1.991,6.766-.223.639-.446,1.278-.683,1.909-.193.52-.394,1.04-.595,1.553-.059.141-.111.282-.17.423-.216.535-.431,1.07-.661,1.6-.038.082-.075.171-.112.26-.223.52-.453,1.04-.683,1.553-.1.23-.208.453-.312.676-.208.46-.424.913-.646,1.366-.231.483-.468.958-.706,1.434-.089.171-.171.342-.26.505-.208.408-.423.817-.631,1.226-.171.319-.342.631-.513.943q-1.18,2.184-2.473,4.308c-.35.579-.706,1.159-1.07,1.731-.082.141-.171.282-.26.423q-.624.981-1.27,1.961c-.349.527-.7,1.055-1.062,1.582-.312.461-.624.914-.944,1.374-.067.1-.133.194-.208.29-.327.475-.668.951-1,1.426-.416.587-.84,1.159-1.263,1.738-.089.119-.171.238-.26.349-.483.662-.981,1.315-1.471,1.961-.3.387-.594.78-.9,1.159-.535.706-1.084,1.4-1.641,2.1-.528.669-1.062,1.33-1.605,1.991-.059.074-.119.141-.178.215-.535.661-1.07,1.315-1.619,1.969-.156.2-.327.4-.49.594-.5.6-1,1.2-1.508,1.8q-2.184,2.585-4.405,5.125-4.512,5.192-9.218,10.317c-2.607,2.823-5.252,5.63-7.948,8.386-12.939,13.289-26.948,25.686-42.183,35.565-1.894,1.225-3.8,2.421-5.734,3.558-.706.416-1.411.832-2.117,1.24-.119.067-.245.141-.364.208-.728.416-1.456.825-2.191,1.226s-1.5.824-2.258,1.218l-1.025.535q-2.217,1.158-4.479,2.228c-.81.386-1.62.758-2.437,1.122-.75.341-1.508.676-2.265,1-.312.134-.617.268-.929.394-.69.3-1.389.58-2.087.862-1.344.542-2.7,1.062-4.07,1.552-.52.193-1.048.379-1.575.565-.3.1-.594.2-.891.3-.491.164-.981.327-1.471.483-.424.141-.854.275-1.278.409-.015.007-.029.007-.044.014q-1.26.39-2.518.758c-1.33.386-2.66.743-4,1.085-.883.222-1.767.43-2.659.631-.839.193-1.678.371-2.525.55-.067.014-.134.029-.2.037-.876.178-1.76.349-2.644.5-.453.082-.9.156-1.352.23s-.906.149-1.367.216c-.408.066-.824.126-1.233.178-.5.074-1,.141-1.5.208a114.825,114.825,0,0,1-15.874.9c-.319,0-.631-.008-.95-.015a131.437,131.437,0,0,1-14.373-1.077c-.349-.045-.7-.089-1.048-.141-.6-.082-1.2-.164-1.8-.253l-1.4-.223c-1.984-.312-3.952-.668-5.92-1.069-.439-.082-.869-.171-1.3-.268-1.322-.275-2.652-.572-3.967-.884-.884-.208-1.76-.423-2.637-.646-.438-.111-.876-.223-1.314-.342s-.877-.23-1.315-.349c-1.746-.468-3.484-.973-5.214-1.5q-3.019-.913-6-1.939c-.721-.245-1.449-.5-2.169-.75-2.236-.8-4.472-1.634-6.678-2.5-.393-.156-.8-.32-1.211-.491-.319-.133-.638-.274-.973-.423-.215-.1-.43-.193-.653-.3-1.441-.654-3.009-1.419-4.7-2.28-.282-.149-.572-.3-.861-.446-1.033-.542-2.11-1.114-3.217-1.723-2.324-1.278-4.813-2.689-7.427-4.227-29.719-17.485-75.215-50.3-85.9-62.743-.543-.631-1.07-1.27-1.6-1.916-.409-.506-.817-1.018-1.211-1.538-.364-.468-.721-.936-1.07-1.419q-.468-.624-.913-1.27c-.283-.394-.565-.8-.84-1.2a.652.652,0,0,0-.059-.089c-.334-.5-.669-.995-.995-1.5-.312-.483-.624-.966-.922-1.456-.148-.231-.289-.468-.43-.706q-.5-.825-.981-1.649c0-.007,0-.007-.007-.015-.342-.609-.684-1.218-1.018-1.834-.579-1.077-1.136-2.162-1.656-3.261-.134-.283-.268-.572-.4-.854a67.779,67.779,0,0,1-2.778-6.9c-.29-.817-.55-1.642-.8-2.466-.319-1.062-.609-2.132-.876-3.2-.052-.216-.1-.424-.149-.639-.133-.557-.26-1.122-.371-1.686-.171-.788-.312-1.575-.446-2.37-.029-.193-.067-.386-.089-.579-.067-.409-.126-.817-.178-1.233-.067-.49-.126-.988-.178-1.478-.023-.171-.038-.335-.052-.5-.045-.423-.075-.847-.112-1.263a.486.486,0,0,0-.007-.1c-.037-.5-.067-1-.082-1.5a1.007,1.007,0,0,1-.007-.141q-.035-.792-.045-1.582c0-.2,0-.393,0-.59,0-.309,0-.617,0-.926.01-.776.033-1.551.078-2.325.029-.505.067-1.01.111-1.508.089-1,.208-1.99.357-2.978.074-.5.156-1.01.252-1.508q.269-1.5.647-3.008a51.744,51.744,0,0,1,2.562-7.614,53.586,53.586,0,0,1,2.667-5.452c.074-.148.163-.3.252-.453a83.294,83.294,0,0,1,15.584-19.1c.654-.624,1.315-1.233,1.991-1.835.7-.646,1.418-1.277,2.139-1.916.044-.037.089-.082.134-.119q1.726-1.515,3.5-2.993c1.82-1.523,3.669-3.016,5.534-4.5.059-.052.126-.1.186-.148,1.6-1.263,3.208-2.518,4.813-3.766,2.525-1.954,5.058-3.9,7.539-5.838q.992-.769,1.961-1.538c.721-.565,1.426-1.129,2.132-1.694A158.772,158.772,0,0,0,118.268,91.4q1.548-1.693,3.075-3.41c.483-.549.966-1.092,1.441-1.641,6.782-7.725,13.088-15.539,20.107-22.915q2.507-2.642,5.14-5.192c1.486-1.419,2.994-2.816,4.561-4.182,1.79-1.575,3.632-3.113,5.563-4.6,2.637-2.05,5.415-4.019,8.387-5.9.727-.468,1.448-.921,2.176-1.367,74.063-46.03,128.576-31,164.943,0q4.111,3.488,7.918,7.265c1.545,1.493,3.038,3.038,4.487,4.6.163.163.312.334.468.512q1.525,1.628,2.971,3.276c.29.327.572.654.854.98.423.491.847.981,1.263,1.479.512.6,1.017,1.21,1.523,1.819.319.387.631.773.943,1.159q3.042,3.744,5.8,7.577c.371.5.735,1.017,1.1,1.53,2.541,3.565,4.9,7.168,7.094,10.748.312.512.624,1.025.928,1.53s.617,1.025.914,1.538.594,1.017.884,1.522.587,1.018.869,1.523.565,1.018.847,1.523.564,1.01.824,1.508.543,1.01.81,1.507.527,1,.787,1.5.513.995.765,1.485.5,1,.743,1.486q1.46,2.941,2.771,5.809c.431.965.861,1.923,1.27,2.867,1.849,4.249,3.432,8.312,4.724,12.092a.128.128,0,0,1,.015.052c.126.364.245.721.364,1.077.126.372.245.736.364,1.1.089.282.186.557.267.839.134.416.268.832.394,1.255q.211.68.4,1.36c.245.832.483,1.664.706,2.5.193.706.379,1.411.557,2.124.037.134.074.26.1.394.029.111.052.223.081.334.1.416.208.832.305,1.255q.4,1.661.743,3.336c.126.609.252,1.21.364,1.819.022.112.044.223.067.342q.166.858.312,1.716c.133.765.26,1.538.371,2.3.1.579.178,1.166.26,1.753.007.081.022.17.037.26.052.386.1.779.149,1.173.044.327.081.654.119.973.133,1.181.252,2.355.349,3.536l.066.8c.03.446.06.9.09,1.345.029.5.059,1,.081,1.5.023.386.037.765.052,1.151.023.565.037,1.137.045,1.7C391.9,155.686,391.9,156.347,391.9,157.008Z" transform="translate(-48.097 -13.038)"/><g class="cls-4"><path class="cls-1" d="M391.9,157.008a88.841,88.841,0,0,1-2.473,21.155c-.557,2.273-1.226,4.538-1.991,6.766-.223.639-.446,1.278-.683,1.909-.193.52-.394,1.04-.595,1.553-.059.141-.111.282-.17.423-.216.535-.431,1.07-.661,1.6-.038.082-.075.171-.112.26-.223.52-.453,1.04-.683,1.553-.1.23-.208.453-.312.676-.208.46-.424.913-.646,1.366-.231.483-.468.958-.706,1.434-.089.171-.171.342-.26.505-.208.408-.423.817-.631,1.226-.171.319-.342.631-.513.943q-1.18,2.184-2.473,4.308c-.35.579-.706,1.159-1.07,1.731-.082.141-.171.282-.26.423q-.624.981-1.27,1.961c-.349.527-.7,1.055-1.062,1.582-.312.461-.624.914-.944,1.374-.067.1-.133.194-.208.29-.327.475-.668.951-1,1.426-.416.587-.84,1.159-1.263,1.738-.089.119-.171.238-.26.349-.483.662-.981,1.315-1.471,1.961-.3.387-.594.78-.9,1.159-.535.706-1.084,1.4-1.641,2.1-.528.669-1.062,1.33-1.605,1.991-.059.074-.119.141-.178.215-.535.661-1.07,1.315-1.619,1.969-.156.2-.327.4-.49.594-.5.6-1,1.2-1.508,1.8q-2.184,2.585-4.405,5.125-4.512,5.192-9.218,10.317c-2.607,2.823-5.252,5.63-7.948,8.386-12.939,13.289-26.948,25.686-42.183,35.565-1.894,1.225-3.8,2.421-5.734,3.558-.706.416-1.411.832-2.117,1.24-.119.067-.245.141-.364.208-.728.416-1.456.825-2.191,1.226s-1.5.824-2.258,1.218l-1.025.535q-2.217,1.158-4.479,2.228c-.81.386-1.62.758-2.437,1.122-.75.341-1.508.676-2.265,1-.312.134-.617.268-.929.394-.69.3-1.389.58-2.087.862-1.344.542-2.7,1.062-4.07,1.552-.52.193-1.048.379-1.575.565-.3.1-.594.2-.891.3-.491.164-.981.327-1.471.483-.424.141-.854.275-1.278.409-.015.007-.029.007-.044.014q-1.26.39-2.518.758c-1.33.386-2.66.743-4,1.085-.883.222-1.767.43-2.659.631-.839.193-1.678.371-2.525.55-.067.014-.134.029-.2.037-.876.178-1.76.349-2.644.5-.453.082-.9.156-1.352.23s-.906.149-1.367.216c-.408.066-.824.126-1.233.178-.5.074-1,.141-1.5.208a114.825,114.825,0,0,1-15.874.9c-.319,0-.631-.008-.95-.015a131.437,131.437,0,0,1-14.373-1.077c-.349-.045-.7-.089-1.048-.141-.6-.082-1.2-.164-1.8-.253l-1.4-.223c-1.984-.312-3.952-.668-5.92-1.069-.439-.082-.869-.171-1.3-.268-1.322-.275-2.652-.572-3.967-.884-.884-.208-1.76-.423-2.637-.646-.438-.111-.876-.223-1.314-.342s-.877-.23-1.315-.349c-1.746-.468-3.484-.973-5.214-1.5q-3.019-.913-6-1.939c-.721-.245-1.449-.5-2.169-.75-2.236-.8-4.472-1.634-6.678-2.5-.393-.156-.8-.32-1.211-.491-.319-.133-.638-.274-.973-.423-.215-.1-.43-.193-.653-.3-1.441-.654-3.009-1.419-4.7-2.28-.282-.149-.572-.3-.861-.446-1.033-.542-2.11-1.114-3.217-1.723-2.324-1.278-4.813-2.689-7.427-4.227-29.719-17.485-75.215-50.3-85.9-62.743-.543-.631-1.07-1.27-1.6-1.916-.409-.506-.817-1.018-1.211-1.538-.364-.468-.721-.936-1.07-1.419q-.468-.624-.913-1.27c-.283-.394-.565-.8-.84-1.2a.652.652,0,0,0-.059-.089c-.334-.5-.669-.995-.995-1.5-.312-.483-.624-.966-.922-1.456-.148-.231-.289-.468-.43-.706q-.5-.825-.981-1.649c0-.007,0-.007-.007-.015-.342-.609-.684-1.218-1.018-1.834-.579-1.077-1.136-2.162-1.656-3.261-.134-.283-.268-.572-.4-.854a67.779,67.779,0,0,1-2.778-6.9c-.29-.817-.55-1.642-.8-2.466-.319-1.062-.609-2.132-.876-3.2-.052-.216-.1-.424-.149-.639-.133-.557-.26-1.122-.371-1.686-.171-.788-.319-1.575-.446-2.37-.029-.193-.067-.386-.089-.579-.067-.409-.126-.817-.178-1.233-.067-.49-.126-.988-.178-1.478-.023-.171-.038-.335-.052-.5-.045-.423-.075-.847-.112-1.263a.486.486,0,0,0-.007-.1c-.037-.5-.067-1-.082-1.5a1.007,1.007,0,0,1-.007-.141q-.035-.792-.045-1.582c-.022-1.285.007-2.563.082-3.841.029-.505.067-1.01.111-1.508.089-1,.208-1.99.357-2.978.074-.5.156-1.01.252-1.508q.269-1.5.647-3.008a51.744,51.744,0,0,1,2.562-7.614,53.586,53.586,0,0,1,2.667-5.452c.074-.148.163-.3.252-.453a83.294,83.294,0,0,1,15.584-19.1c.349-.334.7-.661,1.055-.988l.936-.847c.7-.646,1.418-1.277,2.139-1.916.044-.037.089-.082.134-.119q1.726-1.515,3.5-2.993c1.82-1.523,3.669-3.016,5.534-4.5.059-.052.126-.1.186-.148,1.6-1.263,3.208-2.518,4.813-3.766.809-.624,1.612-1.248,2.421-1.872,1.716-1.322,3.432-2.644,5.118-3.966q.992-.769,1.961-1.538c.721-.565,1.426-1.129,2.132-1.694A158.772,158.772,0,0,0,118.268,91.4q1.548-1.693,3.075-3.41c.483-.549.966-1.092,1.441-1.641,6.782-7.725,13.088-15.539,20.107-22.915q2.507-2.642,5.14-5.192c1.486-1.419,2.994-2.816,4.561-4.182,1.79-1.575,3.632-3.113,5.563-4.6,2.637-2.05,5.415-4.019,8.387-5.9.727-.468,1.448-.921,2.176-1.367,74.063-46.03,128.576-31,164.943,0q4.111,3.488,7.918,7.265c1.545,1.493,3.038,3.038,4.487,4.6.163.163.312.334.468.512q1.525,1.628,2.971,3.276c.29.327.572.654.854.98.423.491.847.981,1.263,1.479.512.6,1.017,1.21,1.523,1.819.319.387.631.773.943,1.159q3.042,3.744,5.8,7.577c.371.5.735,1.017,1.1,1.53,2.541,3.565,4.9,7.168,7.094,10.748.312.512.624,1.025.928,1.53s.617,1.025.914,1.538.594,1.017.884,1.522.587,1.018.869,1.523.565,1.018.847,1.523.564,1.01.824,1.508.543,1.01.81,1.507.527,1,.787,1.5.513.995.765,1.485.5,1,.743,1.486q1.472,2.941,2.771,5.809c.431.965.861,1.923,1.27,2.867,1.849,4.249,3.432,8.312,4.724,12.092a.128.128,0,0,1,.015.052c.126.364.245.721.364,1.077.126.372.245.736.364,1.1.089.282.186.557.267.839.134.416.268.832.394,1.255q.211.68.4,1.36c.245.832.483,1.664.706,2.5.193.706.379,1.411.557,2.124.037.134.074.26.1.394.029.111.052.223.081.334.1.416.208.832.305,1.255q.4,1.661.743,3.336c.126.609.252,1.21.364,1.819.022.112.044.223.067.342q.166.858.312,1.716c.133.765.26,1.538.371,2.3.1.579.178,1.166.26,1.753.007.081.022.17.037.26.052.386.1.779.149,1.173.044.327.081.654.119.973.133,1.181.252,2.355.349,3.536l.066.8c.03.446.06.9.09,1.345.029.5.059,1,.081,1.5.023.386.037.765.052,1.151.023.565.037,1.137.045,1.7C391.9,155.686,391.9,156.347,391.9,157.008Z" transform="translate(-48.097 -13.038)"/></g><path class="cls-5" d="M57.961,169.212c-.149-.1-.112-.163,0,0Z" transform="translate(-48.097 -13.038)"/><path class="cls-6" d="M127.434,162.661a13.613,13.613,0,0,1-9.337,10.748l-1.842.6c-6.626,9.382-18.243,13.386-28.144,7.569l-2.9-1.7L77.1,170.237c-.029.008-.066.015-.1.022a8.278,8.278,0,0,1-7.376-1.671,2.526,2.526,0,1,1-4.093-2.414c-1.634,1.441-4.159.78-5.734-.8a49.555,49.555,0,0,1,1.448-12.843,51.852,51.852,0,0,1,2.563-7.613,53.586,53.586,0,0,1,2.667-5.452c.074-.149.163-.305.252-.453a65.178,65.178,0,0,1,4.94-7.443l.936-.847c.7-.646,1.418-1.277,2.139-1.916.044-.037.089-.082.134-.119q1.726-1.515,3.5-2.993c1.82-1.523,3.669-3.016,5.534-4.5.059-.052.126-.1.186-.148,1.6-1.263,3.208-2.518,4.813-3.766.809-.624,1.612-1.248,2.421-1.872a6.621,6.621,0,0,1,1.426.334c1.984.691,2.325,2.511,3.7,3.759,1.827,1.671,3.58-1.137,6.4-1.048,8.653.268,5.3,9.144,9.522,8.03,18.251-4.813,15.183,18.532,7.25,23.658C124.307,154.022,128.34,156.585,127.434,162.661Z" transform="translate(-48.097 -13.038)"/><ellipse class="cls-2" cx="40.094" cy="141.414" rx="30.78" ry="30.399"/><ellipse class="cls-7" cx="40.094" cy="140.183" rx="28.065" ry="27.718"/><path class="cls-3" d="M58.032,164.148c-1.767,1.1-2.273,4.792-.879,6.392s4.054.363,4.6-2.13a.829.829,0,0,0,1.5.209,1.712,1.712,0,0,0,.1-1.563c-.133-.113-.084-.193,0,0,.9.718,2.463-.065,2.68-1.6-.662,4.083,3.05,7.649,5.786,5.572a3.44,3.44,0,0,0,1.666,4.456c1.408.439,2.928-.394,4.28-1.32s2.734-1.982,4.213-2.047c1.289-.062,2.483.665,3.71,1.1,3.907,1.361,8.48-.441,11.469-4.538,1.975,3.38,6.84,2.136,8.145-2.073.274,1.97,1.623,3.47,3.127,3.49s3.021-1.441,3.536-3.4v.026c.033,1.864,1.7,2.777,2.885,1.578a6.953,6.953,0,0,0,1.713-6.59c2.025-.081,3.983-2.429,4.289-5.148s-1.06-5.448-3.013-5.982c3.351-1.392,5.977-5.957,6.1-10.618s-2.271-8.977-5.562-10.066a3.508,3.508,0,0,0-3.779.791,9.029,9.029,0,0,0-3.366-6.211c-2.825-1.908-6.755-.6-8.857,2.951a6.983,6.983,0,0,0,.161-6.228,3.24,3.24,0,0,0-4.361-1.608c-.339-2.843-2.535-4.867-4.683-4.314s-3.877,3.591-3.693,6.47a2.065,2.065,0,0,0-3.922-.947c.084.175-.042.072,0,0-1.364-2.866-4.143-4.339-6.722-3.5-2.741.9-5.044,4.343-5.4,8.1a4.852,4.852,0,0,0-6.681.185,10.34,10.34,0,0,0-2.845,8.414c-2.133-2.106-5.723-.957-7.185,2.3s-.454,7.863,2.016,9.225c-1.7.259-3.2,2.519-3.2,4.806s1.507,4.252,3.215,4.19c-1.723.148-3.345,2.183-3.6,4.5S56.382,163.638,58.032,164.148Z" transform="translate(-48.097 -13.038)"/><g class="cls-8"><path class="cls-1" d="M86.329,153.5a3.2,3.2,0,0,0-3.006-.741,3.562,3.562,0,0,0-2.252,2.76c-.239,1.343.382,2.827,1.412,3.082,1.252.311,2.537-1.089,3.816-.937a9.243,9.243,0,0,1,1.317.43c1.832.516,3.687-1.132,5.243-2.68a7.191,7.191,0,0,0,1.481-1.851,3.016,3.016,0,0,0,.2-2.443,2.063,2.063,0,0,0-2.5-.891,9.985,9.985,0,0,0-5.174,3.044q.083-.562.164-1.125Z" transform="translate(-48.097 -13.038)"/><path class="cls-1" d="M113.158,149.836a4.147,4.147,0,0,0-1.591-.981,1.532,1.532,0,0,0-1.679.7,2.446,2.446,0,0,0,.413,2.793,3.9,3.9,0,0,0,2.331.871c.846.115,1.917.089,2.354-.893a2.138,2.138,0,0,0-.357-2.14,3.6,3.6,0,0,0-1.652-.949Z" transform="translate(-48.097 -13.038)"/><path class="cls-1" d="M71.158,134.66a8.113,8.113,0,0,0-3.518,5.434c-.133.7-.132,1.575.338,1.915a1.243,1.243,0,0,0,1.155-.034l4.933-1.785a7.4,7.4,0,0,0-2.237,1.631,3.718,3.718,0,0,0-.893,2.909,2.141,2.141,0,0,0,2.237,1.81A4.814,4.814,0,0,0,75.9,145a5.013,5.013,0,0,0,1.764-3.308c.041-1.341-1.26-2.5-2.083-1.595a18.262,18.262,0,0,0,5.321-3.379,6.342,6.342,0,0,0,1.557-1.91,3.265,3.265,0,0,0,.2-2.56c-1.605-3.781-3.827,2.045-4.869,2.616C75.819,135.946,73.665,133.184,71.158,134.66Z" transform="translate(-48.097 -13.038)"/><path class="cls-1" d="M63.231,151.7a2.36,2.36,0,0,0,.391,2.142.97.97,0,0,0,1.574-.506,5.985,5.985,0,0,0-2.986,2.293c-.7,1.217-.572,3.262.509,3.65.676.242,1.41-.229,2.046-.7a42.33,42.33,0,0,0,5.145-4.568,2.352,2.352,0,0,0,1.846,3.075c1.218.058,2.373-.852,3.434-1.727,1.3-1.073,2.8-2.681,2.5-4.526a2.222,2.222,0,0,0-3.141-1.672,8.726,8.726,0,0,0-3.127,3.188,2.341,2.341,0,0,0-1.432-3.291c-1.167-.13-2.351.85-3.1,1.994,1.381-1.038,1.732-3.545-.089-3.721C65.613,147.214,63.541,150.423,63.231,151.7Z" transform="translate(-48.097 -13.038)"/><path class="cls-1" d="M100.764,143.828c-1.021-.428-2.327.5-2.629,1.88s.468,2.874,1.551,3.02a3.265,3.265,0,0,0-2.1,1.509,2.576,2.576,0,0,0-.465,1.587,1.449,1.449,0,0,0,1.439,1.335,3.959,3.959,0,0,0,1.922-.8,3.245,3.245,0,0,0-1.891.808,1.891,1.891,0,0,0-.32,2.222c.383.473,1.03.351,1.566.128a8.452,8.452,0,0,0,3.255-2.5,2.609,2.609,0,0,0,2.665,1.28,2.579,2.579,0,0,0,1.59-2.894,1.867,1.867,0,0,0-1.635-1.442,4.276,4.276,0,0,0-2.137.556,5.479,5.479,0,0,0,1.754-2.509c.277-1.068-.254-2.447-1.119-2.31-.972.157-1.5,1.871-2.275,2.523C101.006,147.147,102.818,144.688,100.764,143.828Z" transform="translate(-48.097 -13.038)"/><path class="cls-1" d="M83.382,139.754a6.187,6.187,0,0,0-1.491,4.614c.05,1.867.681,3.827,2.015,4.5,1.755.88,4-1.137,4.375-3.589a6.007,6.007,0,0,0-2.534-5.882A2.127,2.127,0,0,0,83.382,139.754Z" transform="translate(-48.097 -13.038)"/><path class="cls-1" d="M95.8,136.975l.447.475a1.953,1.953,0,0,0-3.226-.128,3.541,3.541,0,0,0-.087,4.135,2.015,2.015,0,0,0,3.24-.5,2.968,2.968,0,0,0,3.885-1.16c.925-1.44.765-3.843-.445-4.655s-3.1.633-3,2.417l-.519-.724Z" transform="translate(-48.097 -13.038)"/><path class="cls-1" d="M109.412,138.951a10.23,10.23,0,0,0-2.178,3.918c-.349,1.533.146,3.427,1.331,3.741s2.323-1,3.022-2.342a5.991,5.991,0,0,0,.8-4.01c-.327-1.313-1.819-2.01-2.591-.937Z" transform="translate(-48.097 -13.038)"/><path class="cls-1" d="M89.888,131.013a1.716,1.716,0,0,0-2.769-.807,3.8,3.8,0,0,0-.93,3.736,2.924,2.924,0,0,0,2.486,2.165,2.743,2.743,0,0,0,2.681-3.037,2.388,2.388,0,0,0,2.551,1.082,6.583,6.583,0,0,0,2.692-1.444c1.143-.9,2.369-2.25,2.281-3.894a2.372,2.372,0,0,0-2.081-2.321,3.814,3.814,0,0,0-2.861,1.521c-.632.712-1.162,1.575-1.843,2.208a1.966,1.966,0,0,1-2.306.556Z" transform="translate(-48.097 -13.038)"/></g><rect class="cls-9" x="94.202" y="163.975" width="171.337" height="72.16"/><rect class="cls-2" x="97.782" y="168.341" width="16.121" height="8.924"/><rect class="cls-2" x="236.185" y="211.841" width="25.391" height="8.924"/><rect class="cls-2" x="245.903" y="179.485" width="15.673" height="8.924"/><rect class="cls-2" x="97.782" y="200.838" width="16.121" height="8.924"/><rect class="cls-2" x="97.782" y="190.091" width="13.05" height="8.924"/><rect class="cls-2" x="97.782" y="179.216" width="8.924" height="8.924"/><rect class="cls-2" x="109.172" y="179.216" width="8.924" height="8.924"/><rect class="cls-2" x="120.561" y="179.216" width="8.924" height="8.924"/><rect class="cls-2" x="131.951" y="179.216" width="8.924" height="8.924"/><rect class="cls-2" x="143.341" y="179.216" width="8.924" height="8.924"/><rect class="cls-2" x="154.73" y="179.216" width="8.924" height="8.924"/><rect class="cls-2" x="166.12" y="179.216" width="8.924" height="8.924"/><rect class="cls-2" x="177.509" y="179.216" width="8.924" height="8.924"/><rect class="cls-2" x="188.899" y="179.216" width="8.924" height="8.924"/><rect class="cls-2" x="200.289" y="179.216" width="8.924" height="8.924"/><rect class="cls-2" x="211.678" y="179.216" width="8.924" height="8.924"/><rect class="cls-2" x="223.068" y="179.216" width="8.924" height="8.924"/><rect class="cls-2" x="234.457" y="179.216" width="8.924" height="8.924"/><rect class="cls-2" x="97.782" y="222.845" width="8.924" height="8.924"/><rect class="cls-2" x="109.172" y="222.845" width="8.924" height="8.924"/><rect class="cls-2" x="120.561" y="222.845" width="8.924" height="8.924"/><rect class="cls-2" x="131.951" y="222.845" width="10.888" height="8.924"/><rect class="cls-2" x="145.305" y="222.845" width="54.482" height="8.924"/><rect class="cls-2" x="218.105" y="222.845" width="8.924" height="8.924"/><rect class="cls-2" x="229.494" y="222.845" width="8.924" height="8.924"/><rect class="cls-2" x="240.903" y="222.845" width="8.924" height="8.924"/><rect class="cls-2" x="202.016" y="222.845" width="13.855" height="8.924"/><rect class="cls-2" x="252.652" y="222.845" width="8.924" height="8.924"/><rect class="cls-2" x="113.364" y="190.091" width="8.924" height="8.924"/><rect class="cls-2" x="124.754" y="190.091" width="8.924" height="8.924"/><rect class="cls-2" x="136.144" y="190.091" width="8.924" height="8.924"/><rect class="cls-2" x="147.533" y="190.091" width="8.924" height="8.924"/><rect class="cls-2" x="158.923" y="190.091" width="8.924" height="8.924"/><rect class="cls-2" x="170.313" y="190.091" width="8.924" height="8.924"/><rect class="cls-2" x="181.702" y="190.091" width="8.924" height="8.924"/><rect class="cls-2" x="193.092" y="190.091" width="8.924" height="8.924"/><rect class="cls-2" x="204.481" y="190.091" width="8.924" height="8.924"/><rect class="cls-2" x="215.871" y="190.091" width="8.924" height="8.924"/><rect class="cls-2" x="227.261" y="190.091" width="8.924" height="8.924"/><rect class="cls-2" x="238.65" y="190.091" width="8.924" height="8.924"/><polygon class="cls-2" points="261.576 190.093 261.576 209.891 252.654 209.891 252.654 199.015 250.038 199.015 250.038 190.093 261.576 190.093"/><rect class="cls-2" x="115.977" y="200.966" width="8.924" height="8.924"/><rect class="cls-2" x="127.366" y="200.966" width="8.924" height="8.924"/><rect class="cls-2" x="138.756" y="200.966" width="8.924" height="8.924"/><rect class="cls-2" x="150.145" y="200.966" width="8.924" height="8.924"/><rect class="cls-2" x="161.535" y="200.966" width="8.924" height="8.924"/><rect class="cls-2" x="172.925" y="200.966" width="8.924" height="8.924"/><rect class="cls-2" x="184.314" y="200.966" width="8.924" height="8.924"/><rect class="cls-2" x="195.704" y="200.966" width="8.924" height="8.924"/><rect class="cls-2" x="207.094" y="200.966" width="8.924" height="8.924"/><rect class="cls-2" x="218.483" y="200.966" width="8.924" height="8.924"/><rect class="cls-2" x="229.873" y="200.966" width="8.924" height="8.924"/><rect class="cls-2" x="241.262" y="200.966" width="8.924" height="8.924"/><rect class="cls-2" x="111.136" y="211.841" width="8.924" height="8.924"/><rect class="cls-2" x="122.526" y="211.841" width="8.924" height="8.924"/><rect class="cls-2" x="133.915" y="211.841" width="8.924" height="8.924"/><rect class="cls-2" x="145.305" y="211.841" width="8.924" height="8.924"/><rect class="cls-2" x="156.694" y="211.841" width="8.924" height="8.924"/><rect class="cls-2" x="168.084" y="211.841" width="8.924" height="8.924"/><rect class="cls-2" x="179.474" y="211.841" width="8.924" height="8.924"/><rect class="cls-2" x="190.863" y="211.841" width="8.924" height="8.924"/><rect class="cls-2" x="202.253" y="211.841" width="8.924" height="8.924"/><rect class="cls-2" x="213.643" y="211.841" width="8.924" height="8.924"/><rect class="cls-2" x="225.032" y="211.841" width="8.924" height="8.924"/><rect class="cls-2" x="115.977" y="168.879" width="8.924" height="8.924"/><rect class="cls-2" x="127.366" y="168.879" width="8.924" height="8.924"/><rect class="cls-2" x="138.756" y="168.879" width="8.924" height="8.924"/><rect class="cls-2" x="150.145" y="168.879" width="8.924" height="8.924"/><rect class="cls-2" x="161.535" y="168.879" width="8.924" height="8.924"/><rect class="cls-2" x="172.925" y="168.879" width="8.924" height="8.924"/><rect class="cls-2" x="184.314" y="168.879" width="8.924" height="8.924"/><rect class="cls-2" x="195.704" y="168.879" width="8.924" height="8.924"/><rect class="cls-2" x="207.094" y="168.879" width="8.924" height="8.924"/><rect class="cls-2" x="218.483" y="168.879" width="8.924" height="8.924"/><rect class="cls-2" x="229.873" y="168.879" width="8.924" height="8.924"/><rect class="cls-2" x="241.262" y="168.879" width="8.924" height="8.924"/><rect class="cls-2" x="252.652" y="168.879" width="8.924" height="8.924"/><rect class="cls-2" x="97.782" y="211.841" width="10.811" height="8.924"/><polygon class="cls-10" points="94.202 164.437 97.782 163.243 263.212 163.243 265.57 164.422 94.202 164.437"/><path class="cls-6" d="M264.6,301.235l-3.484-20.984a17.13,17.13,0,0,0-4.717-8.215c-6.93-6.685-16.088-13.548-16.482-22.313-.6-13.393-2.689-12.992-2.466-16.3a40.216,40.216,0,0,0,2.384-4.9,28.625,28.625,0,0,0,1.011-3.967,2.707,2.707,0,0,1,3-2.117,4.6,4.6,0,0,1,2.518,1.181,6.97,6.97,0,0,1,1.887,4.828,20.643,20.643,0,0,1-.743,5.244,34.283,34.283,0,0,1,2.236,9.218c.795-2.451,1.4-4.924,2.191-7.368.164-.089.1-.282.26-.371-1.121-2.407-.171-2.273-2.391-7.569-3.737-8.914-7.9-17.508-10.882-28.709a6.364,6.364,0,0,1,.067-3.15c1.077-3.2,4.375-2.466,5.816-.6a6.164,6.164,0,0,1,.891,1.619,86.561,86.561,0,0,0,7.108,13.7L260.89,222.8s2.816-2.31,3.246-3.343l.008-.007c.423-1.04.631-9.411.631-9.411s-.639,1.567-2.057,1.478c-1.025-.074-3.105.52-4.583-1.144a3.867,3.867,0,0,1-.134-4.858l3.662-4.947a5.553,5.553,0,0,1,5.749-.691,27.369,27.369,0,0,1,6.47,4.531,13.224,13.224,0,0,1,5.63,1.085c2.592,1.248,5.311,4.828,5.311,4.828s3.023.186,4.382,1.174c.342.245,4.955,7.427,3.291,13.021-.988,3.335-1.6,8.178-2.043,9.478l-2.265,32.749,4.568,21.556-9.767,5.445a69.943,69.943,0,0,1-11.24,5.025Z" transform="translate(-48.097 -13.038)"/><path class="cls-1" d="M292.334,262.966l.087-32.834c.358-1.328.644-6.2,1.407-9.594,1.288-5.691-3.791-12.55-4.149-12.772-1.423-.891-4.451-.875-4.451-.875s-2.949-3.394-5.619-4.467a13.244,13.244,0,0,0-5.691-.707,27.183,27.183,0,0,0-6.756-4.093,5.559,5.559,0,0,0-5.691,1.073l-3.322,5.174a3.872,3.872,0,0,0,.453,4.84c1.589,1.566,3.624.835,4.649.835,1.423,0,1.956-1.606,1.956-1.606s.349,8.362,0,9.427l-.008.008c-.366,1.065-3.021,3.553-3.021,3.553l-8.886-11.764a85.857,85.857,0,0,1-8-13.2,6.083,6.083,0,0,0-1-1.558c-1.558-1.765-4.9-2.281-5.762.985a6.4,6.4,0,0,0,.143,3.148c3.72,10.976,8.449,19.274,12.765,27.922,2.567,5.134,1.613,5.071,2.893,7.392-.151.1-.08.294-.239.389-.628,2.5-1.065,5-1.693,7.495a34.369,34.369,0,0,0-2.845-9.045,20.4,20.4,0,0,0,.389-5.285,6.95,6.95,0,0,0-2.2-4.69,4.566,4.566,0,0,0-2.591-1.009,2.706,2.706,0,0,0-2.854,2.313,27.214,27.214,0,0,1-.747,4.021,40.237,40.237,0,0,1-2.051,5.048c0,3.314,2.051,2.773,3.545,16.1,1.161,10.38,14.53,17.239,21.81,24.734l7.757,24.4a150.367,150.367,0,0,0,25.888-13.591Z" transform="translate(-48.097 -13.038)"/><g class="cls-11"><path class="cls-3" d="M288.526,218.35a5.714,5.714,0,0,1,1.706-2.574,2.17,2.17,0,0,1,2.842.1q-.831-2.555-1.765-5.076a7.767,7.767,0,0,0-2.065-3.473,2.777,2.777,0,0,0-3.7-.025,40.061,40.061,0,0,1,.208,11.739c-.275,2.11-.63,4.535.791,6.118.392.319,1.07-.254.823-.694-.117-.208-.538-.221-.72-.2A37.6,37.6,0,0,1,288.526,218.35Z" transform="translate(-48.097 -13.038)"/><path class="cls-3" d="M288.526,218.35a5.714,5.714,0,0,1,1.706-2.574,2.17,2.17,0,0,1,2.842.1q-.831-2.555-1.765-5.076a7.767,7.767,0,0,0-2.065-3.473,2.777,2.777,0,0,0-3.7-.025,40.061,40.061,0,0,1,.208,11.739c-.275,2.11-.63,4.535.791,6.118.392.319,1.07-.254.823-.694-.117-.208-.538-.221-.72-.2A37.6,37.6,0,0,1,288.526,218.35Z" transform="translate(-48.097 -13.038)"/><path class="cls-12" d="M288.526,218.35a5.714,5.714,0,0,1,1.706-2.574,2.17,2.17,0,0,1,2.842.1q-.831-2.555-1.765-5.076a7.767,7.767,0,0,0-2.065-3.473,2.777,2.777,0,0,0-3.7-.025,40.061,40.061,0,0,1,.208,11.739c-.275,2.11-.63,4.535.791,6.118.392.319,1.07-.254.823-.694-.117-.208-.538-.221-.72-.2A37.6,37.6,0,0,1,288.526,218.35Z" transform="translate(-48.097 -13.038)"/><path class="cls-3" d="M276.676,214.826a20.555,20.555,0,0,0,.4,4.261,5.33,5.33,0,0,0,2.374,3.429c-.737-2.768-.338-5.695.064-8.531q.368-2.585.734-5.169a3.931,3.931,0,0,1,.524-1.719,1.347,1.347,0,0,1,1.571-.569c-.734.435-1.687-.148-2.13-.877a22,22,0,0,0-1.141-2.284c-.993-1.277-3.117-1.559-4.586-1.219C274.931,206.391,276.505,210.442,276.676,214.826Z" transform="translate(-48.097 -13.038)"/><path class="cls-3" d="M276.676,214.826a20.555,20.555,0,0,0,.4,4.261,5.33,5.33,0,0,0,2.374,3.429c-.737-2.768-.338-5.695.064-8.531q.368-2.585.734-5.169a3.931,3.931,0,0,1,.524-1.719,1.347,1.347,0,0,1,1.571-.569c-.734.435-1.687-.148-2.13-.877a22,22,0,0,0-1.141-2.284c-.993-1.277-3.117-1.559-4.586-1.219C274.931,206.391,276.505,210.442,276.676,214.826Z" transform="translate(-48.097 -13.038)"/><g class="cls-13"><path class="cls-1" d="M276.676,214.826a20.555,20.555,0,0,0,.4,4.261,5.33,5.33,0,0,0,2.374,3.429c-.737-2.768-.338-5.695.064-8.531q.368-2.585.734-5.169a3.931,3.931,0,0,1,.524-1.719,1.347,1.347,0,0,1,1.571-.569c-.734.435-1.687-.148-2.13-.877a22,22,0,0,0-1.141-2.284c-.993-1.277-3.117-1.559-4.586-1.219C274.931,206.391,276.505,210.442,276.676,214.826Z" transform="translate(-48.097 -13.038)"/></g><path class="cls-3" d="M264.549,203.375a2.608,2.608,0,0,1-.783-1.561,2.232,2.232,0,0,0-.87-1.5c-2.281,1.446-1.034,5.687-3.341,7.094-.446.273-1.017.427-1.266.887a1.167,1.167,0,0,0,.244,1.308,2.254,2.254,0,0,0,1.262.6,5.1,5.1,0,0,0,4.863-2.115,6,6,0,0,0,1.082-4.729A1.144,1.144,0,0,1,264.549,203.375Z" transform="translate(-48.097 -13.038)"/><path class="cls-3" d="M240.836,231.144c-.041.159-.07.357.056.462.195.161.456-.089.6-.3a3.983,3.983,0,0,1,4.424-1.436c.6-.012.806-.927.412-1.381a2.148,2.148,0,0,0-1.663-.535,3.275,3.275,0,0,1-1.754-.289,1.751,1.751,0,0,1-.713-1.872C241.8,227.586,241.3,229.365,240.836,231.144Z" transform="translate(-48.097 -13.038)"/><g class="cls-13"><path class="cls-1" d="M264.549,203.375a2.608,2.608,0,0,1-.783-1.561,2.232,2.232,0,0,0-.87-1.5c-2.281,1.446-1.034,5.687-3.341,7.094-.446.273-1.017.427-1.266.887a1.167,1.167,0,0,0,.244,1.308,2.254,2.254,0,0,0,1.262.6,5.1,5.1,0,0,0,4.863-2.115,6,6,0,0,0,1.082-4.729A1.144,1.144,0,0,1,264.549,203.375Z" transform="translate(-48.097 -13.038)"/><path class="cls-1" d="M240.836,231.144c-.041.159-.07.357.056.462.195.161.456-.089.6-.3a3.983,3.983,0,0,1,4.424-1.436c.6-.012.806-.927.412-1.381a2.148,2.148,0,0,0-1.663-.535,3.275,3.275,0,0,1-1.754-.289,1.751,1.751,0,0,1-.713-1.872C241.8,227.586,241.3,229.365,240.836,231.144Z" transform="translate(-48.097 -13.038)"/></g><path class="cls-3" d="M271.078,202.81a9.99,9.99,0,0,1-3.8-.869c-1.417-.831-2.388-2.6-4.029-2.676-1.458-.063-2.543,1.273-3.372,2.475a4.506,4.506,0,0,1,2.924-4.182,7.257,7.257,0,0,1,5.312.21,19.833,19.833,0,0,1,4.609,2.868,6.259,6.259,0,0,1,1.558,1.521C276.107,205.042,272.225,202.963,271.078,202.81Z" transform="translate(-48.097 -13.038)"/><path class="cls-12" d="M271.078,202.81a9.99,9.99,0,0,1-3.8-.869c-1.417-.831-2.388-2.6-4.029-2.676-1.458-.063-2.543,1.273-3.372,2.475a4.506,4.506,0,0,1,2.924-4.182,7.257,7.257,0,0,1,5.312.21,19.833,19.833,0,0,1,4.609,2.868,6.259,6.259,0,0,1,1.558,1.521C276.107,205.042,272.225,202.963,271.078,202.81Z" transform="translate(-48.097 -13.038)"/><path class="cls-3" d="M247.844,245c.089-.163.167-.331.244-.5A.564.564,0,0,0,247.844,245Z" transform="translate(-48.097 -13.038)"/><path class="cls-3" d="M250.05,233.489c-.145-1.831.115-3.673.039-5.508a7.214,7.214,0,0,0-1.893-5.026c-1.916-1.807-7.165-.883-5.405,2.546a2.2,2.2,0,0,0,2.725,1.016,1.986,1.986,0,0,0,.925-2.684,9.517,9.517,0,0,1-.45,10.82,8.646,8.646,0,0,1,2.1,9.843,1.076,1.076,0,0,1,1.222-.012,3.776,3.776,0,0,1,.947,1.679c.253.6.745,1.225,1.395,1.181a11.254,11.254,0,0,0,.016-6.966A42.3,42.3,0,0,1,250.05,233.489Z" transform="translate(-48.097 -13.038)"/><path class="cls-3" d="M269.268,199.043a7.375,7.375,0,0,0-3.512-1.481Z" transform="translate(-48.097 -13.038)"/><path class="cls-3" d="M278,222.285c-.282-1.263-.865-2.439-1.213-3.685-.81-2.905-.3-6.008-.672-9a15.528,15.528,0,0,0-5.519-10l-1.33-.561a7.492,7.492,0,0,1,2.678,3.892,70.173,70.173,0,0,1,1.807,10.916,147.239,147.239,0,0,0,3.088,16.8C277.726,227.938,278.622,225.067,278,222.285Z" transform="translate(-48.097 -13.038)"/><path class="cls-3" d="M263.859,209.076a4.645,4.645,0,0,0,1.569-3.052,12.477,12.477,0,0,0-.084-3.135,1.021,1.021,0,0,1-1.168.7,2.615,2.615,0,0,1-1.4-1.278l-.272.935c-.036-.168-.073-.337-.109-.506l-.353.449c.526,1.491,1.034,3.221.221,4.578a5.439,5.439,0,0,1-1.672,1.548A2.833,2.833,0,0,0,263.859,209.076Z" transform="translate(-48.097 -13.038)"/><path class="cls-3" d="M265.3,202.519c.015.123.028.247.043.37A.559.559,0,0,0,265.3,202.519Z" transform="translate(-48.097 -13.038)"/><path class="cls-3" d="M261.42,217.551c-2.605-5.116-5.212-10.235-8.075-15.212a49.007,49.007,0,0,0-5.68-8.292c-.989-1.111-3.832-3.683-5.4-1.989-1.044,1.13.33,3.185-.956,4.407.295.017,1.747-.141,1.9.049A22.6,22.6,0,0,1,248.2,210.92c1.049-.823,2.484.319,3.3,1.371a242.61,242.61,0,0,1,14.09,20.13c-.844-3.068-.864-6.323-1.775-9.372A33.3,33.3,0,0,0,261.42,217.551Z" transform="translate(-48.097 -13.038)"/><path class="cls-3" d="M291.677,230.022A32.381,32.381,0,0,0,294,219.742a16.875,16.875,0,0,0-2.332-9.3c-.429-.7-2.215-3.543-3.191-3.311-1.743.412.546,3.444.945,4.2,1.507,2.858,3.054,5.882,2.957,9.112-.074,2.489-1.121,4.827-1.958,7.172a15.185,15.185,0,0,0-1.047,5.1c-.128.191-.246.388-.385.572a7.645,7.645,0,0,1-4.667,3.075l2.154-6.647a2.829,2.829,0,0,0-.112-2.424,1.99,1.99,0,0,0,.227-.968,4.657,4.657,0,0,0-.629-1.706c-.994-2.141-.658-4.628-.416-6.976a21.983,21.983,0,0,0-.439-8.663,9.34,9.34,0,0,0-5.575-6.292l.708.764-.936-.68q.872,1.81,1.741,3.621l-.641.916a2.068,2.068,0,0,1,2.625,1.215,6.38,6.38,0,0,1,.217,3.2,64.008,64.008,0,0,0,.877,18.017,8.845,8.845,0,0,1-1.069,3.964,3.929,3.929,0,0,1-3.715,2.013,3.907,3.907,0,0,0-1.432-3.959c-1.5,2.079-.616,5.31-.388,7.678a84.172,84.172,0,0,0,1.725,10.668,34.429,34.429,0,0,1,1.9-8.942l2.424,8.8a5.217,5.217,0,0,1,.458-2.4,1.79,1.79,0,0,1,2.05-.951,2.52,2.52,0,0,1,1.228,1.527A27.334,27.334,0,0,1,288.8,264.2a2.266,2.266,0,0,0,2.871-1.113,6.588,6.588,0,0,0,.527-3.34Z" transform="translate(-48.097 -13.038)"/><path class="cls-3" d="M266.5,233.165c-.476.835,1.47,4.148,1.793,4.935l4.911,11.991a56.6,56.6,0,0,0-3.808-15.356C269.058,233.906,267.441,231.509,266.5,233.165Z" transform="translate(-48.097 -13.038)"/><path class="cls-3" d="M269.039,211.981c-.279.422-.679.942-1.163.794-.451-.138-.528-.734-.52-1.206q.067-4.171.136-8.342c-2.245,1.608-1.957,3.718-2.115,6.118-.091,1.39.311,8.019-.637,8.831a24.833,24.833,0,0,0,5.527-6.726C269.878,211.127,269.317,211.558,269.039,211.981Z" transform="translate(-48.097 -13.038)"/><g class="cls-13"><path class="cls-1" d="M247.844,245c.089-.163.167-.331.244-.5A.564.564,0,0,0,247.844,245Z" transform="translate(-48.097 -13.038)"/><path class="cls-1" d="M250.05,233.489c-.145-1.831.115-3.673.039-5.508a7.214,7.214,0,0,0-1.893-5.026c-1.916-1.807-7.165-.883-5.405,2.546a2.2,2.2,0,0,0,2.725,1.016,1.986,1.986,0,0,0,.925-2.684,9.517,9.517,0,0,1-.45,10.82,8.646,8.646,0,0,1,2.1,9.843,1.076,1.076,0,0,1,1.222-.012,3.776,3.776,0,0,1,.947,1.679c.253.6.745,1.225,1.395,1.181a11.254,11.254,0,0,0,.016-6.966A42.3,42.3,0,0,1,250.05,233.489Z" transform="translate(-48.097 -13.038)"/><path class="cls-1" d="M269.268,199.043a7.375,7.375,0,0,0-3.512-1.481Z" transform="translate(-48.097 -13.038)"/><path class="cls-1" d="M278,222.285c-.282-1.263-.865-2.439-1.213-3.685-.81-2.905-.3-6.008-.672-9a15.528,15.528,0,0,0-5.519-10l-1.33-.561a7.492,7.492,0,0,1,2.678,3.892,70.173,70.173,0,0,1,1.807,10.916,147.239,147.239,0,0,0,3.088,16.8C277.726,227.938,278.622,225.067,278,222.285Z" transform="translate(-48.097 -13.038)"/><path class="cls-1" d="M263.859,209.076a4.645,4.645,0,0,0,1.569-3.052,12.477,12.477,0,0,0-.084-3.135,1.021,1.021,0,0,1-1.168.7,2.615,2.615,0,0,1-1.4-1.278l-.272.935c-.036-.168-.073-.337-.109-.506l-.353.449c.526,1.491,1.034,3.221.221,4.578a5.439,5.439,0,0,1-1.672,1.548A2.833,2.833,0,0,0,263.859,209.076Z" transform="translate(-48.097 -13.038)"/><path class="cls-1" d="M265.3,202.519c.015.123.028.247.043.37A.559.559,0,0,0,265.3,202.519Z" transform="translate(-48.097 -13.038)"/><path class="cls-1" d="M261.42,217.551c-2.605-5.116-5.212-10.235-8.075-15.212a49.007,49.007,0,0,0-5.68-8.292c-.989-1.111-3.832-3.683-5.4-1.989-1.044,1.13.33,3.185-.956,4.407.295.017,1.747-.141,1.9.049A22.6,22.6,0,0,1,248.2,210.92c1.049-.823,2.484.319,3.3,1.371a242.61,242.61,0,0,1,14.09,20.13c-.844-3.068-.864-6.323-1.775-9.372A33.3,33.3,0,0,0,261.42,217.551Z" transform="translate(-48.097 -13.038)"/><path class="cls-1" d="M291.677,230.022A32.381,32.381,0,0,0,294,219.742a16.875,16.875,0,0,0-2.332-9.3c-.429-.7-2.215-3.543-3.191-3.311-1.743.412.546,3.444.945,4.2,1.507,2.858,3.054,5.882,2.957,9.112-.074,2.489-1.121,4.827-1.958,7.172a15.185,15.185,0,0,0-1.047,5.1c-.128.191-.246.388-.385.572a7.645,7.645,0,0,1-4.667,3.075l2.154-6.647a2.829,2.829,0,0,0-.112-2.424,1.99,1.99,0,0,0,.227-.968,4.657,4.657,0,0,0-.629-1.706c-.994-2.141-.658-4.628-.416-6.976a21.983,21.983,0,0,0-.439-8.663,9.34,9.34,0,0,0-5.575-6.292l.708.764-.936-.68q.872,1.81,1.741,3.621l-.641.916a2.068,2.068,0,0,1,2.625,1.215,6.38,6.38,0,0,1,.217,3.2,64.008,64.008,0,0,0,.877,18.017,8.845,8.845,0,0,1-1.069,3.964,3.929,3.929,0,0,1-3.715,2.013,3.907,3.907,0,0,0-1.432-3.959c-1.5,2.079-.616,5.31-.388,7.678a84.172,84.172,0,0,0,1.725,10.668,34.429,34.429,0,0,1,1.9-8.942l2.424,8.8a5.217,5.217,0,0,1,.458-2.4,1.79,1.79,0,0,1,2.05-.951,2.52,2.52,0,0,1,1.228,1.527A27.334,27.334,0,0,1,288.8,264.2a2.266,2.266,0,0,0,2.871-1.113,6.588,6.588,0,0,0,.527-3.34Z" transform="translate(-48.097 -13.038)"/><path class="cls-1" d="M266.5,233.165c-.476.835,1.47,4.148,1.793,4.935l4.911,11.991a56.6,56.6,0,0,0-3.808-15.356C269.058,233.906,267.441,231.509,266.5,233.165Z" transform="translate(-48.097 -13.038)"/><path class="cls-1" d="M269.039,211.981c-.279.422-.679.942-1.163.794-.451-.138-.528-.734-.52-1.206q.067-4.171.136-8.342c-2.245,1.608-1.957,3.718-2.115,6.118-.091,1.39.311,8.019-.637,8.831a24.833,24.833,0,0,0,5.527-6.726C269.878,211.127,269.317,211.558,269.039,211.981Z" transform="translate(-48.097 -13.038)"/></g></g><path class="cls-14" d="M274.726,202.884a58.413,58.413,0,0,1,2.026,14.872,7.892,7.892,0,0,0,.265,2.493,2.463,2.463,0,0,0,1.7,1.7" transform="translate(-48.097 -13.038)"/><path class="cls-14" d="M285.231,207.764c2.206,4.651-.052,15.037.115,15.769a2.613,2.613,0,0,0,1.252,1.784" transform="translate(-48.097 -13.038)"/><path class="cls-14" d="M266.08,202.248c-.259,1.478-.476,3.192-.735,4.67A8.619,8.619,0,0,1,262.367,201" transform="translate(-48.097 -13.038)"/><path class="cls-14" d="M251.85,241.881l-1.6.705" transform="translate(-48.097 -13.038)"/><path class="cls-14" d="M252.261,243.167a9.308,9.308,0,0,0-.018,3.758" transform="translate(-48.097 -13.038)"/><path class="cls-14" d="M261.647,229.285q.89,1.6,1.778,3.2" transform="translate(-48.097 -13.038)"/><path class="cls-14" d="M265.061,217.571l1.768-2.5" transform="translate(-48.097 -13.038)"/><path class="cls-14" d="M289.927,229.285l-.534,1.957" transform="translate(-48.097 -13.038)"/><path class="cls-14" d="M285.6,223.932q.781-2.5,1.564-4.992" transform="translate(-48.097 -13.038)"/><path class="cls-14" d="M290.83,215.081a2,2,0,0,1,2.7.841" transform="translate(-48.097 -13.038)"/><path class="cls-14" d="M280.155,206.554a3.842,3.842,0,0,1,3.579.819" transform="translate(-48.097 -13.038)"/><path class="cls-14" d="M247.071,211.507a5.449,5.449,0,0,1,4.61-1.736" transform="translate(-48.097 -13.038)"/><path class="cls-14" d="M240.37,197.5a4.974,4.974,0,0,1,3.741-.875" transform="translate(-48.097 -13.038)"/><path class="cls-1" d="M241.748,230.735a9.508,9.508,0,0,0-2.178,2.45Z" transform="translate(-48.097 -13.038)"/><path class="cls-14" d="M242.462,227.363c1.174-.84,3.045,1.037,4.125.08a1.733,1.733,0,0,0,.363-1.609,5.4,5.4,0,0,1-.215-1.7" transform="translate(-48.097 -13.038)"/><path class="cls-14" d="M275.583,222.212a13.435,13.435,0,0,1,.815,9.52" transform="translate(-48.097 -13.038)"/><path class="cls-14" d="M284.21,226.792a6.151,6.151,0,0,1-.745,4.083" transform="translate(-48.097 -13.038)"/><path class="cls-15" d="M272.606,298.327l-7.757-24.4c-7.28-7.5-20.649-14.354-21.81-24.734-1.494-13.33-3.545-12.789-3.545-16.1a40.237,40.237,0,0,0,2.051-5.048,27.214,27.214,0,0,0,.747-4.021,2.706,2.706,0,0,1,2.854-2.313,4.566,4.566,0,0,1,2.591,1.009,6.95,6.95,0,0,1,2.2,4.69,20.4,20.4,0,0,1-.389,5.285,34.369,34.369,0,0,1,2.845,9.045c.628-2.5,1.065-5,1.693-7.495.159-.1.088-.286.239-.389-1.28-2.321-.326-2.258-2.893-7.392-4.316-8.648-9.045-16.946-12.765-27.922a6.4,6.4,0,0,1-.143-3.148c.866-3.266,4.2-2.75,5.762-.985a6.083,6.083,0,0,1,1,1.558,85.857,85.857,0,0,0,8,13.2l8.886,11.764s2.655-2.488,3.021-3.553l.008-.008c.349-1.065,0-9.427,0-9.427s-.533,1.606-1.956,1.606c-1.025,0-3.06.731-4.649-.835a3.872,3.872,0,0,1-.453-4.84l3.322-5.174a5.559,5.559,0,0,1,5.691-1.073,27.183,27.183,0,0,1,6.756,4.093,13.244,13.244,0,0,1,5.691.707c2.67,1.073,5.619,4.467,5.619,4.467s3.028-.016,4.451.875c.358.222,5.437,7.081,4.149,12.772-.763,3.394-1.049,8.266-1.407,9.594l-.087,32.834,6.16,21.77" transform="translate(-48.097 -13.038)"/><path class="cls-15" d="M274.726,202.884a58.413,58.413,0,0,1,2.026,14.872,7.892,7.892,0,0,0,.265,2.493,2.463,2.463,0,0,0,1.7,1.7" transform="translate(-48.097 -13.038)"/><path class="cls-15" d="M285.231,207.764c2.206,4.651-.052,15.037.115,15.769a2.613,2.613,0,0,0,1.252,1.784" transform="translate(-48.097 -13.038)"/><path class="cls-15" d="M266.08,202.248c-.259,1.478-.476,3.192-.735,4.67A8.619,8.619,0,0,1,262.367,201" transform="translate(-48.097 -13.038)"/><path class="cls-15" d="M251.85,241.881l-1.6.705" transform="translate(-48.097 -13.038)"/><path class="cls-15" d="M252.261,243.167a9.308,9.308,0,0,0-.018,3.758" transform="translate(-48.097 -13.038)"/><path class="cls-15" d="M261.647,229.285q.89,1.6,1.778,3.2" transform="translate(-48.097 -13.038)"/><path class="cls-15" d="M265.061,217.571l1.768-2.5" transform="translate(-48.097 -13.038)"/><path class="cls-15" d="M289.927,229.285l-.534,1.957" transform="translate(-48.097 -13.038)"/><path class="cls-15" d="M285.6,223.932q.781-2.5,1.564-4.992" transform="translate(-48.097 -13.038)"/><path class="cls-15" d="M290.83,215.081a2,2,0,0,1,2.7.841" transform="translate(-48.097 -13.038)"/><path class="cls-15" d="M280.155,206.554a3.842,3.842,0,0,1,3.579.819" transform="translate(-48.097 -13.038)"/><path class="cls-15" d="M247.071,211.507a5.449,5.449,0,0,1,4.61-1.736" transform="translate(-48.097 -13.038)"/><path class="cls-15" d="M240.37,197.5a4.974,4.974,0,0,1,3.741-.875" transform="translate(-48.097 -13.038)"/><path class="cls-15" d="M241.748,230.735a9.508,9.508,0,0,0-2.178,2.45" transform="translate(-48.097 -13.038)"/><path class="cls-15" d="M242.462,227.363c1.174-.84,3.045,1.037,4.125.08a1.733,1.733,0,0,0,.363-1.609,5.4,5.4,0,0,1-.215-1.7" transform="translate(-48.097 -13.038)"/><path class="cls-15" d="M275.583,222.212a13.435,13.435,0,0,1,.815,9.52" transform="translate(-48.097 -13.038)"/><path class="cls-15" d="M284.21,226.792a6.151,6.151,0,0,1-.745,4.083" transform="translate(-48.097 -13.038)"/><path class="cls-6" d="M212.394,237.942a4.507,4.507,0,0,1-.067,1.545c-.483,2.236-1.879,8.75-2.392,12.316-.609,4.352-7.643,17.826-7.643,17.826s-6.477,8.052-9.775,12.242c-1.62,2.057-4.182,10.384-6.358,18.317q-4.123-1.248-8.171-2.689c-2.236-.8-4.472-1.634-6.678-2.5a109.4,109.4,0,0,1-11.61-5.66c1.233-4.479,2.058-7.926,2.043-8.126a55.415,55.415,0,0,1,2.644-5.631L162.048,244.8l-1.382-4.687a35.178,35.178,0,0,1-1.359-7.413,35.88,35.88,0,0,1,.958-11.387l4.033-5.987,1.887-.141,5.838-8.156s3.157-.95,3.967,1.427-2.63,6.818-2.63,6.818l-1.181,7.332,2.808,6.863,1.456.535s.49-12.085.156-14.5l3.105-11.031a52.425,52.425,0,0,0,2.421-5.541,3.131,3.131,0,0,1,5.794-.438,4.773,4.773,0,0,1,.3,3.914c-.78,2.266-1.426,4.048-1.426,4.048s-.706,9.345-.929,9.6,1.375,13.912,1.375,13.912l1.218.542.431-13.036,2.532-12.248s-.208-5.89,3.945-5.177a3.208,3.208,0,0,1,3.053,1.9c1.106,2.117.052,16.215.052,16.215l1.025,14.574,1.641,11.238,1.931-7.7s.112-11.037,7.079-11.981c0,0,2.072-.371,2.5,1.07s-1.033,4.382-.825,7.205C211.97,234.555,212.253,236.791,212.394,237.942Z" transform="translate(-48.097 -13.038)"/><path class="cls-1" d="M210.277,224.3c-.318-1.471-2.408-1.256-2.408-1.256-7.019.413-7.965,11.414-7.965,11.414l-2.511,7.535-.787-11.335.079-14.608s2.123-13.981,1.177-16.175a3.2,3.2,0,0,0-2.9-2.122c-4.086-1.025-4.324,4.864-4.324,4.864l-3.45,12.018L185.773,227.6l-1.177-.628s-.556-13.75-.318-13.981,1.654-9.5,1.654-9.5.778-1.725,1.724-3.927a4.756,4.756,0,0,0,0-3.926c-1.653-3.378-5.1-1.8-5.81,0a52.324,52.324,0,0,1-2.829,5.341l-3.935,10.762c.151,2.432-1.248,14.45-1.248,14.45l-1.414-.644-2.281-7.058,1.732-7.225s3.768-4.157,3.14-6.6-3.847-1.725-3.847-1.725l-6.438,7.694h-1.892l-4.475,5.659a35.837,35.837,0,0,0-1.025,18.782l1.025,4.776v30.871a55.748,55.748,0,0,0-3.06,5.413c0,.214-1.263,4.117-3.028,8.981A151.9,151.9,0,0,0,171.307,295q3.315,1.311,6.684,2.5c2.822-7.924,6.12-16.4,7.941-18.384,3.608-3.926,10.674-11.469,10.674-11.469s8.036-12.9,8.974-17.192c.778-3.521,2.662-9.911,3.314-12.105a4.368,4.368,0,0,0,.183-1.534c-.056-1.16-.167-3.41-.167-5.4C208.91,228.59,210.587,225.76,210.277,224.3Z" transform="translate(-48.097 -13.038)"/><g class="cls-16"><path class="cls-3" d="M162.074,221.191c1.2-1.5,3.666-2.071,5.06-.756a5.3,5.3,0,0,1,1.273,2.981,6.351,6.351,0,0,0,1.12,3.06,2.054,2.054,0,0,0,2.9.36l.3,4.88a19.317,19.317,0,0,0,2.558-9.98,19.958,19.958,0,0,1,.1-5.05c.391-1.643,1.667-3.243,3.355-3.32,1.872-.085,3.352,1.738,3.712,3.577s-.062,3.728-.176,5.6a17.124,17.124,0,0,0,1.608,8.329q.591-1.194,1.18-2.389.531,2.4,1.063,4.795l.921-10.552a7.6,7.6,0,0,1,.645-2.9,2.588,2.588,0,0,1,2.385-1.5c1.338.134,2.107,1.561,2.556,2.829,3.346,9.464,1.967,19.862.549,29.8.93.166,1.712-.769,1.944-1.685a22.11,22.11,0,0,1,.5-2.784c.348-.879,1.424-1.6,2.224-1.1,1.17.736.352,3.019,1.583,3.65a16.958,16.958,0,0,1,3.362-8.121c.824-1.07,2.061-2.13,3.367-1.791a2.641,2.641,0,0,1,1.756,2.246c.143,1,1.582-3.12,1.334-2.144.563-5.729-.563-6.334,0-12.063.1-1.035,1.775-2.828,1.063-3.586-.677-.721-2.7-1.776-3.593-1.361s-3.817,1.867-4.4,2.667c-3.649,5.04-3.4,12.338-4.535,18.456-.969-9.33-1.933-18.813-.223-28.036.943-5.087,2.682-10.385,1.04-15.291-.75-2.24-2.74-4.48-5.062-4.054-1.875.343-3.008,2.232-3.77,3.98-2.557,5.869-3.693,12.241-4.809,18.545q2.092-9.516,4.187-19.033a12.863,12.863,0,0,0,.427-5.011,4.387,4.387,0,0,0-3.086-3.638c-1.639-.344-3.268.625-4.5,1.756-4.415,4.039-6.058,10.2-7.5,16.01a11.509,11.509,0,0,0,.861-4.682,3.926,3.926,0,0,0-2.731-3.558c-2.022-.444-3.859,1.362-4.748,3.232s-1.326,4.021-2.741,5.532a3.377,3.377,0,0,0-4.268-.236,8.3,8.3,0,0,0-2.711,3.715,34.552,34.552,0,0,0-2.872,16.7,6.107,6.107,0,0,1,6.1-3.472q-.22-1.9-.443-3.8" transform="translate(-48.097 -13.038)"/><path class="cls-3" d="M166.963,233.276q-.094,1.407-.188,2.813a1.351,1.351,0,0,1,2.058-.522,2.982,2.982,0,0,1,.467-1.738c.236-.565.261-1.367-.289-1.635-.653-.319-1.3.431-1.643,1.071l-.086-.7Z" transform="translate(-48.097 -13.038)"/><path class="cls-3" d="M177.619,231.6a6.533,6.533,0,0,0-1.5,3.1,3.191,3.191,0,0,1,1.086-.8,1.09,1.09,0,0,1,1.235.275c.167.226.227.553.477.682a.593.593,0,0,0,.726-.267,1.724,1.724,0,0,0,.189-.82,4.592,4.592,0,0,0-.09-1.613,1.561,1.561,0,0,0-1.073-1.118.958.958,0,0,0-1.162.816Z" transform="translate(-48.097 -13.038)"/><path class="cls-3" d="M187.933,234.156a8.388,8.388,0,0,0-1.557,3.739,3.243,3.243,0,0,0,1.443-.775,2.874,2.874,0,0,1,1.464-.724,1.031,1.031,0,0,1,1.155.907,6.918,6.918,0,0,1,.061-1.888,3.926,3.926,0,0,0-.139-1.871,1.565,1.565,0,0,0-1.431-1.05,1,1,0,0,0-.878,1.33Z" transform="translate(-48.097 -13.038)"/><path class="cls-3" d="M159.551,237.882a7.383,7.383,0,0,0-.865,3.5,1.224,1.224,0,0,1,1.086-1.089,2.481,2.481,0,0,1,1.587.422,4.3,4.3,0,0,0,.1-1.7,1.465,1.465,0,0,0-1.09-1.193c-.565-.091-1.19.455-1.035,1.006l-.175-.429Z" transform="translate(-48.097 -13.038)"/><path class="cls-12" d="M162.074,221.191c1.2-1.5,3.666-2.071,5.06-.756a5.3,5.3,0,0,1,1.273,2.981,6.351,6.351,0,0,0,1.12,3.06,2.054,2.054,0,0,0,2.9.36l.3,4.88a19.317,19.317,0,0,0,2.558-9.98,19.958,19.958,0,0,1,.1-5.05c.391-1.643,1.667-3.243,3.355-3.32,1.872-.085,3.352,1.738,3.712,3.577s-.062,3.728-.176,5.6a17.124,17.124,0,0,0,1.608,8.329q.591-1.194,1.18-2.389.531,2.4,1.063,4.795l.921-10.552a7.6,7.6,0,0,1,.645-2.9,2.588,2.588,0,0,1,2.385-1.5c1.338.134,2.107,1.561,2.556,2.829,3.346,9.464,1.967,19.862.549,29.8.93.166,1.712-.769,1.944-1.685a22.11,22.11,0,0,1,.5-2.784c.348-.879,1.424-1.6,2.224-1.1,1.17.736.352,3.019,1.583,3.65a16.958,16.958,0,0,1,3.362-8.121c.824-1.07,2.061-2.13,3.367-1.791a2.641,2.641,0,0,1,1.756,2.246c.143,1,1.582-3.12,1.334-2.144.563-5.729-.563-6.334,0-12.063.1-1.035,1.775-2.828,1.063-3.586-.677-.721-2.7-1.776-3.593-1.361s-3.817,1.867-4.4,2.667c-3.649,5.04-3.4,12.338-4.535,18.456-.969-9.33-1.933-18.813-.223-28.036.943-5.087,2.682-10.385,1.04-15.291-.75-2.24-2.74-4.48-5.062-4.054-1.875.343-3.008,2.232-3.77,3.98-2.557,5.869-3.693,12.241-4.809,18.545q2.092-9.516,4.187-19.033a12.863,12.863,0,0,0,.427-5.011,4.387,4.387,0,0,0-3.086-3.638c-1.639-.344-3.268.625-4.5,1.756-4.415,4.039-6.058,10.2-7.5,16.01a11.509,11.509,0,0,0,.861-4.682,3.926,3.926,0,0,0-2.731-3.558c-2.022-.444-3.859,1.362-4.748,3.232s-1.326,4.021-2.741,5.532a3.377,3.377,0,0,0-4.268-.236,8.3,8.3,0,0,0-2.711,3.715,34.552,34.552,0,0,0-2.872,16.7,6.107,6.107,0,0,1,6.1-3.472q-.22-1.9-.443-3.8" transform="translate(-48.097 -13.038)"/><g class="cls-13"><path class="cls-1" d="M166.963,233.276q-.094,1.407-.188,2.813a1.351,1.351,0,0,1,2.058-.522,2.982,2.982,0,0,1,.467-1.738c.236-.565.261-1.367-.289-1.635-.653-.319-1.3.431-1.643,1.071l-.086-.7Z" transform="translate(-48.097 -13.038)"/><path class="cls-1" d="M177.619,231.6a6.533,6.533,0,0,0-1.5,3.1,3.191,3.191,0,0,1,1.086-.8,1.09,1.09,0,0,1,1.235.275c.167.226.227.553.477.682a.593.593,0,0,0,.726-.267,1.724,1.724,0,0,0,.189-.82,4.592,4.592,0,0,0-.09-1.613,1.561,1.561,0,0,0-1.073-1.118.958.958,0,0,0-1.162.816Z" transform="translate(-48.097 -13.038)"/><path class="cls-1" d="M187.933,234.156a8.388,8.388,0,0,0-1.557,3.739,3.243,3.243,0,0,0,1.443-.775,2.874,2.874,0,0,1,1.464-.724,1.031,1.031,0,0,1,1.155.907,6.918,6.918,0,0,1,.061-1.888,3.926,3.926,0,0,0-.139-1.871,1.565,1.565,0,0,0-1.431-1.05,1,1,0,0,0-.878,1.33Z" transform="translate(-48.097 -13.038)"/><path class="cls-1" d="M159.551,237.882a7.383,7.383,0,0,0-.865,3.5,1.224,1.224,0,0,1,1.086-1.089,2.481,2.481,0,0,1,1.587.422,4.3,4.3,0,0,0,.1-1.7,1.465,1.465,0,0,0-1.09-1.193c-.565-.091-1.19.455-1.035,1.006l-.175-.429Z" transform="translate(-48.097 -13.038)"/></g></g><path class="cls-15" d="M152.271,285.109c1.765-4.864,3.028-8.767,3.028-8.981a55.748,55.748,0,0,1,3.06-5.413V239.844l-1.025-4.776a35.837,35.837,0,0,1,1.025-18.782l4.475-5.659h1.892l6.438-7.694s3.219-.707,3.847,1.725-3.14,6.6-3.14,6.6l-1.732,7.225,2.281,7.058,1.414.644s1.4-12.018,1.248-14.45l3.935-10.762a52.324,52.324,0,0,0,2.829-5.341c.708-1.8,4.157-3.378,5.81,0a4.757,4.757,0,0,1,0,3.926c-.945,2.2-1.724,3.927-1.724,3.927s-1.415,9.267-1.654,9.506.318,13.98.318,13.98l1.177.628,1.414-12.963,3.45-12.018s.238-5.889,4.324-4.864a3.2,3.2,0,0,1,2.9,2.122c.946,2.194-1.176,16.175-1.176,16.175l-.08,14.608.787,11.335,2.512-7.535s.945-11,7.964-11.414c0,0,2.09-.215,2.408,1.256s-1.367,4.292-1.367,7.121c0,1.987.111,4.237.167,5.4a4.368,4.368,0,0,1-.183,1.534c-.652,2.194-2.536,8.584-3.314,12.105-.938,4.292-8.974,17.192-8.974,17.192s-7.066,7.543-10.674,11.469c-1.821,1.98-5.119,10.46-7.941,18.385" transform="translate(-48.097 -13.038)"/><path class="cls-2" d="M173.705,227.344a4.492,4.492,0,0,1-1.055,4.231" transform="translate(-48.097 -13.038)"/><path class="cls-2" d="M161.727,237.729c1.022-1.58,2.014-3.75,1.74-5.612-.537-3.646-2.2-7.843-1.45-11.452q.716-3.457,1.433-6.916" transform="translate(-48.097 -13.038)"/><path class="cls-15" d="M191.342,203.278a7.255,7.255,0,0,1,3.7.011q.023-.517.043-1.034" transform="translate(-48.097 -13.038)"/><path class="cls-15" d="M181.589,198.638a2.369,2.369,0,0,0,3.75-1.982" transform="translate(-48.097 -13.038)"/><path class="cls-15" d="M208.435,224.423a4.562,4.562,0,0,0-3.41,4.7l1.822.543" transform="translate(-48.097 -13.038)"/><path class="cls-2" d="M184.53,225.33c.082,1.246-.07,4.226.013,5.471" transform="translate(-48.097 -13.038)"/><path class="cls-2" d="M185.9,227.057l-.45,6.124.036-.779" transform="translate(-48.097 -13.038)"/><path class="cls-2" d="M197.231,244.271a10.186,10.186,0,0,1-.695,6.729" transform="translate(-48.097 -13.038)"/><path class="cls-15" d="M178.4,233.568c-1.619,1.776-1.382,6.035-.238,8.378" transform="translate(-48.097 -13.038)"/><path class="cls-15" d="M190.37,236.5a8.341,8.341,0,0,1-1.982,5.448" transform="translate(-48.097 -13.038)"/><path class="cls-15" d="M166.608,234.417a7.587,7.587,0,0,0,1.108,5.177" transform="translate(-48.097 -13.038)"/><path class="cls-15" d="M159.717,239.963a6.309,6.309,0,0,0,1.144,3.967" transform="translate(-48.097 -13.038)"/><path class="cls-15" d="M169.161,205.718a2.36,2.36,0,0,1,2.6.416l.918-1.211" transform="translate(-48.097 -13.038)"/><path class="cls-15" d="M176.783,211.17a3.076,3.076,0,0,1,3.927.667" transform="translate(-48.097 -13.038)"/><path class="cls-15" d="M188.687,214.886a4.969,4.969,0,0,1,4.221.088" transform="translate(-48.097 -13.038)"/><path class="cls-15" d="M162.2,221.117a4.028,4.028,0,0,1,3.893-1.931" transform="translate(-48.097 -13.038)"/><path class="cls-15" d="M157.219,228.223a2.105,2.105,0,0,1,1.761-1.977" transform="translate(-48.097 -13.038)"/><circle class="cls-17" cx="300.513" cy="131.018" r="30.786"/><path class="cls-6" d="M383.465,144.862c-6.564,10.766-8.9,9.312-31.29,20.038-11.366,5.445-22.351-12.06-14.92-30.027.363-.877,3.574-5.311,3.574-5.311a16.4,16.4,0,0,1,28.657-6.774,17.709,17.709,0,0,1,15.732-3.759c.26.758.5,1.5.743,2.229.089.282.186.557.267.839.283.869.55,1.738.8,2.615q.735,2.5,1.367,5.021a10.061,10.061,0,0,0-7.309.438c-1.642.8-3.016,2.125-4.724,2.778s-4.071.282-4.724-1.426c.824,3.432,4.425,2.406,7.884,3.085C384.872,135.659,386.228,140.33,383.465,144.862Z" transform="translate(-48.097 -13.038)"/><path class="cls-18" d="M373.352,139.555s5.512-.747,8.13-.355a5.023,5.023,0,0,1,3.17,1.819,1.755,1.755,0,0,1,.38.983l.3,4.306a1.755,1.755,0,0,1-.475,1.335c-1.075,1.119-4.322,3.162-13.93,3.9C357.411,152.573,373.352,139.555,373.352,139.555Z" transform="translate(-48.097 -13.038)"/><path class="cls-18" d="M369.326,128.421a20.563,20.563,0,0,1,4.511,13.1c0,5.132-5.944,22.663-21.164,24.8-16.11,2.258-29.061-11.53-26.3-28.121C328.291,126.716,356.393,112.347,369.326,128.421Z" transform="translate(-48.097 -13.038)"/><ellipse class="cls-1" cx="301.545" cy="127.32" rx="23.376" ry="22.125"/><ellipse class="cls-10" cx="301.496" cy="128.479" rx="19.19" ry="18.163"/><path class="cls-17" d="M373.017,140.358c0-12.219-10.466-22.125-23.376-22.125s-23.375,9.906-23.375,22.125" transform="translate(-48.097 -13.038)"/><path class="cls-17" d="M366.849,155.333a21.411,21.411,0,0,0,6.168-14.975" transform="translate(-48.097 -13.038)"/><path class="cls-17" d="M333.267,156.148a23.994,23.994,0,0,0,16.374,6.335,24.333,24.333,0,0,0,10.85-2.522" transform="translate(-48.097 -13.038)"/><path class="cls-17" d="M329.9,152.2q.459.685.969,1.335" transform="translate(-48.097 -13.038)"/><path class="cls-17" d="M326.266,140.358a21.059,21.059,0,0,0,2.228,9.439" transform="translate(-48.097 -13.038)"/><path class="cls-18" d="M383.946,146.413s-4.168-2.913-10.929-.272" transform="translate(-48.097 -13.038)"/><path class="cls-18" d="M380.358,148.439a42.972,42.972,0,0,1-8.645,1.358" transform="translate(-48.097 -13.038)"/><path class="cls-18" d="M382.524,147.518a3.915,3.915,0,0,1-1.042.537" transform="translate(-48.097 -13.038)"/><path class="cls-1" d="M386.228,122.1c-.081-.282-.178-.557-.267-.839-1.419-4.4-3.246-9.226-5.467-14.321-.409-.944-.839-1.9-1.27-2.867-.171.014-.334.029-.5.044-2.132.216-4.375.483-6.128,1.694-1.76,1.233-2.8,3.766-1.664,5.586,1.114,1.8,4.034,2.807,3.573,4.865-4.761,2.681-10.57,2.369-15.866,3.721a25.831,25.831,0,0,0-8.846,4.175c-.008,0-.008.007-.015.007a27.249,27.249,0,0,0-2.407,2.02,9.608,9.608,0,0,0-.98,1.055c-.008.008-.008.008-.008.015a3.633,3.633,0,0,0-.839,1.887c-.186,1.983,1.619,3.335,3.543,4.2a.434.434,0,0,1-.03.8,11.083,11.083,0,0,0-3.469,2c-.007,0-.014.008-.022.015a.862.862,0,0,0,.721,1.471c.089-.015.2-.023.3-.03a5.617,5.617,0,0,1,2.243.267,2.7,2.7,0,0,1,2.013,2.125c.119,1.508-1.6,2.867-3.825,3.038-.543.052-.127.7.668.832a11.866,11.866,0,0,0,4.754-.387c1.864-.445,3.855-1.091,4.91-2.688a3.362,3.362,0,0,0,.445-2.362,2.388,2.388,0,0,0-1.975-2.169,65.031,65.031,0,0,0,10.191-2.043h.007l1.047-.319a9.8,9.8,0,0,0,2.875-1.256,3.99,3.99,0,0,0,1.255-1.381c.773-1.493-.319-3.855-1.968-3.543,4.791-1.88,9.857-2.979,14.7-4.71C384.7,122.721,385.471,122.424,386.228,122.1Z" transform="translate(-48.097 -13.038)"/><path class="cls-6" d="M349.505,57.846a94.378,94.378,0,0,1-14.782,10.429c-27.044,16-57.6,25.581-88.674,30.253s-62.721,4.531-94.036,1.954c-6.151-.5-12.4-1.129-18.058-3.61-4.791-2.11-9.136-5.779-11.171-10.525,6.782-7.725,13.088-15.539,20.107-22.915q2.507-2.642,5.14-5.192c1.486-1.419,2.994-2.816,4.561-4.182,1.79-1.575,3.632-3.113,5.563-4.6,2.637-2.05,5.415-4.019,8.387-5.9.727-.468,1.448-.921,2.176-1.367,74.063-46.03,128.576-31,164.943,0q4.111,3.488,7.918,7.265c1.545,1.493,3.038,3.038,4.487,4.6.163.163.312.334.468.512Q348.059,56.2,349.505,57.846Z" transform="translate(-48.097 -13.038)"/><path class="cls-18" d="M352.428,50.46,103.248,51.6l3.769-5.648a9.77,9.77,0,0,1,8.127-4.346H340.621a9.769,9.769,0,0,1,7.61,3.643Z" transform="translate(-48.097 -13.038)"/><rect class="cls-19" x="145.064" y="74.776" width="64.388" height="64.388" rx="20.552"/><path class="cls-20" d="M204.864,125.445V134.6a5.2,5.2,0,0,0,5.2,5.2h31.4a5.2,5.2,0,0,0,5.2-5.164c.039-4.119.259-9.19.259-9.19Z" transform="translate(-48.097 -13.038)"/><path class="cls-21" d="M319.776,128.5H136.155a4.7,4.7,0,0,1-4.383-3L103.449,52.819a2.9,2.9,0,0,1,2.7-3.953H349.78a2.9,2.9,0,0,1,2.7,3.953l-28.323,72.688A4.7,4.7,0,0,1,319.776,128.5Z" transform="translate(-48.097 -13.038)"/><polygon class="cls-10" points="273.042 109.13 86.254 109.13 60.551 40.433 298.623 40.433 273.042 109.13"/><rect class="cls-10" x="156.968" y="115.366" width="41.642" height="2.851"/><path class="cls-3" d="M293.853,119.218h-131.9c-.725,0-1.416-.329-1.544-.737L141.647,58.874c-.211-.669.374-1.213,1.308-1.213h169.9c.933,0,1.519.544,1.308,1.213L295.4,118.481C295.268,118.889,294.577,119.218,293.853,119.218Z" transform="translate(-48.097 -13.038)"/><polygon class="cls-10" points="245.27 104.829 114.341 104.829 98.398 52.455 261.213 52.455 245.27 104.829"/><path class="cls-1" d="M181.231,78.5H156.444c-.612,0-1.014.33-.9.736a1.361,1.361,0,0,0,1.311.732H181.5c.608,0,1.043-.327.971-.732S181.843,78.5,181.231,78.5Z" transform="translate(-48.097 -13.038)"/><path class="cls-1" d="M182.061,83.02H160.98c-.6,0-1,.319-.895.711a1.316,1.316,0,0,0,1.275.706h20.961c.6,0,1.025-.316.955-.706S182.662,83.02,182.061,83.02Z" transform="translate(-48.097 -13.038)"/><path class="cls-12" d="M182.862,87.388h-23.92c-.591,0-.982.307-.874.685a1.305,1.305,0,0,0,1.258.682h23.787c.587,0,1.009-.3.941-.682S183.452,87.388,182.862,87.388Z" transform="translate(-48.097 -13.038)"/><path class="cls-1" d="M183.635,91.605H169.586c-.581,0-.978.3-.888.662s.63.659,1.207.659h13.973c.577,0,.992-.294.927-.659S184.216,91.605,183.635,91.605Z" transform="translate(-48.097 -13.038)"/><path class="cls-1" d="M184.383,95.679H161.271c-.571,0-.952.288-.851.641a1.257,1.257,0,0,0,1.209.637h22.988c.568,0,.977-.285.914-.637S184.954,95.679,184.383,95.679Z" transform="translate(-48.097 -13.038)"/><path class="cls-1" d="M185.106,99.619H166.442c-.562,0-.942.277-.851.619s.618.616,1.176.616h18.565c.558,0,.962-.275.9-.616S185.667,99.619,185.106,99.619Z" transform="translate(-48.097 -13.038)"/><path class="cls-1" d="M185.805,103.429H167.446c-.552,0-.928.269-.84.6s.605.6,1.154.6h18.264c.549,0,.947-.267.888-.6S186.357,103.429,185.805,103.429Z" transform="translate(-48.097 -13.038)"/><path class="cls-1" d="M186.481,107.118H166.45c-.543,0-.911.26-.823.58s.6.577,1.138.577h19.928c.541,0,.933-.258.876-.577S187.024,107.118,186.481,107.118Z" transform="translate(-48.097 -13.038)"/><path class="cls-12" d="M187.136,110.689H174.2c-.535,0-.906.252-.83.562s.569.559,1.1.559h12.873c.532,0,.918-.25.863-.559S187.671,110.689,187.136,110.689Z" transform="translate(-48.097 -13.038)"/><path class="cls-12" d="M180.37,73.8H161.9c-.623,0-1.04.342-.931.764a1.351,1.351,0,0,0,1.319.759h18.363c.62,0,1.061-.34.986-.759S180.993,73.8,180.37,73.8Z" transform="translate(-48.097 -13.038)"/><path class="cls-1" d="M179.477,68.935H153.759c-.635,0-1.048.355-.924.792a1.423,1.423,0,0,0,1.368.788h25.564c.631,0,1.08-.352,1-.788A1.265,1.265,0,0,0,179.477,68.935Z" transform="translate(-48.097 -13.038)"/><path class="cls-1" d="M187.771,114.149H166.458c-.526,0-.883.244-.8.545s.579.542,1.1.542H187.97c.524,0,.905-.243.852-.542S188.3,114.149,187.771,114.149Z" transform="translate(-48.097 -13.038)"/><polygon class="cls-12" points="141.84 67.108 146.648 67.108 146.408 65.273 141.564 65.273 141.84 67.108"/><polygon class="cls-12" points="142.511 71.575 147.234 71.575 147.002 69.804 142.245 69.804 142.511 71.575"/><polygon class="cls-12" points="143.159 75.888 147.8 75.888 147.576 74.178 142.902 74.178 143.159 75.888"/><polygon class="cls-12" points="143.784 80.052 148.346 80.052 148.13 78.401 143.536 78.401 143.784 80.052"/><polygon class="cls-12" points="144.389 84.077 148.874 84.077 148.665 82.481 144.149 82.481 144.389 84.077"/><polygon class="cls-12" points="144.973 87.97 149.385 87.97 149.182 86.426 144.742 86.426 144.973 87.97"/><polygon class="cls-12" points="145.539 91.735 149.879 91.735 149.683 90.241 145.315 90.241 145.539 91.735"/><polygon class="cls-12" points="146.087 95.381 150.357 95.381 150.167 93.934 145.869 93.934 146.087 95.381"/><polygon class="cls-12" points="146.617 98.912 150.82 98.912 150.636 97.51 146.406 97.51 146.617 98.912"/><polygon class="cls-12" points="141.145 62.477 146.041 62.477 145.791 60.574 140.859 60.574 141.145 62.477"/><polygon class="cls-12" points="140.423 57.673 145.411 57.673 145.152 55.698 140.126 55.698 140.423 57.673"/><polygon class="cls-12" points="147.131 102.333 151.269 102.333 151.091 100.975 146.927 100.975 147.131 102.333"/><path class="cls-1" d="M220.561,107.7c-.01-.32.422-.58.965-.58H292.7c.543,0,.907.26.814.58s-.606.577-1.146.577H221.559C221.018,108.275,220.572,108.017,220.561,107.7Z" transform="translate(-48.097 -13.038)"/><path class="cls-1" d="M293.414,104.625H254.006c-.549,0-.965-.267-.929-.6s.514-.6,1.066-.6h39.614c.552,0,.921.269.825.6S293.963,104.625,293.414,104.625Z" transform="translate(-48.097 -13.038)"/><path class="cls-12" d="M244.653,104.625h-12.26c-.549,0-.99-.267-.985-.6s.457-.6,1.009-.6h12.324c.551,0,.978.269.953.6S245.2,104.625,244.653,104.625Z" transform="translate(-48.097 -13.038)"/><path class="cls-1" d="M270.238,100.854H214.647c-.559,0-1.028-.276-1.049-.616s.417-.62.978-.62h55.887c.561,0,.964.278.9.62S270.8,100.854,270.238,100.854Z" transform="translate(-48.097 -13.038)"/><path class="cls-12" d="M203.023,99.618h3.963c.561,0,1.04.278,1.069.62s-.4.616-.959.616h-3.941c-.558,0-1.041-.276-1.079-.616S202.462,99.618,203.023,99.618Z" transform="translate(-48.097 -13.038)"/><path class="cls-1" d="M278.278,96.319c-.075.352-.6.637-1.163.637H224.73c-.568,0-1.033-.285-1.039-.637s.451-.64,1.022-.64h52.668C277.952,95.679,278.354,95.966,278.278,96.319Z" transform="translate(-48.097 -13.038)"/><path class="cls-1" d="M202.6,95.679H217.47c.571,0,1.045.287,1.059.64s-.435.637-1,.637H202.739c-.567,0-1.059-.285-1.1-.637S202.032,95.679,202.6,95.679Z" transform="translate(-48.097 -13.038)"/><path class="cls-1" d="M202.169,91.6h57.143c.58,0,1.011.3.962.663s-.557.659-1.134.659H202.31c-.578,0-1.078-.3-1.119-.659S201.588,91.6,202.169,91.6Z" transform="translate(-48.097 -13.038)"/><path class="cls-1" d="M239.269,88.755c-.587,0-1.05-.3-1.034-.682s.507-.686,1.1-.686h30.153c.59,0,1.016.308.95.686s-.595.682-1.182.682Z" transform="translate(-48.097 -13.038)"/><path class="cls-1" d="M201.719,87.387h26.1c.59,0,1.068.308,1.066.686s-.479.682-1.066.682H201.865c-.588,0-1.1-.3-1.139-.682S201.128,87.387,201.719,87.387Z" transform="translate(-48.097 -13.038)"/><path class="cls-1" d="M299.207,84.437H227.379c-.6,0-1.084-.316-1.087-.706s.483-.711,1.084-.711h72.238c.6,0,1,.319.881.711A1.344,1.344,0,0,1,299.207,84.437Z" transform="translate(-48.097 -13.038)"/><path class="cls-1" d="M300.491,79.963h-63.2c-.609,0-1.091-.327-1.078-.732s.52-.736,1.132-.736h63.572c.612,0,1.012.33.894.736A1.372,1.372,0,0,1,300.491,79.963Z" transform="translate(-48.097 -13.038)"/><path class="cls-12" d="M301.822,75.326H288.587c-.62,0-1.044-.34-.947-.759a1.314,1.314,0,0,1,1.305-.764h13.314c.623,0,1.029.342.906.764A1.4,1.4,0,0,1,301.822,75.326Z" transform="translate(-48.097 -13.038)"/><path class="cls-1" d="M279.327,75.326h-48.6c-.62,0-1.12-.34-1.117-.759s.51-.764,1.133-.764H279.63c.624,0,1.059.342.973.764A1.265,1.265,0,0,1,279.327,75.326Z" transform="translate(-48.097 -13.038)"/><path class="cls-1" d="M204.2,110.689h44.88c.535,0,.943.252.912.562s-.487.559-1.018.559H204.323c-.532,0-.99-.25-1.025-.559S203.669,110.689,204.2,110.689Z" transform="translate(-48.097 -13.038)"/><path class="cls-1" d="M204.573,114.149h68.956c.526,0,.9.244.837.545s-.54.542-1.063.542H204.689c-.524,0-.975-.243-1.009-.542S204.047,114.149,204.573,114.149Z" transform="translate(-48.097 -13.038)"/><path class="cls-1" d="M276.915,70.515H241.81c-.631,0-1.125-.352-1.1-.788s.553-.792,1.188-.792H277.21c.635,0,1.082.355,1,.792A1.275,1.275,0,0,1,276.915,70.515Z" transform="translate(-48.097 -13.038)"/><path class="cls-12" d="M231.852,70.515H199.92c-.632,0-1.182-.352-1.231-.788s.427-.792,1.062-.792h32.125c.635,0,1.143.355,1.134.792S232.483,70.515,231.852,70.515Z" transform="translate(-48.097 -13.038)"/><path class="cls-12" d="M259.043,110.689c.535,0,.932.252.887.562s-.512.559-1.044.559h-3.469c-.532,0-.933-.25-.9-.559s.5-.562,1.036-.562Z" transform="translate(-48.097 -13.038)"/><path class="cls-12" d="M216.47,107.7c.016.319-.409.577-.949.577H210.8c-.541,0-1-.258-1.025-.577s.393-.58.936-.58h4.751C216,107.118,216.454,107.378,216.47,107.7Z" transform="translate(-48.097 -13.038)"/><path class="cls-12" d="M273.483,92.267c-.069.364-.593.659-1.17.659h-5.525c-.577,0-1-.3-.941-.659s.575-.663,1.155-.663h5.555C273.137,91.6,273.552,91.9,273.483,92.267Z" transform="translate(-48.097 -13.038)"/><path class="cls-12" d="M290.722,95.679c.57,0,.956.287.861.64a1.236,1.236,0,0,1-1.2.637h-4.4c-.567,0-.959-.285-.873-.637s.617-.64,1.188-.64Z" transform="translate(-48.097 -13.038)"/><path class="cls-12" d="M218.678,84.437c-.6,0-1.095-.316-1.111-.706s.458-.711,1.059-.711h4.689c.6,0,1.092.319,1.1.711s-.475.706-1.072.706Z" transform="translate(-48.097 -13.038)"/><path class="cls-1" d="M154.844,61.566a1.583,1.583,0,0,1-1.563,2.192,3.3,3.3,0,0,1-2.925-2.192,1.588,1.588,0,0,1,1.547-2.244A3.289,3.289,0,0,1,154.844,61.566Z" transform="translate(-48.097 -13.038)"/><path class="cls-1" d="M160.89,61.6a1.634,1.634,0,0,1-1.634,2.191A3.163,3.163,0,0,1,156.4,61.6a1.638,1.638,0,0,1,1.619-2.243A3.158,3.158,0,0,1,160.89,61.6Z" transform="translate(-48.097 -13.038)"/><path class="cls-1" d="M167.005,61.566a1.69,1.69,0,0,1-1.7,2.192,3.037,3.037,0,0,1-2.783-2.192,1.693,1.693,0,0,1,1.693-2.244A3.028,3.028,0,0,1,167.005,61.566Z" transform="translate(-48.097 -13.038)"/><polygon class="cls-22" points="60.551 40.433 80.568 93.934 104.716 40.433 60.551 40.433"/><polygon class="cls-22" points="94.324 109.13 134.382 40.433 176.316 40.433 117.361 109.13 94.324 109.13"/><polygon class="cls-22" points="194.387 40.096 131.951 109.13 141.564 109.13 206.242 40.433 194.387 40.096"/><polygon class="cls-22" points="206.715 109.13 275.336 40.433 285.019 40.433 214.27 109.13 206.715 109.13"/><path class="cls-18" d="M161.774,151.985H146.1a3.683,3.683,0,0,0-3.683,3.683v7.624a3.683,3.683,0,0,0,3.683,3.683h4.1l3.1,7.035,4.376-7.035h4.095a3.683,3.683,0,0,0,3.684-3.683v-7.624A3.683,3.683,0,0,0,161.774,151.985Z" transform="translate(-48.097 -13.038)"/><path class="cls-10" d="M151.761,156.345a.726.726,0,0,1,.764-.715.709.709,0,0,1,.763.686.764.764,0,0,1-1.527.029Zm.163,1.556h1.193V163h-1.193Z" transform="translate(-48.097 -13.038)"/><path class="cls-10" d="M156,157.633v.306h1.4v.954h-1.365V163h-1.193v-4.1H154v-.954h.839v-.324a1.647,1.647,0,0,1,1.823-1.766,1.91,1.91,0,0,1,1.079.277l-.334.9a1.179,1.179,0,0,0-.659-.21C156.255,156.813,156,157.09,156,157.633Z" transform="translate(-48.097 -13.038)"/><path class="cls-18" d="M209.473,153.052H193.8a3.683,3.683,0,0,0-3.683,3.683v7.624a3.683,3.683,0,0,0,3.683,3.684h4.1l3.1,7.034,4.375-7.034h4.1a3.684,3.684,0,0,0,3.684-3.684v-7.624A3.683,3.683,0,0,0,209.473,153.052Z" transform="translate(-48.097 -13.038)"/><path class="cls-10" d="M197.1,161.9h-4a1.543,1.543,0,0,0,1.651,1.221,1.824,1.824,0,0,0,1.384-.554l.639.735a2.862,2.862,0,0,1-4.867-1.785,2.535,2.535,0,0,1,2.634-2.6,2.485,2.485,0,0,1,2.577,2.634C197.116,161.64,197.106,161.784,197.1,161.9Zm-4.008-.792h2.891a1.387,1.387,0,0,0-1.441-1.242A1.408,1.408,0,0,0,193.089,161.107Z" transform="translate(-48.097 -13.038)"/><path class="cls-10" d="M198.258,156.983h1.193v7.082h-1.193Z" transform="translate(-48.097 -13.038)"/><path class="cls-10" d="M200.432,163.559l.458-.907a3.424,3.424,0,0,0,1.775.506c.754,0,1.069-.21,1.069-.563,0-.973-3.15-.057-3.15-2.09,0-.964.869-1.594,2.243-1.594a4.071,4.071,0,0,1,1.909.439l-.459.907a2.789,2.789,0,0,0-1.459-.382c-.726,0-1.069.239-1.069.573,0,1.031,3.149.114,3.149,2.109,0,.954-.878,1.574-2.31,1.574A4.051,4.051,0,0,1,200.432,163.559Z" transform="translate(-48.097 -13.038)"/><path class="cls-10" d="M210.7,161.9h-4a1.542,1.542,0,0,0,1.651,1.221,1.824,1.824,0,0,0,1.384-.554l.639.735a2.862,2.862,0,0,1-4.867-1.785,2.535,2.535,0,0,1,2.634-2.6,2.485,2.485,0,0,1,2.577,2.634C210.717,161.64,210.707,161.784,210.7,161.9Zm-4.008-.792h2.891a1.387,1.387,0,0,0-1.441-1.242A1.408,1.408,0,0,0,206.69,161.107Z" transform="translate(-48.097 -13.038)"/><path class="cls-18" d="M255.719,152.6h-15.67a3.683,3.683,0,0,0-3.683,3.683v7.624a3.683,3.683,0,0,0,3.683,3.683h4.1l3.1,7.035,4.375-7.035h4.1a3.684,3.684,0,0,0,3.684-3.683v-7.624A3.684,3.684,0,0,0,255.719,152.6Z" transform="translate(-48.097 -13.038)"/><path class="cls-10" d="M243.643,158.249v.306h1.4v.954h-1.365v4.1h-1.193v-4.1h-.839v-.954h.839v-.325a1.647,1.647,0,0,1,1.823-1.765,1.908,1.908,0,0,1,1.079.277l-.335.9a1.17,1.17,0,0,0-.658-.209C243.9,157.429,243.643,157.706,243.643,158.249Z" transform="translate(-48.097 -13.038)"/><path class="cls-10" d="M245.35,161.064a2.717,2.717,0,1,1,2.71,2.615A2.565,2.565,0,0,1,245.35,161.064Zm4.227,0a1.515,1.515,0,1,0-1.517,1.594A1.483,1.483,0,0,0,249.577,161.064Z" transform="translate(-48.097 -13.038)"/><path class="cls-10" d="M254.87,158.459V159.6a1.527,1.527,0,0,0-.277-.028,1.389,1.389,0,0,0-1.48,1.574v2.472h-1.192v-5.1h1.135v.744A2.008,2.008,0,0,1,254.87,158.459Z" transform="translate(-48.097 -13.038)"/><path class="cls-18" d="M301.3,151.985h-15.67a3.683,3.683,0,0,0-3.683,3.683v7.624a3.683,3.683,0,0,0,3.683,3.683h4.1l3.1,7.035,4.376-7.035H301.3a3.683,3.683,0,0,0,3.684-3.683v-7.624A3.683,3.683,0,0,0,301.3,151.985Z" transform="translate(-48.097 -13.038)"/><path class="cls-10" d="M291.426,157.65h4.4v.954h-4.4Zm0,2.309h4.4v.955h-4.4Z" transform="translate(-48.097 -13.038)"/><path class="cls-18" d="M185.66,143.161H169.99a3.684,3.684,0,0,0-3.684,3.684v7.623a3.684,3.684,0,0,0,3.684,3.684h4.095l3.1,7.034,4.375-7.034h4.1a3.683,3.683,0,0,0,3.683-3.684v-7.623A3.683,3.683,0,0,0,185.66,143.161Z" transform="translate(-48.097 -13.038)"/><path class="cls-10" d="M174.138,146.33h2.281v.954h-1.088v7.024h1.088v.955h-2.281Z" transform="translate(-48.097 -13.038)"/><path class="cls-10" d="M179.374,155.263v-.955h1.079v-7.024h-1.079v-.954h2.272v8.933Z" transform="translate(-48.097 -13.038)"/><path class="cls-18" d="M232.248,142.382h-15.67a3.684,3.684,0,0,0-3.684,3.683v7.624a3.684,3.684,0,0,0,3.684,3.684h4.1l3.1,7.034,4.375-7.034h4.1a3.683,3.683,0,0,0,3.683-3.684v-7.624A3.683,3.683,0,0,0,232.248,142.382Z" transform="translate(-48.097 -13.038)"/><path class="cls-10" d="M221.224,149.985c.381.124.563.382.563.973v1.814a.64.64,0,0,0,.706.725h.2v.955h-.477a1.417,1.417,0,0,1-1.622-1.556V150.93c0-.315-.162-.458-.429-.458h-.316V149.5h.316c.267,0,.429-.143.429-.458v-1.966a1.417,1.417,0,0,1,1.622-1.555h.477v.954h-.2a.64.64,0,0,0-.706.725v1.814C221.787,149.6,221.605,149.861,221.224,149.985Z" transform="translate(-48.097 -13.038)"/><path class="cls-10" d="M228.5,149.5v.974h-.324c-.257,0-.42.143-.42.458V152.9a1.424,1.424,0,0,1-1.632,1.556h-.477V153.5h.2a.644.644,0,0,0,.716-.725v-1.814c0-.591.171-.849.553-.973-.382-.124-.553-.382-.553-.973V147.2a.644.644,0,0,0-.716-.725h-.2v-.954h.477a1.424,1.424,0,0,1,1.632,1.555v1.966c0,.315.163.458.42.458Z" transform="translate(-48.097 -13.038)"/><path class="cls-18" d="M278.342,140.837h-15.67a3.683,3.683,0,0,0-3.683,3.683v7.624a3.683,3.683,0,0,0,3.683,3.683h4.1l3.1,7.035,4.376-7.035h4.095a3.683,3.683,0,0,0,3.684-3.683V144.52A3.683,3.683,0,0,0,278.342,140.837Z" transform="translate(-48.097 -13.038)"/><path class="cls-10" d="M269.884,146.48a.783.783,0,1,1,1.566,0,.783.783,0,1,1-1.566,0Zm1.566,3.636a2.148,2.148,0,0,1-.22.82l-.487,1.346h-.772l.381-1.46a.734.734,0,0,1-.448-.706.773.773,0,1,1,1.546,0Z" transform="translate(-48.097 -13.038)"/><path class="cls-18" d="M217.078,274.122h15.67a3.684,3.684,0,0,0,3.684-3.683v-7.624a3.684,3.684,0,0,0-3.684-3.683h-4.1l-1.195-7.034-6.283,7.034h-4.1a3.683,3.683,0,0,0-3.683,3.683v7.624A3.683,3.683,0,0,0,217.078,274.122Z" transform="translate(-48.097 -13.038)"/><path class="cls-10" d="M222.587,265.06l-3.293,1.231,3.293,1.231v.993l-4.4-1.708v-1.031l4.4-1.708Z" transform="translate(-48.097 -13.038)"/><path class="cls-10" d="M226.058,261.6h1.068l-3.149,8.99h-1.069Z" transform="translate(-48.097 -13.038)"/><path class="cls-10" d="M231.753,265.776v1.031l-4.4,1.708v-.993l3.293-1.231-3.293-1.231v-.992Z" transform="translate(-48.097 -13.038)"/><path class="cls-18" d="M117.456,218.6h15.67a3.683,3.683,0,0,0,3.683-3.683V207.3a3.684,3.684,0,0,0-3.683-3.684h-4.1l.892-7.034-8.371,7.034h-4.095a3.684,3.684,0,0,0-3.684,3.684v7.624A3.683,3.683,0,0,0,117.456,218.6Z" transform="translate(-48.097 -13.038)"/><path class="cls-10" d="M122.1,213.768a.739.739,0,0,1,.773-.735.728.728,0,0,1,.754.735.736.736,0,0,1-.754.745A.747.747,0,0,1,122.1,213.768Zm.067-6h1.412l-.238,4.466H122.4Z" transform="translate(-48.097 -13.038)"/><path class="cls-10" d="M124.81,209.474h4.4v.954h-4.4Zm0,2.309h4.4v.954h-4.4Z" transform="translate(-48.097 -13.038)"/><path class="cls-1" d="M368.366,209.959a53.341,53.341,0,0,1-.723,8.815c-2.154,12.852-8.91,22.231-16.906,22.231a10.513,10.513,0,0,1-2.122-.223c-8.727-1.852-15.5-14.942-15.5-30.823,0-17.144,7.892-23.208,17.621-23.208S368.366,192.815,368.366,209.959Z" transform="translate(-48.097 -13.038)"/><g class="cls-23"><path class="cls-3" d="M361.978,210.155c.655,9.193-.926,18.437-3.575,27.264,6.64-5.448,9.695-14.02,12.455-22.153,2-5.907,4.035-12,3.674-18.223s-3.7-12.7-9.542-14.887a12.7,12.7,0,0,0-9,.146c-4.9,1.964-2.215,3.559-.16,7.075A48.025,48.025,0,0,1,361.978,210.155Z" transform="translate(-48.097 -13.038)"/><path class="cls-12" d="M361.978,210.155c.655,9.193-.926,18.437-3.575,27.264,6.64-5.448,9.695-14.02,12.455-22.153,2-5.907,4.035-12,3.674-18.223s-3.7-12.7-9.542-14.887a12.7,12.7,0,0,0-9,.146c-4.9,1.964-2.215,3.559-.16,7.075A48.025,48.025,0,0,1,361.978,210.155Z" transform="translate(-48.097 -13.038)"/></g><path class="cls-15" d="M368.366,209.959a53.341,53.341,0,0,1-.723,8.815c-2.154,12.852-8.91,22.231-16.906,22.231a10.513,10.513,0,0,1-2.122-.223c-8.727-1.852-15.5-14.942-15.5-30.823,0-17.144,7.892-23.208,17.621-23.208S368.366,192.815,368.366,209.959Z" transform="translate(-48.097 -13.038)"/><path class="cls-2" d="M360.206,225.733a30.418,30.418,0,0,1-5.781,10.845" transform="translate(-48.097 -13.038)"/><path class="cls-15" d="M360.767,223.573q-.14.628-.305,1.252" transform="translate(-48.097 -13.038)"/><path class="cls-2" d="M360.722,209.919a30.41,30.41,0,0,1,.351,12.094" transform="translate(-48.097 -13.038)"/><path class="cls-15" d="M333.114,209.961s20.032-7.921,35.248,0" transform="translate(-48.097 -13.038)"/><path class="cls-2" d="M350.738,186.751a88.752,88.752,0,0,1,2.239,19.508" transform="translate(-48.097 -13.038)"/><path class="cls-21" d="M353.534,195.787c.258,2.309-.142,4.277-.893,4.395s-1.567-1.656-1.825-3.965.143-4.277.894-4.4S353.277,193.478,353.534,195.787Z" transform="translate(-48.097 -13.038)"/><path class="cls-15" d="M342.835,246.945H319.348a5.757,5.757,0,0,1-5.712-4.984,3.963,3.963,0,0,1-.067-.8v-55.4a4.183,4.183,0,0,1,.067-.8,5.751,5.751,0,0,1,5.712-4.977h66.643a5.681,5.681,0,0,1,2.77.714" transform="translate(-48.097 -13.038)"/></svg>