<svg id="Слой_1" data-name="Слой 1" xmlns="http://www.w3.org/2000/svg" viewBox="0 0 440 320"><defs><style>.cls-1{fill:#f4e8e4;}.cls-2,.cls-4{fill:#fc611f;}.cls-2{opacity:0.09;}.cls-17,.cls-3,.cls-5{fill:#184f78;}.cls-3{opacity:0.12;}.cls-6{fill:#16b6c6;}.cls-7{fill:#118995;}.cls-8{fill:#fff;opacity:0.3;}.cls-9{fill:#124768;}.cls-10{fill:#ea541f;}.cls-11{fill:#fdc00f;}.cls-12{fill:#134768;}.cls-13{fill:#25668e;}.cls-14{fill:#f5f8fb;}.cls-15{fill:#e1e8ef;}.cls-16{fill:#efc4a3;}.cls-17,.cls-18,.cls-19,.cls-20,.cls-21,.cls-22{stroke:#184f78;}.cls-17,.cls-18,.cls-19,.cls-20,.cls-21,.cls-22,.cls-23{stroke-miterlimit:10;}.cls-17{stroke-width:1.5px;}.cls-18,.cls-19,.cls-20,.cls-21,.cls-22,.cls-23{fill:none;}.cls-19{stroke-dasharray:4.813 4.813;}.cls-20{stroke-dasharray:5.954 5.954;}.cls-21{stroke-dasharray:4.595 4.595;}.cls-22{stroke-dasharray:2.58 2.58;}.cls-23{stroke:#fc611f;stroke-width:0.75px;}</style></defs><rect class="cls-1" width="440" height="320"/><path class="cls-2" d="M67.316,172.8s18.125-29.33-6.1-56.59-12.79-60.526,11.57-64.645,63.2,5.208,78.521-15.777,41.35-32.642,68.672-21.451S243.771,47.025,256.961,54s19.923,11.278,45.7,2.829,60.753,6.684,54.691,54.61,14.922,65.679,14.922,65.679,41.036,38.917,7.927,78.665-74.153,1.045-101.662,14.568-28.811,43.833-79.689,39.17-45.634-51.983-79.266-53.738S38.886,227.27,67.316,172.8Z"/><path class="cls-3" d="M156.145,184.023a2.451,2.451,0,0,1-2.383-2.074,44.445,44.445,0,0,0-87.6-1.638A2.452,2.452,0,0,1,63.7,182.3l-10.138-.19a2.466,2.466,0,0,0-2.511,2.419l-.17,9.066A2.467,2.467,0,0,0,53.3,196.1L166.02,198.21a2.466,2.466,0,0,0,2.512-2.42l.17-9.065a2.466,2.466,0,0,0-2.42-2.512ZM110.379,158.8a29.89,29.89,0,0,1,28.153,21.71,2.472,2.472,0,0,1-2.426,3.141l-52.365-.98a2.472,2.472,0,0,1-2.306-3.229A29.891,29.891,0,0,1,110.379,158.8Z"/><path class="cls-4" d="M261.381,66.79q3.45.959,6.855,2.063c.434.141.635-.54.2-.681q-3.407-1.1-6.855-2.062a.355.355,0,0,0-.2.68Z"/><path class="cls-4" d="M261.11,70.4l7.81,2.192a.355.355,0,0,0,.2-.681l-7.81-2.191a.355.355,0,0,0-.2.68Z"/><path class="cls-4" d="M275.9,78.282c16.139,3.314,31.247,10.415,47.869,11.9.277.025.482-.655.2-.68-16.622-1.481-31.73-8.583-47.869-11.9-.273-.056-.475.624-.2.68Z"/><path class="cls-3" d="M225.561,205.2,127.3,247.9a2.655,2.655,0,0,0,.94,5.087l119.115,5.287a2.655,2.655,0,0,0,2.552-3.71l-20.849-47.984A2.655,2.655,0,0,0,225.561,205.2Zm.358,38.022-39.26-3.554a1,1,0,0,1-.406-1.84l31.489-13.967a.919.919,0,0,1,1.174.543l7.771,17.521A.864.864,0,0,1,225.919,243.223Z"/><rect class="cls-5" x="166.4" y="141.776" width="120.3" height="18.224" rx="2.713"/><rect class="cls-4" x="172.552" y="123.553" width="120.3" height="18.224" rx="2.713"/><rect class="cls-6" x="152.654" y="105.269" width="120.3" height="18.224" rx="2.713"/><rect class="cls-7" x="169.761" y="105.269" width="12.389" height="18.224"/><rect class="cls-8" x="193.391" y="123.553" width="12.389" height="18.224"/><rect class="cls-9" x="181.631" y="141.776" width="12.389" height="18.224"/><path class="cls-10" d="M289.22,123.553H191.569l101.283,9.112v-5.48A3.632,3.632,0,0,0,289.22,123.553Z"/><path class="cls-9" d="M283.068,141.776H185.417L286.7,150.888v-5.48A3.633,3.633,0,0,0,283.068,141.776Z"/><polyline class="cls-3" points="167.799 156.656 166.4 183.197 274.506 160"/><path class="cls-11" d="M214.063,188.627l-89.535,58.844a2.655,2.655,0,0,0,1.795,4.852L244.592,237.2a2.654,2.654,0,0,0,1.882-4.091L217.74,189.387A2.655,2.655,0,0,0,214.063,188.627Zm6.843,37.4-39.29,3.2c-.927.075-1.467-1.241-.714-1.744l28.642-19.137a.919.919,0,0,1,1.25.335l10.648,15.937A.865.865,0,0,1,220.906,226.03Z"/><rect class="cls-3" x="242.307" y="183.003" width="112.416" height="14.767" rx="2.298" transform="translate(-55.2 174.764) rotate(-30)"/><rect class="cls-6" x="230.935" y="165.92" width="112.415" height="14.767" rx="2.298" transform="translate(-33.018 273.215) rotate(-48.444)"/><path class="cls-12" d="M285.928,185.108h65.555a3.019,3.019,0,0,1,3.019,3.019v71.489a3.019,3.019,0,0,1-3.019,3.019H285.928a3.02,3.02,0,0,1-3.02-3.02V188.127a3.02,3.02,0,0,1,3.02-3.02Z" transform="translate(117.603 -109.669) rotate(23.827)"/><path class="cls-13" d="M286.524,184.733h63.181a3.02,3.02,0,0,1,3.02,3.02v69.039a3.02,3.02,0,0,1-3.02,3.02H286.524a3.019,3.019,0,0,1-3.019-3.019V187.752a3.02,3.02,0,0,1,3.02-3.02Z" transform="translate(116.906 -109.567) rotate(23.827)"/><path class="cls-5" d="M312.355,230.418c12.665,8.1,26.325,9.3,36.147,8.718l15.324-34.7a2.757,2.757,0,0,0-1.409-3.636l-58.275-25.736a2.759,2.759,0,0,0-3.637,1.409l-20.168,45.669C286.213,220.873,297.244,220.752,312.355,230.418Z"/><rect class="cls-13" x="299.179" y="193.644" width="58.433" height="10.698" transform="translate(108.378 -115.704) rotate(23.827)"/><rect class="cls-6" x="290.754" y="202.979" width="9.979" height="9.349" rx="0.415" transform="translate(109.095 -101.776) rotate(23.827)"/><rect class="cls-6" x="302.815" y="208.306" width="9.979" height="9.349" rx="0.415" transform="translate(112.274 -106.194) rotate(23.827)"/><rect class="cls-6" x="314.876" y="213.632" width="9.979" height="9.349" rx="0.415" transform="translate(115.454 -110.612) rotate(23.827)"/><rect class="cls-6" x="326.938" y="218.958" width="9.979" height="9.349" rx="0.415" transform="translate(118.635 -115.031) rotate(23.827)"/><rect class="cls-6" x="338.999" y="224.285" width="9.979" height="9.349" rx="0.415" transform="translate(121.814 -119.45) rotate(23.827)"/><rect class="cls-6" x="284.212" y="217.795" width="9.979" height="9.349" rx="0.415" transform="translate(114.522 -97.869) rotate(23.827)"/><rect class="cls-6" x="296.273" y="223.121" width="9.979" height="9.349" rx="0.415" transform="translate(117.699 -102.287) rotate(23.827)"/><rect class="cls-6" x="308.334" y="228.447" width="9.979" height="9.349" rx="0.415" transform="translate(120.882 -106.707) rotate(23.827)"/><rect class="cls-6" x="320.395" y="233.774" width="9.979" height="9.349" rx="0.415" transform="translate(124.061 -111.125) rotate(23.827)"/><rect class="cls-6" x="332.456" y="239.1" width="9.979" height="9.349" rx="0.415" transform="matrix(0.915, 0.404, -0.404, 0.915, 127.239, -115.542)"/><rect class="cls-6" x="302.003" y="242.782" width="9.979" height="9.349" rx="0.415" transform="translate(126.132 -102.927) rotate(23.827)"/><rect class="cls-11" x="277.169" y="234.296" width="21.216" height="9.349" rx="0.415" transform="translate(121.066 -95.888) rotate(23.827)"/><rect class="cls-6" x="314.064" y="248.109" width="9.979" height="9.349" rx="0.415" transform="translate(129.314 -107.346) rotate(23.827)"/><rect class="cls-6" x="326.125" y="253.435" width="9.979" height="9.349" rx="0.415" transform="translate(132.493 -111.765) rotate(23.827)"/><path class="cls-4" d="M145.308,147.774a2.451,2.451,0,0,1-2.958-1.11,44.444,44.444,0,0,0-82.64,29.1,2.452,2.452,0,0,1-1.61,2.719l-9.564,3.368A2.465,2.465,0,0,0,47.03,185l3.011,8.552a2.466,2.466,0,0,0,3.146,1.507L159.522,157.61a2.465,2.465,0,0,0,1.506-3.145l-3.012-8.552a2.466,2.466,0,0,0-3.145-1.507Zm-51.7-7.625a29.889,29.889,0,0,1,33.968,10.492,2.472,2.472,0,0,1-1.174,3.791L77,171.829a2.472,2.472,0,0,1-3.29-2.219A29.887,29.887,0,0,1,93.61,140.149Z"/><path class="cls-5" d="M93.322,228.53q2.934-.336,5.834-.884c.285-.054.215-.5-.072-.447q-2.9.547-5.834.884c-.29.033-.217.48.072.447Z"/><path class="cls-5" d="M94.686,231.091l5.293-.848a.227.227,0,0,0-.071-.448l-5.294.849a.227.227,0,0,0,.072.447Z"/><path class="cls-5" d="M101.662,227.327q19.684-4.014,39.152-9.006c.28-.072.211-.52-.072-.447q-19.461,4.99-39.151,9.006c-.285.058-.215.506.071.447Z"/><path class="cls-3" d="M113.666,273.884l-1.522-4.674c-.345-.15-.672-.309-.985-.474-.1-.056-.2-.116-.3-.173-.2-.114-.4-.227-.59-.348-.113-.071-.216-.148-.323-.221-.163-.113-.325-.225-.477-.342-.107-.081-.206-.166-.307-.25-.14-.116-.278-.232-.408-.352-.1-.088-.188-.179-.279-.269-.122-.121-.242-.243-.355-.368-.085-.093-.167-.187-.247-.282-.108-.127-.212-.257-.311-.387-.072-.1-.143-.19-.211-.286q-.144-.205-.277-.416c-.059-.092-.117-.185-.173-.279-.087-.149-.168-.3-.247-.451-.045-.088-.093-.175-.135-.263-.082-.168-.155-.337-.227-.507-.03-.073-.063-.145-.092-.218-.081-.207-.154-.414-.222-.623-.012-.038-.027-.075-.039-.114a12.952,12.952,0,0,1-.551-3.083V259.5c-.015-.251-.024-.5-.027-.747v-.015c0-.246,0-.49.008-.73h0a19.707,19.707,0,0,1,1.121-5.864l-.979-3.805-21.959,6.306,1.522,4.022c11.088,6.414,3.914,17.067,3.914,17.067l1.522,4.892h0l23.155-6.74Z"/><path class="cls-5" d="M77.683,250.952l21.959-6.306.979,3.805s-4.892,12.5,5.652,17.068l1.522,4.674-23.155,6.74-1.522-4.892s7.175-10.653-3.913-17.067Z"/><circle class="cls-14" cx="93.011" cy="260.518" r="1.305"/><path class="cls-9" d="M106.274,265.519c-5.737-2.484-6.9-7.314-6.774-11.2-3.3,7.224-8.539,15.013-16.38,17.733l1.52,4.885,23.155-6.74Z"/><path class="cls-14" d="M86.869,252.816c.326,0,6.359-1.848,6.359-1.848l5.381,17.5L91.8,270.612Z"/><polyline class="cls-15" points="89.977 251.949 93.713 250.716 99.012 268.368 95.126 269.605"/><path class="cls-5" d="M94.5,261.655a1.177,1.177,0,1,1-1.177-1.176A1.176,1.176,0,0,1,94.5,261.655Z"/><path class="cls-3" d="M260.769,286.953v-.011a.469.469,0,0,0-.129-.289.507.507,0,0,0-.147-.105l-5.207-2.538h0l-9.529-4.645,0,.032a1.744,1.744,0,0,0-.2-.065L167.53,262.678a1.881,1.881,0,0,0-1.839.623,9.486,9.486,0,0,0-1.971,3.637h0v0c-.037.153-.067.307-.091.463l-.008.055c-.02.142-.035.285-.043.429,0,.036,0,.071,0,.107,0,.13,0,.26,0,.391,0,.053.009.106.013.159.01.117.023.234.043.352.012.069.029.138.045.208.023.1.045.206.077.31.026.086.062.173.1.259s.063.176.1.264c.049.107.11.213.169.319.039.068.07.137.113.205a5.074,5.074,0,0,0,.374.519,1.861,1.861,0,0,0,.228.233,1.924,1.924,0,0,0,.866.427l38.976,8.062,38.977,8.063a1.852,1.852,0,0,0,.375.039,1.826,1.826,0,0,0,.364-.033,1.775,1.775,0,0,0,.242-.071v0l9.95-.138h0l5.7-.08a.488.488,0,0,0,.318-.117c.007-.007.011-.016.018-.022a.544.544,0,0,0,.149-.392Z"/><path class="cls-5" d="M247.194,283.1l1.834-4.49a1.9,1.9,0,0,0-1.078-2.489l-74.5-28.534a1.882,1.882,0,0,0-1.913.331c-1.5,1.308-4.134,4.243-2.26,7.419a1.929,1.929,0,0,0,.979.821l74.516,28A1.9,1.9,0,0,0,247.194,283.1Z"/><path class="cls-9" d="M247.575,280.514c-.569-.182-62.569-23.341-78.55-29.311a4.429,4.429,0,0,0,.251,4.131,1.931,1.931,0,0,0,.978.821l74.517,28a1.9,1.9,0,0,0,2.423-1.059l1.834-4.49a1.881,1.881,0,0,0,.092-1.138Z"/><path class="cls-16" d="M248.149,276.183l13.447,9.378a.493.493,0,0,1-.352.893l-15.5-2.208Z"/><path class="cls-5" d="M255.6,285.65l5.643.8a.493.493,0,0,0,.352-.893l-4.752-3.314C255.411,283.639,255.336,284.831,255.6,285.65Z"/><path class="cls-4" d="M246.212,65.378c.51.146.7.426.585.841q-.133.467-.909.506a1.657,1.657,0,0,0-1.666,1.221,1.714,1.714,0,0,0,.3,1.617,2.751,2.751,0,0,0,1.422.866,5.371,5.371,0,0,0,3.579-.155,2.224,2.224,0,0,0,1.379-1.5,2.74,2.74,0,0,0,.081-1.247,13.381,13.381,0,0,0-.431-1.592q-.485-1.516-.766-2.729a4.819,4.819,0,0,1,0-2.464,6.871,6.871,0,0,1,4.035-4.2,12.865,12.865,0,0,1,3.614-1.079,6.9,6.9,0,0,1,2.847.157,2.366,2.366,0,0,1,1.289.844,1.75,1.75,0,0,1,.3,1.631,4.889,4.889,0,0,1-2.4,2.618,12.5,12.5,0,0,1-4.088,1.555,3.835,3.835,0,0,1-1.595.064.81.81,0,0,1-.5-.434.617.617,0,0,1-.053-.459c.1-.35.493-.543,1.177-.582a10.134,10.134,0,0,0,3.519-.846q2.1-.927,2.405-1.989a.83.83,0,0,0-.149-.763,1.085,1.085,0,0,0-.58-.38,5.938,5.938,0,0,0-2.663.05,8.747,8.747,0,0,0-3.852,1.7,4.771,4.771,0,0,0-1.755,2.39,4.371,4.371,0,0,0-.036,2.1q.209.932.595,2.145.372,1.163.586,2.127a4.174,4.174,0,0,1-.007,2,3.765,3.765,0,0,1-2.756,2.41,6.777,6.777,0,0,1-3.987.022,4.515,4.515,0,0,1-2.848-2.024,2.772,2.772,0,0,1-.3-2.2,2.941,2.941,0,0,1,1.411-1.831,3.269,3.269,0,0,1,1.394-.427A2.282,2.282,0,0,1,246.212,65.378Z"/><path class="cls-5" d="M68.676,231.908a18.038,18.038,0,0,0-.77,2.747,8.289,8.289,0,0,0-.228,3.085.66.66,0,0,0,.2.389.422.422,0,0,0,.374.066q.544-.118,1.095-1.31a13.4,13.4,0,0,0,.595-1.455c.086-.27.208-.421.368-.455a.327.327,0,0,1,.262.046.3.3,0,0,1,.129.176,4.9,4.9,0,0,1-.664,2.028q-.9,1.953-1.943,2.179a1.127,1.127,0,0,1-1.037-.308,1.637,1.637,0,0,1-.431-.876,8.079,8.079,0,0,1,.092-3.238q.09-.477.565-2.326a1.945,1.945,0,0,1-.43.174.764.764,0,0,1-.426-.021.457.457,0,0,1-.323-.329.5.5,0,0,1,.221-.5,5.327,5.327,0,0,1,.775-.318,5.81,5.81,0,0,0,.717-.373,19.81,19.81,0,0,1,.836-2.134,10.914,10.914,0,0,1,.479-.994c.135-.219.267-.344.4-.372a.407.407,0,0,1,.316.092.426.426,0,0,1,.193.254,2.843,2.843,0,0,1-.366,1.254,10.434,10.434,0,0,0-.406,1.013,7.949,7.949,0,0,1,1.661-.7q.6-.131.708.371a.409.409,0,0,1-.126.415,1.814,1.814,0,0,1-.543.233,11.053,11.053,0,0,0-1.555.773Q69.04,231.693,68.676,231.908Z"/><path class="cls-5" d="M74.476,236.108A8.38,8.38,0,0,1,74,237.33a1.9,1.9,0,0,1-1.176,1.147,1.039,1.039,0,0,1-1.036-.356,1.717,1.717,0,0,1-.392-.8,5.992,5.992,0,0,1,.18-2.835,7.214,7.214,0,0,1,1.5-2.941,2.66,2.66,0,0,1,1.39-.9,1.1,1.1,0,0,1,.824.117.785.785,0,0,1,.385.509,1.869,1.869,0,0,1-.04.705.753.753,0,0,1,.252.367,1.889,1.889,0,0,1-.142.819,8.55,8.55,0,0,0-.322,1.553,4.8,4.8,0,0,0-.01,1.576,1.082,1.082,0,0,0,.436.692,2.063,2.063,0,0,0,.5.154.475.475,0,0,1,.372.4.437.437,0,0,1-.079.371.579.579,0,0,1-.35.225,1.3,1.3,0,0,1-1.127-.3,1.657,1.657,0,0,1-.581-.99C74.557,236.691,74.52,236.449,74.476,236.108Zm.58-3.879a1.1,1.1,0,0,0-.361-.292.543.543,0,0,0-.352-.043q-.826.181-1.481,1.84a5.342,5.342,0,0,0-.476,2.945.716.716,0,0,0,.194.391.368.368,0,0,0,.341.074q.523-.115.977-1.377a18.832,18.832,0,0,0,.579-2.008,9.578,9.578,0,0,1,.332-1.145A1.562,1.562,0,0,1,75.056,232.229Z"/><path class="cls-5" d="M78.638,233.17c.075-.108.148-.214.215-.321q1.791-2.718,2.566-2.886c.282-.062.458.062.526.374a1.313,1.313,0,0,1-.213.857q-1.549,2.883-1.146,4.735A2.238,2.238,0,0,0,81.162,237a.864.864,0,0,1,.238.359.35.35,0,0,1-.076.279.458.458,0,0,1-.3.226.9.9,0,0,1-.875-.4,2.717,2.717,0,0,1-.577-1.233,6.446,6.446,0,0,1,.4-3.5,8.9,8.9,0,0,0-2.024,3.957c-.134.431-.325.675-.572.729a.406.406,0,0,1-.333-.064.551.551,0,0,1-.238-.36,10.989,10.989,0,0,1,.667-3.375q.424-1.506.706-2.206c.188-.461.381-.711.577-.754a.4.4,0,0,1,.3.071.494.494,0,0,1,.228.315,1.417,1.417,0,0,1-.166.756A11.917,11.917,0,0,0,78.638,233.17Z"/><path class="cls-5" d="M86.387,232.956a10.057,10.057,0,0,1-.571,1.467,2.278,2.278,0,0,1-1.411,1.376,1.249,1.249,0,0,1-1.243-.427,2.055,2.055,0,0,1-.471-.966,7.182,7.182,0,0,1,.217-3.4,8.648,8.648,0,0,1,1.8-3.529,3.192,3.192,0,0,1,1.669-1.075,1.329,1.329,0,0,1,.989.139.944.944,0,0,1,.461.611,2.23,2.23,0,0,1-.048.847.89.89,0,0,1,.3.441,2.234,2.234,0,0,1-.168.982,10.26,10.26,0,0,0-.388,1.864,5.747,5.747,0,0,0-.011,1.892,1.3,1.3,0,0,0,.523.83,2.45,2.45,0,0,0,.6.183.573.573,0,0,1,.446.479.516.516,0,0,1-.095.444.682.682,0,0,1-.42.27,1.562,1.562,0,0,1-1.351-.362,1.994,1.994,0,0,1-.7-1.19C86.484,233.656,86.439,233.364,86.387,232.956Zm.7-4.656a1.34,1.34,0,0,0-.433-.351.663.663,0,0,0-.421-.051q-.995.218-1.779,2.207a6.411,6.411,0,0,0-.57,3.535.848.848,0,0,0,.232.47.444.444,0,0,0,.409.089q.627-.138,1.174-1.652a22.785,22.785,0,0,0,.693-2.41,11.429,11.429,0,0,1,.4-1.375A1.945,1.945,0,0,1,87.083,228.3Z"/><path class="cls-5" d="M118.211,215.606q-.633,1.193-1.035,1.792a2.843,2.843,0,0,1-1.468,1.325.638.638,0,0,1-.569-.127.794.794,0,0,1-.249-.448,5.426,5.426,0,0,1,.627-3.017q.865-2.018,1.421-2.138a.356.356,0,0,1,.3.074.352.352,0,0,1,.161.228.634.634,0,0,1-.031.392,8.582,8.582,0,0,1-.473.842,10.082,10.082,0,0,0-.739,1.446,2.4,2.4,0,0,0-.289,1.209.179.179,0,0,0,.236.159q.383-.084,1.21-1.359.516-.806.792-1.338c.038-.076.195-.427.473-1.056q.379-.837.475-1c.143-.265.3-.416.464-.453a.385.385,0,0,1,.307.074.428.428,0,0,1,.178.263,2.332,2.332,0,0,1-.181,1.013q-.287.9-.52,1.67a15.446,15.446,0,0,0-.511,2.119,5.4,5.4,0,0,0,.931-1.116,5.678,5.678,0,0,0,.774-1.515c.066-.282.162-.436.29-.464a.243.243,0,0,1,.327.21,2.978,2.978,0,0,1-.532,1.7,9.433,9.433,0,0,1-2.1,2.608,31.073,31.073,0,0,1-.824,3.542q-.829,2.643-2.258,2.953a1.166,1.166,0,0,1-1.038-.245,1.379,1.379,0,0,1-.467-.811q-.327-1.5,1.432-3.516a19.069,19.069,0,0,1,1.57-1.548q.427-.386.669-.617.075-.479.272-1.285Q118.051,216.305,118.211,215.606Zm-.941,4.152a9.952,9.952,0,0,0-1.758,1.93,2.748,2.748,0,0,0-.673,2.074.47.47,0,0,0,.173.284.476.476,0,0,0,.411.091q.719-.157,1.263-1.853.088-.279.424-1.829Q117.182,220.139,117.27,219.758Z"/><path class="cls-4" d="M302.8,77.448c.019-.069.036-.129.051-.179q.179-.624.448-2.136a6.794,6.794,0,0,0,.148-1.529,1.612,1.612,0,0,1-.009-.33.314.314,0,0,1,.19-.2.4.4,0,0,1,.271-.019.387.387,0,0,1,.273.375,7.467,7.467,0,0,1-.146,1.776q-.12.73-.29,1.691,2.049-1.12,3.13-1.605a5.266,5.266,0,0,1,1.711-.609.27.27,0,0,1,.181.2.435.435,0,0,1-.005.221.839.839,0,0,1-.5.474c-.153.066-.6.263-1.351.593a34.619,34.619,0,0,0-3.4,1.75,16.138,16.138,0,0,0-.782,5.453.829.829,0,0,1-.019.3.4.4,0,0,1-.193.234.411.411,0,0,1-.338.044c-.184-.052-.288-.213-.315-.483a10.594,10.594,0,0,1,.208-2.337q.243-1.446.542-2.695a37.027,37.027,0,0,0-4.7,3.079c-.251.22-.444.311-.582.271a.305.305,0,0,1-.2-.2.333.333,0,0,1-.021-.214c.047-.16.265-.38.657-.659Q300.364,78.888,302.8,77.448Z"/><path class="cls-4" d="M289.216,86.939a.512.512,0,0,1,.379.725,1.725,1.725,0,0,1-.679.9c-.275.2-.487.276-.639.232-.128-.036-.17-.127-.129-.273a.294.294,0,0,1,.109-.17,1.824,1.824,0,0,1,.209-.111,1.544,1.544,0,0,0,.353-.277.575.575,0,0,0,.163-.229c.021-.073-.01-.121-.092-.145a.923.923,0,0,0-.5.1,4.311,4.311,0,0,0-1.26.872,2.885,2.885,0,0,0-.845,1.138.452.452,0,0,0,.013.293.428.428,0,0,0,.3.279,1.732,1.732,0,0,0,1.175-.243,6.9,6.9,0,0,0,1.106-.678q.25-.2.382-.165a.187.187,0,0,1,.117.108.247.247,0,0,1,.017.153q-.074.254-.936.8a2.9,2.9,0,0,1-2.208.614.94.94,0,0,1-.672-.585,1.1,1.1,0,0,1-.012-.686,3.369,3.369,0,0,1,1.064-1.485,5.491,5.491,0,0,1,1.73-1.07A1.447,1.447,0,0,1,289.216,86.939Z"/><path class="cls-4" d="M293.271,87.914q.563.16.366.847a5,5,0,0,1-1.5,2.071q-1.353,1.253-2.21,1.007a.637.637,0,0,1-.478-.537,1,1,0,0,1,.032-.474,3.965,3.965,0,0,1,1.149-1.733,4.808,4.808,0,0,1,1.748-1.1A1.526,1.526,0,0,1,293.271,87.914ZM291.814,90.3c-.086-.124-.124-.211-.109-.262.01-.036.112-.116.306-.239q.816-.516.937-.941a.214.214,0,0,0,0-.12.187.187,0,0,0-.142-.151,1.222,1.222,0,0,0-.766.241,4.458,4.458,0,0,0-1.161.892,2.679,2.679,0,0,0-.652,1.008.354.354,0,0,0,0,.223.281.281,0,0,0,.191.189,1.046,1.046,0,0,0,.848-.292,2.223,2.223,0,0,0,.388-.349A1.2,1.2,0,0,0,291.814,90.3Z"/><path class="cls-4" d="M297.066,88.859a1.146,1.146,0,0,1,.6.334.547.547,0,0,1,.081.521,1.294,1.294,0,0,1-.525.7,2.068,2.068,0,0,1-1.029.329,1.653,1.653,0,0,1-.562-.035q-.288-.083-.215-.336a.3.3,0,0,1,.238-.214c.033-.005.2,0,.5.017a1.084,1.084,0,0,0,.537-.106.466.466,0,0,0,.282-.291.274.274,0,0,0-.021-.235.4.4,0,0,0-.226-.14,1.675,1.675,0,0,0-.971.072,1.076,1.076,0,0,0-.8.7,1.775,1.775,0,0,0,.109,1,1.936,1.936,0,0,1,.121,1.1,1.11,1.11,0,0,1-.806.793,1.4,1.4,0,0,1-.809,0,1.2,1.2,0,0,1-.866-.759,1.4,1.4,0,0,1-.012-.866,1.506,1.506,0,0,1,.532-.819.5.5,0,0,1,.438-.134c.116.033.159.095.133.186a.407.407,0,0,1-.109.147,1.507,1.507,0,0,0-.356.648.79.79,0,0,0,.077.637.712.712,0,0,0,.427.346.546.546,0,0,0,.471-.058.613.613,0,0,0,.233-.349,1.469,1.469,0,0,0-.115-.842,2.107,2.107,0,0,1-.125-1.275,1.551,1.551,0,0,1,1.095-1A2.745,2.745,0,0,1,297.066,88.859Z"/><path class="cls-4" d="M299.053,92.681a6.741,6.741,0,0,1-.8.68,1.523,1.523,0,0,1-1.264.363.831.831,0,0,1-.594-.644,1.375,1.375,0,0,1,.028-.716,4.782,4.782,0,0,1,1.2-1.928,5.751,5.751,0,0,1,2.174-1.5,2.132,2.132,0,0,1,1.319-.106.881.881,0,0,1,.536.4.626.626,0,0,1,.078.5,1.451,1.451,0,0,1-.3.481.609.609,0,0,1,.038.354,1.486,1.486,0,0,1-.41.523,6.858,6.858,0,0,0-.815.973,3.873,3.873,0,0,0-.606,1.107.874.874,0,0,0,.046.652,1.624,1.624,0,0,0,.294.3.385.385,0,0,1,.113.422.349.349,0,0,1-.2.231.459.459,0,0,1-.332.026,1.039,1.039,0,0,1-.68-.64,1.337,1.337,0,0,1-.033-.919C298.891,93.122,298.955,92.937,299.053,92.681Zm1.88-2.515a.9.9,0,0,0-.144-.343.438.438,0,0,0-.231-.163q-.651-.186-1.742.736a4.268,4.268,0,0,0-1.449,1.894.571.571,0,0,0-.013.349.3.3,0,0,0,.212.182q.413.117,1.211-.6a14.805,14.805,0,0,0,1.167-1.2,7.9,7.9,0,0,1,.668-.68A1.33,1.33,0,0,1,300.933,90.166Z"/><path class="cls-5" d="M129.9,56.3a728.626,728.626,0,0,1,13.211,81.274c.044.417.686.317.643-.1a728.643,728.643,0,0,0-13.211-81.275c-.09-.406-.733-.311-.643.1Z"/><path class="cls-5" d="M87.35,105.384c40.65-5.49,81.708-11.13,120.255-25.808.391-.149.124-.742-.266-.593-38.493,14.657-79.5,20.276-120.087,25.758a.325.325,0,0,0,.1.643Z"/><path class="cls-5" d="M207.121,83.518l1.668,2.168c.256.331.761-.078.506-.41q-.835-1.083-1.669-2.167c-.255-.332-.761.077-.5.409Z"/><path class="cls-5" d="M209.035,82.328a8.93,8.93,0,0,1-1.072,5.891c-.2.36.317.749.525.385a9.654,9.654,0,0,0,1.19-6.375.325.325,0,0,0-.643.1Z"/><path class="cls-5" d="M134.586,52.992a9.634,9.634,0,0,0,4.248,2.093c.41.09.482-.557.076-.646a8.981,8.981,0,0,1-3.939-1.971c-.319-.272-.7.253-.385.524Z"/><path class="cls-5" d="M137.586,52.093a14.633,14.633,0,0,1-2.257,3.817c-.265.325.26.708.524.385a15.238,15.238,0,0,0,2.338-3.963.325.325,0,0,0-.6-.239Z"/><path class="cls-5" d="M204.146,77.738a13.834,13.834,0,0,1,3.472,1.768c-.024-.152-.047-.3-.07-.455a6.715,6.715,0,0,0-1.262,2.466c-.11.4.494.643.6.24a6.286,6.286,0,0,1,1.181-2.321.327.327,0,0,0-.07-.454,14.45,14.45,0,0,0-3.616-1.849c-.4-.136-.636.468-.24.605Z"/><path class="cls-5" d="M129.465,58.411l.267-1.088a6.664,6.664,0,0,0,.16-.652l.053-.217q-.156-.285.02-.12c.244.045.619.47.809.627q.48.4.928.834c.3.287.806-.119.5-.41-.412-.4-.837-.784-1.286-1.142-.279-.221-.7-.7-1.1-.631-.33.053-.422.382-.493.657-.176.687-.337,1.377-.506,2.066-.1.406.548.477.646.076Z"/><path class="cls-17" d="M158.954,80.63S167.223,66.75,178.6,51.2"/><path class="cls-5" d="M155.5,75.2a9.9,9.9,0,0,0-1.192,1.294c-.021.485-.024,1.052-.005,1.7l.016.477c0,.086.006.21.006.374.006.189-.036.311-.125.366a.185.185,0,0,1-.156.018.177.177,0,0,1-.118-.079,2.563,2.563,0,0,1-.088-.779q-.012-.366,0-1.052c0-.178,0-.321,0-.432a3.669,3.669,0,0,0-.326.406.443.443,0,0,1-.125.136.153.153,0,0,1-.161,0,.192.192,0,0,1-.091-.079.229.229,0,0,1-.022-.239,3.045,3.045,0,0,1,.4-.538,4.851,4.851,0,0,0,.348-.446q.018-.147.059-.837.014-.3.209-1.493a16.246,16.246,0,0,1,.346-1.677.978.978,0,0,1,.281-.572.26.26,0,0,1,.219-.026.289.289,0,0,1,.16.121,1.416,1.416,0,0,1,.123.438q.106.579.268,1.213.147.559.252.839a.727.727,0,0,0,.09-.059c.071-.048.131-.087.179-.116q.22-.137.324.03a.3.3,0,0,1,.04.171.224.224,0,0,1-.055.153.667.667,0,0,1-.121.085,1.621,1.621,0,0,0-.305.226,15.384,15.384,0,0,0,.563,1.556,10.244,10.244,0,0,0,.459.962c.113.181.115.307.006.374a.26.26,0,0,1-.283-.008.573.573,0,0,1-.205-.214,8.551,8.551,0,0,1-.687-1.525C155.667,75.635,155.572,75.376,155.5,75.2Zm-.147-.475q-.035-.13-.189-.695c-.028-.1-.073-.3-.133-.606s-.117-.564-.156-.751a3.369,3.369,0,0,0-.233.741,12.325,12.325,0,0,0-.29,2.355c.081-.08.246-.262.5-.543C154.927,75.144,155.094,74.977,155.357,74.723Z"/><path class="cls-5" d="M184.276,46.85a1.612,1.612,0,0,1,.739-.012,1.255,1.255,0,0,1,.779.566,2.041,2.041,0,0,1,.3,1.181,2.529,2.529,0,0,1-.335,1.145,2.307,2.307,0,0,1-.8.839,2.4,2.4,0,0,1-.938.314c.019.082.034.137.042.162.042.14.026.231-.044.275a.266.266,0,0,1-.268-.008.387.387,0,0,1-.167-.143,2.424,2.424,0,0,1-.178-.66,17.287,17.287,0,0,1-.248-1.74q-.03-.4-.062-1.576-.011-.508.007-1.4c0-.143,0-.283,0-.425a4.623,4.623,0,0,0-.352.49,1.553,1.553,0,0,1-.215.29.143.143,0,0,1-.133.005.269.269,0,0,1-.124-.108.22.22,0,0,1-.025-.219,3.211,3.211,0,0,1,.358-.573,4.161,4.161,0,0,1,1.061-1.091,1.189,1.189,0,0,1,.776-.2.73.73,0,0,1,.562.351,1.515,1.515,0,0,1-.056,1.528A4.79,4.79,0,0,1,184.276,46.85Zm-.713.116a4.239,4.239,0,0,0,.929-1.21q.414-.805.17-1.2a.375.375,0,0,0-.351-.177.741.741,0,0,0-.361.128,2.03,2.03,0,0,0-.267.205,3.114,3.114,0,0,0-.269.285.175.175,0,0,1,.139.081.587.587,0,0,1,.04.343c0,.056-.009.161-.014.318,0,.065,0,.245-.017.541A6.122,6.122,0,0,0,183.563,46.966Zm.364,3.529a1.545,1.545,0,0,0,.25-.019,1.4,1.4,0,0,0,.472-.2,1.814,1.814,0,0,0,.9-1.44,2.071,2.071,0,0,0-.246-1.321.757.757,0,0,0-.664-.371.924.924,0,0,0-.512.149,1.723,1.723,0,0,0-.255.214.33.33,0,0,1-.063.05c-.061.038-.139.025-.234-.038a12,12,0,0,0,.117,1.715Q183.76,49.776,183.927,50.5Z"/><circle class="cls-5" cx="178.596" cy="51.204" r="1.476"/><circle class="cls-5" cx="158.954" cy="80.63" r="1.476"/><path class="cls-18" d="M132.3,64.367s.882-.083,2.478-.3"/><path class="cls-19" d="M139.53,63.324A161.142,161.142,0,0,0,174.1,53.213"/><path class="cls-18" d="M176.323,52.245q1.136-.507,2.273-1.041"/><path class="cls-18" d="M136.055,85.334a19.22,19.22,0,0,0,2.493-.13"/><path class="cls-20" d="M144.43,84.308c2.335-.452,5.211-1.1,8.695-2.032"/><path class="cls-18" d="M156,81.481q1.162-.331,2.4-.7"/><path class="cls-18" d="M178.6,50.311s.366.73,1.011,2.281"/><path class="cls-21" d="M181.264,56.875a226.158,226.158,0,0,1,7.074,24.252"/><path class="cls-18" d="M188.868,83.371q.279,1.194.559,2.437"/><path class="cls-18" d="M158.954,80.654a6.77,6.77,0,0,1,1.477,2"/><path class="cls-22" d="M161.473,85.008a26.916,26.916,0,0,1,1.022,3.73"/><path class="cls-18" d="M162.731,90.015q.192,1.149.336,2.478"/><path class="cls-18" d="M105.673,222.585a.474.474,0,0,1-.582-.551c.25-1.231,1.521-3.558,2.554-6.433.876-2.437,3.882,2.52,4.561,4.57a.715.715,0,0,1-.505.92Z"/><path class="cls-23" d="M288.569,77.344a.474.474,0,0,1-.225-.769c.836-.938,3.107-2.307,5.448-4.27,1.984-1.663,2.083,4.134,1.636,6.247a.713.713,0,0,1-.9.539Z"/><path class="cls-5" d="M119.628,227.621a5.761,5.761,0,0,1-.154-.569q-.057-.258-.121-.647-.112-.645-.135-.753a1.973,1.973,0,0,1-.051-.832.461.461,0,0,1,.355-.348.381.381,0,0,1,.315.061.54.54,0,0,1,.2.319,3.654,3.654,0,0,1,.056.388,5.518,5.518,0,0,0,.1.612c.021.093.057.245.109.447.095-.175.3-.529.6-1.065q.716-1.28,1.06-1.355a.227.227,0,0,1,.2.056.39.39,0,0,1,.127.212.714.714,0,0,1-.189.563,13.886,13.886,0,0,0-1.563,2.731c.016.1.029.175.037.213q.159.731.248,1c.088.249.224.354.409.313s.4-.294.618-.758a11.5,11.5,0,0,0,.568-1.358c.1-.318.24-.5.406-.531.134-.029.219.036.254.2a4.188,4.188,0,0,1-.56,1.9,7.928,7.928,0,0,1-.7,1.288,1.336,1.336,0,0,1-.757.577q-.567.123-.855-.557a7.609,7.609,0,0,1-.352-1.058c-.095.174-.284.551-.567,1.128q-.636,1.314-.973,1.387-.3.064-.405-.433a.528.528,0,0,1,.051-.363,3.347,3.347,0,0,1,.326-.484,10.811,10.811,0,0,0,.849-1.359C119.382,228.074,119.545,227.766,119.628,227.621Z"/><path class="cls-18" d="M109.254,234.258a.475.475,0,0,1-.582-.552c.249-1.231,1.521-3.557,2.554-6.433.875-2.436,3.882,2.521,4.561,4.571a.714.714,0,0,1-.505.919Z"/></svg>